SplineFontDB: 3.0
FontName: MaterialIcons-Regular
FullName: Material Icons
FamilyName: Material Icons
Weight: Book
Copyright: Copyright 2015 Google, Inc. All Rights Reserved.
Version: 1.011
ItalicAngle: 0
UnderlinePosition: -150
UnderlineWidth: 50
Ascent: 512
Descent: 0
InvalidEm: 0
sfntRevision: 0x000102d0
woffMajor: 1
woffMinor: 1
LayerCount: 2
Layer: 0 1 "Back" 1
Layer: 1 1 "Fore" 0
XUID: [1021 340 -2076763647 2827776]
StyleMap: 0x0000
FSType: 0
OS2Version: 4
OS2_WeightWidthSlopeOnly: 0
OS2_UseTypoMetrics: 1
CreationTime: 1454961482
ModificationTime: 1496423214
PfmFamily: 17
TTFWeight: 400
TTFWidth: 5
LineGap: 0
VLineGap: 0
Panose: 2 0 5 3 0 0 0 0 0 0
OS2TypoAscent: 512
OS2TypoAOffset: 0
OS2TypoDescent: 0
OS2TypoDOffset: 0
OS2TypoLinegap: 0
OS2WinAscent: 512
OS2WinAOffset: 0
OS2WinDescent: 0
OS2WinDOffset: 0
HheadAscent: 512
HheadAOffset: 0
HheadDescent: 0
HheadDOffset: 0
OS2SubXSize: 332
OS2SubYSize: 358
OS2SubXOff: 0
OS2SubYOff: 71
OS2SupXSize: 332
OS2SupYSize: 358
OS2SupXOff: 0
OS2SupYOff: 245
OS2StrikeYSize: 25
OS2StrikeYPos: 132
OS2CodePages: 00000001.00000000
OS2UnicodeRanges: 00000001.12000000.04000000.00000000
Lookup: 4 0 1 "'liga' Standard Ligatures in Latin lookup 0" { "'liga' Standard Ligatures in Latin lookup 0 subtable"  } ['liga' ('latn' <'dflt' > ) ]
DEI: 91125
ShortTable: maxp 16
  1
  0
  973
  176
  24
  0
  0
  2
  0
  1
  1
  0
  64
  46
  0
  0
EndShort
LangName: 1033 "" "" "" "FontForge 2.0 : Material Icons : 8-2-2016" "" "Version 1.011"
GaspTable: 1 65535 2 0
DesignSize: 160
Encoding: UnicodeFull
UnicodeInterp: none
NameList: AGL For New Fonts
DisplaySize: -48
AntiAlias: 1
FitToEm: 0
WinInfo: 59200 50 20
BeginChars: 1114115 974

StartChar: .notdef
Encoding: 1114112 -1 0
Width: 512
Flags: W
LayerCount: 2
Fore
SplineSet
17 0 m 1,0,-1
 17 341 l 1,1,-1
 153 341 l 1,2,-1
 153 0 l 1,3,-1
 17 0 l 1,0,-1
34 17 m 1,4,-1
 136 17 l 1,5,-1
 136 324 l 1,6,-1
 34 324 l 1,7,-1
 34 17 l 1,4,-1
EndSplineSet
EndChar

StartChar: zero
Encoding: 48 48 3
Width: 512
GlyphClass: 2
Flags: W
LayerCount: 2
Fore
SplineSet
0 0 m 1024,0,-1
EndSplineSet
EndChar

StartChar: one
Encoding: 49 49 4
Width: 512
GlyphClass: 2
Flags: W
LayerCount: 2
Fore
SplineSet
0 0 m 1024,0,-1
EndSplineSet
EndChar

StartChar: two
Encoding: 50 50 5
Width: 512
GlyphClass: 2
Flags: W
LayerCount: 2
Fore
SplineSet
0 0 m 1024,0,-1
EndSplineSet
EndChar

StartChar: three
Encoding: 51 51 6
Width: 512
GlyphClass: 2
Flags: W
LayerCount: 2
Fore
SplineSet
0 0 m 1024,0,-1
EndSplineSet
EndChar

StartChar: four
Encoding: 52 52 7
Width: 512
GlyphClass: 2
Flags: W
LayerCount: 2
Fore
SplineSet
0 0 m 1024,0,-1
EndSplineSet
EndChar

StartChar: five
Encoding: 53 53 8
Width: 512
GlyphClass: 2
Flags: W
LayerCount: 2
Fore
SplineSet
0 0 m 1024,0,-1
EndSplineSet
EndChar

StartChar: six
Encoding: 54 54 9
Width: 512
GlyphClass: 2
Flags: W
LayerCount: 2
Fore
SplineSet
0 0 m 1024,0,-1
EndSplineSet
EndChar

StartChar: seven
Encoding: 55 55 10
Width: 512
GlyphClass: 2
Flags: W
LayerCount: 2
Fore
SplineSet
0 0 m 1024,0,-1
EndSplineSet
EndChar

StartChar: eight
Encoding: 56 56 11
Width: 512
GlyphClass: 2
Flags: W
LayerCount: 2
Fore
SplineSet
0 0 m 1024,0,-1
EndSplineSet
EndChar

StartChar: nine
Encoding: 57 57 12
Width: 512
GlyphClass: 2
Flags: W
LayerCount: 2
Fore
SplineSet
0 0 m 1024,0,-1
EndSplineSet
EndChar

StartChar: underscore
Encoding: 95 95 13
Width: 512
GlyphClass: 2
Flags: W
LayerCount: 2
Fore
SplineSet
0 0 m 1024,0,-1
EndSplineSet
EndChar

StartChar: a
Encoding: 97 97 14
Width: 512
GlyphClass: 2
Flags: W
LayerCount: 2
Fore
SplineSet
0 0 m 1024,0,-1
EndSplineSet
EndChar

StartChar: b
Encoding: 98 98 15
Width: 512
GlyphClass: 2
Flags: W
LayerCount: 2
Fore
SplineSet
0 0 m 1024,0,-1
EndSplineSet
EndChar

StartChar: c
Encoding: 99 99 16
Width: 512
GlyphClass: 2
Flags: W
LayerCount: 2
Fore
SplineSet
0 0 m 1024,0,-1
EndSplineSet
EndChar

StartChar: d
Encoding: 100 100 17
Width: 512
GlyphClass: 2
Flags: W
LayerCount: 2
Fore
SplineSet
0 0 m 1024,0,-1
EndSplineSet
EndChar

StartChar: e
Encoding: 101 101 18
Width: 512
GlyphClass: 2
Flags: W
LayerCount: 2
Fore
SplineSet
0 0 m 1024,0,-1
EndSplineSet
EndChar

StartChar: f
Encoding: 102 102 19
Width: 512
GlyphClass: 2
Flags: W
LayerCount: 2
Fore
SplineSet
0 0 m 1024,0,-1
EndSplineSet
EndChar

StartChar: g
Encoding: 103 103 20
Width: 512
GlyphClass: 2
Flags: W
LayerCount: 2
Fore
SplineSet
0 0 m 1024,0,-1
EndSplineSet
EndChar

StartChar: h
Encoding: 104 104 21
Width: 512
GlyphClass: 2
Flags: W
LayerCount: 2
Fore
SplineSet
0 0 m 1024,0,-1
EndSplineSet
EndChar

StartChar: i
Encoding: 105 105 22
Width: 512
GlyphClass: 2
Flags: W
LayerCount: 2
Fore
SplineSet
0 0 m 1024,0,-1
EndSplineSet
EndChar

StartChar: j
Encoding: 106 106 23
Width: 512
GlyphClass: 2
Flags: W
LayerCount: 2
Fore
SplineSet
0 0 m 1024,0,-1
EndSplineSet
EndChar

StartChar: k
Encoding: 107 107 24
Width: 512
GlyphClass: 2
Flags: W
LayerCount: 2
Fore
SplineSet
0 0 m 1024,0,-1
EndSplineSet
EndChar

StartChar: l
Encoding: 108 108 25
Width: 512
GlyphClass: 2
Flags: W
LayerCount: 2
Fore
SplineSet
0 0 m 1024,0,-1
EndSplineSet
EndChar

StartChar: m
Encoding: 109 109 26
Width: 512
GlyphClass: 2
Flags: W
LayerCount: 2
Fore
SplineSet
0 0 m 1024,0,-1
EndSplineSet
EndChar

StartChar: n
Encoding: 110 110 27
Width: 512
GlyphClass: 2
Flags: W
LayerCount: 2
Fore
SplineSet
0 0 m 1024,0,-1
EndSplineSet
EndChar

StartChar: o
Encoding: 111 111 28
Width: 512
GlyphClass: 2
Flags: W
LayerCount: 2
Fore
SplineSet
0 0 m 1024,0,-1
EndSplineSet
EndChar

StartChar: p
Encoding: 112 112 29
Width: 512
GlyphClass: 2
Flags: W
LayerCount: 2
Fore
SplineSet
0 0 m 1024,0,-1
EndSplineSet
EndChar

StartChar: q
Encoding: 113 113 30
Width: 512
GlyphClass: 2
Flags: W
LayerCount: 2
Fore
SplineSet
0 0 m 1024,0,-1
EndSplineSet
EndChar

StartChar: r
Encoding: 114 114 31
Width: 512
GlyphClass: 2
Flags: W
LayerCount: 2
Fore
SplineSet
0 0 m 1024,0,-1
EndSplineSet
EndChar

StartChar: s
Encoding: 115 115 32
Width: 512
GlyphClass: 2
Flags: W
LayerCount: 2
Fore
SplineSet
0 0 m 1024,0,-1
EndSplineSet
EndChar

StartChar: t
Encoding: 116 116 33
Width: 512
GlyphClass: 2
Flags: W
LayerCount: 2
Fore
SplineSet
0 0 m 1024,0,-1
EndSplineSet
EndChar

StartChar: u
Encoding: 117 117 34
Width: 512
GlyphClass: 2
Flags: W
LayerCount: 2
Fore
SplineSet
0 0 m 1024,0,-1
EndSplineSet
EndChar

StartChar: v
Encoding: 118 118 35
Width: 512
GlyphClass: 2
Flags: W
LayerCount: 2
Fore
SplineSet
0 0 m 1024,0,-1
EndSplineSet
EndChar

StartChar: w
Encoding: 119 119 36
Width: 512
GlyphClass: 2
Flags: W
LayerCount: 2
Fore
SplineSet
0 0 m 1024,0,-1
EndSplineSet
EndChar

StartChar: x
Encoding: 120 120 37
Width: 512
GlyphClass: 2
Flags: W
LayerCount: 2
Fore
SplineSet
0 0 m 1024,0,-1
EndSplineSet
EndChar

StartChar: y
Encoding: 121 121 38
Width: 512
GlyphClass: 2
Flags: W
LayerCount: 2
Fore
SplineSet
0 0 m 1024,0,-1
EndSplineSet
EndChar

StartChar: z
Encoding: 122 122 39
Width: 512
GlyphClass: 2
Flags: W
LayerCount: 2
Fore
SplineSet
0 0 m 1024,0,-1
EndSplineSet
EndChar

StartChar: uniE000
Encoding: 57344 57344 40
Width: 512
GlyphClass: 3
Flags: W
LayerCount: 2
Fore
SplineSet
277 235 m 1,0,-1
 277 363 l 1,1,-1
 235 363 l 1,2,-1
 235 235 l 1,3,-1
 277 235 l 1,0,-1
277 149 m 1,4,-1
 277 192 l 1,5,-1
 235 192 l 1,6,-1
 235 149 l 1,7,-1
 277 149 l 1,4,-1
256 469 m 128,-1,9
 344 469 344 469 406.5 406.5 c 128,-1,10
 469 344 469 344 469 256 c 128,-1,11
 469 168 469 168 406.5 105.5 c 128,-1,12
 344 43 344 43 256 43 c 128,-1,13
 168 43 168 43 105.5 105.5 c 128,-1,14
 43 168 43 168 43 256 c 128,-1,15
 43 344 43 344 105.5 406.5 c 128,-1,8
 168 469 168 469 256 469 c 128,-1,9
EndSplineSet
Ligature2: "'liga' Standard Ligatures in Latin lookup 0 subtable" e r r o r
EndChar

StartChar: uniE001
Encoding: 57345 57345 41
Width: 512
GlyphClass: 3
Flags: W
LayerCount: 2
Fore
SplineSet
256 85 m 128,-1,1
 326 85 326 85 376.5 135.5 c 128,-1,2
 427 186 427 186 427 256 c 128,-1,3
 427 326 427 326 376.5 376.5 c 128,-1,4
 326 427 326 427 256 427 c 128,-1,5
 186 427 186 427 135.5 376.5 c 128,-1,6
 85 326 85 326 85 256 c 128,-1,7
 85 186 85 186 135.5 135.5 c 128,-1,0
 186 85 186 85 256 85 c 128,-1,1
256 469 m 128,-1,9
 344 469 344 469 406.5 406.5 c 128,-1,10
 469 344 469 344 469 256 c 128,-1,11
 469 168 469 168 406.5 105.5 c 128,-1,12
 344 43 344 43 256 43 c 128,-1,13
 168 43 168 43 105.5 105.5 c 128,-1,14
 43 168 43 168 43 256 c 128,-1,15
 43 344 43 344 105.5 406.5 c 128,-1,8
 168 469 168 469 256 469 c 128,-1,9
235 363 m 1,16,-1
 277 363 l 1,17,-1
 277 235 l 1,18,-1
 235 235 l 1,19,-1
 235 363 l 1,16,-1
235 192 m 1,20,-1
 277 192 l 1,21,-1
 277 149 l 1,22,-1
 235 149 l 1,23,-1
 235 192 l 1,20,-1
EndSplineSet
Ligature2: "'liga' Standard Ligatures in Latin lookup 0 subtable" e r r o r underscore o u t l i n e
EndChar

StartChar: uniE002
Encoding: 57346 57346 42
Width: 512
GlyphClass: 3
Flags: W
LayerCount: 2
Fore
SplineSet
277 213 m 1,0,-1
 277 299 l 1,1,-1
 235 299 l 1,2,-1
 235 213 l 1,3,-1
 277 213 l 1,0,-1
277 128 m 1,4,-1
 277 171 l 1,5,-1
 235 171 l 1,6,-1
 235 128 l 1,7,-1
 277 128 l 1,4,-1
21 64 m 1,8,-1
 256 469 l 1,9,-1
 491 64 l 1,10,-1
 21 64 l 1,8,-1
EndSplineSet
Ligature2: "'liga' Standard Ligatures in Latin lookup 0 subtable" w a r n i n g
EndChar

StartChar: uniE003
Encoding: 57347 57347 43
Width: 512
GlyphClass: 3
Flags: W
LayerCount: 2
Fore
SplineSet
341 234 m 1,0,-1
 341 277 l 1,1,-1
 277 277 l 1,2,-1
 277 341 l 1,3,-1
 235 341 l 1,4,-1
 235 277 l 1,5,-1
 171 277 l 1,6,-1
 171 234 l 1,7,-1
 235 234 l 1,8,-1
 235 170 l 1,9,-1
 277 170 l 1,10,-1
 277 234 l 1,11,-1
 341 234 l 1,0,-1
403 153 m 1,12,-1
 448 108 l 1,13,-1
 448 85 l 1,14,-1
 64 85 l 1,15,-1
 64 108 l 1,16,-1
 109 153 l 1,17,-1
 109 277 l 2,18,19
 109 328 109 328 141 368.5 c 128,-1,20
 173 409 173 409 222 420 c 1,21,-1
 222 435 l 2,22,23
 222 449 222 449 232 459 c 128,-1,24
 242 469 242 469 256 469 c 128,-1,25
 270 469 270 469 280 459 c 128,-1,26
 290 449 290 449 290 435 c 2,27,-1
 290 420 l 1,28,29
 339 409 339 409 371 368.5 c 128,-1,30
 403 328 403 328 403 277 c 2,31,-1
 403 153 l 1,12,-1
214 64 m 1,32,-1
 298 64 l 1,33,34
 298 47 298 47 285.5 34 c 128,-1,35
 273 21 273 21 256 21 c 128,-1,36
 239 21 239 21 226.5 34 c 128,-1,37
 214 47 214 47 214 64 c 1,32,-1
EndSplineSet
Ligature2: "'liga' Standard Ligatures in Latin lookup 0 subtable" a d d underscore a l e r t
EndChar

StartChar: uniE019
Encoding: 57369 57369 44
Width: 512
GlyphClass: 3
Flags: W
LayerCount: 2
Fore
SplineSet
256 277 m 128,-1,1
 265 277 265 277 271 271 c 128,-1,2
 277 265 277 265 277 256 c 128,-1,3
 277 247 277 247 271 241 c 128,-1,4
 265 235 265 235 256 235 c 128,-1,5
 247 235 247 235 241 241 c 128,-1,6
 235 247 235 247 235 256 c 128,-1,7
 235 265 235 265 241 271 c 128,-1,0
 247 277 247 277 256 277 c 128,-1,1
256 160 m 128,-1,9
 296 160 296 160 324 188 c 128,-1,10
 352 216 352 216 352 256 c 128,-1,11
 352 296 352 296 324 324 c 128,-1,12
 296 352 296 352 256 352 c 128,-1,13
 216 352 216 352 188 324 c 128,-1,14
 160 296 160 296 160 256 c 128,-1,15
 160 216 160 216 188 188 c 128,-1,8
 216 160 216 160 256 160 c 128,-1,9
256 469 m 128,-1,17
 344 469 344 469 406.5 406.5 c 128,-1,18
 469 344 469 344 469 256 c 128,-1,19
 469 168 469 168 406.5 105.5 c 128,-1,20
 344 43 344 43 256 43 c 128,-1,21
 168 43 168 43 105.5 105.5 c 128,-1,22
 43 168 43 168 43 256 c 128,-1,23
 43 344 43 344 105.5 406.5 c 128,-1,16
 168 469 168 469 256 469 c 128,-1,17
EndSplineSet
Ligature2: "'liga' Standard Ligatures in Latin lookup 0 subtable" a l b u m
EndChar

StartChar: uniE01B
Encoding: 57371 57371 45
Width: 512
GlyphClass: 3
Flags: W
LayerCount: 2
Fore
SplineSet
128 256 m 128,-1,1
 128 265 128 265 134 271 c 128,-1,2
 140 277 140 277 149 277 c 128,-1,3
 158 277 158 277 164.5 271 c 128,-1,4
 171 265 171 265 171 256 c 128,-1,5
 171 247 171 247 164.5 241 c 128,-1,6
 158 235 158 235 149 235 c 128,-1,7
 140 235 140 235 134 241 c 128,-1,0
 128 247 128 247 128 256 c 128,-1,1
384 256 m 128,-1,9
 384 247 384 247 378 241 c 128,-1,10
 372 235 372 235 363 235 c 128,-1,11
 354 235 354 235 347.5 241 c 128,-1,12
 341 247 341 247 341 256 c 128,-1,13
 341 265 341 265 347.5 271 c 128,-1,14
 354 277 354 277 363 277 c 128,-1,15
 372 277 372 277 378 271 c 128,-1,8
 384 265 384 265 384 256 c 128,-1,9
235 448 m 1,16,-1
 256 448 l 2,17,18
 336 448 336 448 392 392 c 128,-1,19
 448 336 448 336 448 256 c 128,-1,20
 448 176 448 176 392 120 c 128,-1,21
 336 64 336 64 256 64 c 128,-1,22
 176 64 176 64 120 120 c 128,-1,23
 64 176 64 176 64 256 c 0,24,25
 64 352 64 352 141 409 c 1,26,-1
 141 410 l 1,27,-1
 286 265 l 1,28,-1
 256 235 l 1,29,-1
 140 350 l 1,30,31
 107 309 107 309 107 256 c 0,32,33
 107 194 107 194 150.5 150.5 c 128,-1,34
 194 107 194 107 256 107 c 128,-1,35
 318 107 318 107 361.5 150.5 c 128,-1,36
 405 194 405 194 405 256 c 0,37,38
 405 312 405 312 368 354 c 128,-1,39
 331 396 331 396 277 404 c 1,40,-1
 277 363 l 1,41,-1
 235 363 l 1,42,-1
 235 448 l 1,16,-1
235 149 m 128,-1,44
 235 158 235 158 241 164.5 c 128,-1,45
 247 171 247 171 256 171 c 128,-1,46
 265 171 265 171 271 164.5 c 128,-1,47
 277 158 277 158 277 149 c 128,-1,48
 277 140 277 140 271 134 c 128,-1,49
 265 128 265 128 256 128 c 128,-1,50
 247 128 247 128 241 134 c 128,-1,43
 235 140 235 140 235 149 c 128,-1,44
EndSplineSet
Ligature2: "'liga' Standard Ligatures in Latin lookup 0 subtable" a v underscore t i m e r
EndChar

StartChar: uniE01C
Encoding: 57372 57372 46
Width: 512
GlyphClass: 3
Flags: W
LayerCount: 2
Fore
SplineSet
384 277 m 1,0,-1
 384 299 l 2,1,2
 384 308 384 308 378 314 c 128,-1,3
 372 320 372 320 363 320 c 2,4,-1
 299 320 l 2,5,6
 290 320 290 320 283.5 314 c 128,-1,7
 277 308 277 308 277 299 c 2,8,-1
 277 213 l 2,9,10
 277 204 277 204 283.5 198 c 128,-1,11
 290 192 290 192 299 192 c 2,12,-1
 363 192 l 2,13,14
 372 192 372 192 378 198 c 128,-1,15
 384 204 384 204 384 213 c 2,16,-1
 384 235 l 1,17,-1
 352 235 l 1,18,-1
 352 224 l 1,19,-1
 309 224 l 1,20,-1
 309 288 l 1,21,-1
 352 288 l 1,22,-1
 352 277 l 1,23,-1
 384 277 l 1,0,-1
235 277 m 1,24,-1
 235 299 l 2,25,26
 235 308 235 308 228.5 314 c 128,-1,27
 222 320 222 320 213 320 c 2,28,-1
 149 320 l 2,29,30
 140 320 140 320 134 314 c 128,-1,31
 128 308 128 308 128 299 c 2,32,-1
 128 213 l 2,33,34
 128 204 128 204 134 198 c 128,-1,35
 140 192 140 192 149 192 c 2,36,-1
 213 192 l 2,37,38
 222 192 222 192 228.5 198 c 128,-1,39
 235 204 235 204 235 213 c 2,40,-1
 235 235 l 1,41,-1
 203 235 l 1,42,-1
 203 224 l 1,43,-1
 160 224 l 1,44,-1
 160 288 l 1,45,-1
 203 288 l 1,46,-1
 203 277 l 1,47,-1
 235 277 l 1,24,-1
405 427 m 2,48,49
 422 427 422 427 435 414 c 128,-1,50
 448 401 448 401 448 384 c 2,51,-1
 448 128 l 2,52,53
 448 111 448 111 435 98 c 128,-1,54
 422 85 422 85 405 85 c 2,55,-1
 107 85 l 2,56,57
 89 85 89 85 76.5 98 c 128,-1,58
 64 111 64 111 64 128 c 2,59,-1
 64 384 l 2,60,61
 64 401 64 401 76.5 414 c 128,-1,62
 89 427 89 427 107 427 c 2,63,-1
 405 427 l 2,48,49
EndSplineSet
Ligature2: "'liga' Standard Ligatures in Latin lookup 0 subtable" c l o s e d underscore c a p t i o n
EndChar

StartChar: uniE01D
Encoding: 57373 57373 47
Width: 512
GlyphClass: 3
Flags: W
LayerCount: 2
Fore
SplineSet
341 320 m 1,0,-1
 427 320 l 1,1,-1
 427 85 l 1,2,-1
 341 85 l 1,3,-1
 341 320 l 1,0,-1
85 85 m 1,4,-1
 85 256 l 1,5,-1
 171 256 l 1,6,-1
 171 85 l 1,7,-1
 85 85 l 1,4,-1
213 85 m 1,8,-1
 213 427 l 1,9,-1
 299 427 l 1,10,-1
 299 85 l 1,11,-1
 213 85 l 1,8,-1
EndSplineSet
Ligature2: "'liga' Standard Ligatures in Latin lookup 0 subtable" e q u a l i z e r
EndChar

StartChar: uniE01E
Encoding: 57374 57374 48
Width: 512
GlyphClass: 3
Flags: W
LayerCount: 2
Fore
SplineSet
320 320 m 1,0,-1
 320 363 l 1,1,-1
 192 363 l 1,2,-1
 192 149 l 1,3,-1
 320 149 l 1,4,-1
 320 192 l 1,5,-1
 235 192 l 1,6,-1
 235 235 l 1,7,-1
 320 235 l 1,8,-1
 320 277 l 1,9,-1
 235 277 l 1,10,-1
 235 320 l 1,11,-1
 320 320 l 1,0,-1
405 448 m 2,12,13
 422 448 422 448 435 435 c 128,-1,14
 448 422 448 422 448 405 c 2,15,-1
 448 107 l 2,16,17
 448 90 448 90 435 77 c 128,-1,18
 422 64 422 64 405 64 c 2,19,-1
 107 64 l 2,20,21
 90 64 90 64 77 77 c 128,-1,22
 64 90 64 90 64 107 c 2,23,-1
 64 405 l 2,24,25
 64 422 64 422 77 435 c 128,-1,26
 90 448 90 448 107 448 c 2,27,-1
 405 448 l 2,12,13
EndSplineSet
Ligature2: "'liga' Standard Ligatures in Latin lookup 0 subtable" e x p l i c i t
EndChar

StartChar: uniE01F
Encoding: 57375 57375 49
Width: 512
GlyphClass: 3
Flags: W
LayerCount: 2
Fore
SplineSet
277 384 m 1,0,-1
 459 256 l 1,1,-1
 277 128 l 1,2,-1
 277 384 l 1,0,-1
85 128 m 1,3,-1
 85 384 l 1,4,-1
 267 256 l 1,5,-1
 85 128 l 1,3,-1
EndSplineSet
Ligature2: "'liga' Standard Ligatures in Latin lookup 0 subtable" f a s t underscore f o r w a r d
EndChar

StartChar: uniE020
Encoding: 57376 57376 50
Width: 512
GlyphClass: 3
Flags: W
LayerCount: 2
Fore
SplineSet
245 256 m 1,0,-1
 427 384 l 1,1,-1
 427 128 l 1,2,-1
 245 256 l 1,0,-1
235 128 m 1,3,-1
 53 256 l 1,4,-1
 235 384 l 1,5,-1
 235 128 l 1,3,-1
EndSplineSet
Ligature2: "'liga' Standard Ligatures in Latin lookup 0 subtable" f a s t underscore r e w i n d
EndChar

StartChar: uniE021
Encoding: 57377 57377 51
Width: 512
GlyphClass: 3
Flags: W
LayerCount: 2
Fore
SplineSet
352 320 m 1,0,-1
 469 320 l 1,1,-1
 469 192 l 1,2,-1
 352 192 l 1,3,-1
 288 256 l 1,4,-1
 352 320 l 1,0,-1
192 160 m 1,5,-1
 256 224 l 1,6,-1
 320 160 l 1,7,-1
 320 43 l 1,8,-1
 192 43 l 1,9,-1
 192 160 l 1,5,-1
160 320 m 1,10,-1
 224 256 l 1,11,-1
 160 192 l 1,12,-1
 43 192 l 1,13,-1
 43 320 l 1,14,-1
 160 320 l 1,10,-1
320 352 m 1,15,-1
 256 288 l 1,16,-1
 192 352 l 1,17,-1
 192 469 l 1,18,-1
 320 469 l 1,19,-1
 320 352 l 1,15,-1
EndSplineSet
Ligature2: "'liga' Standard Ligatures in Latin lookup 0 subtable" g a m e s
EndChar

StartChar: uniE023
Encoding: 57379 57379 52
Width: 512
GlyphClass: 3
Flags: W
LayerCount: 2
Fore
SplineSet
245 320 m 128,-1,1
 245 342 245 342 261 357.5 c 128,-1,2
 277 373 277 373 299 373 c 128,-1,3
 321 373 321 373 336.5 357.5 c 128,-1,4
 352 342 352 342 352 320 c 128,-1,5
 352 298 352 298 336.5 282.5 c 128,-1,6
 321 267 321 267 299 267 c 128,-1,7
 277 267 277 267 261 282.5 c 128,-1,0
 245 298 245 298 245 320 c 128,-1,1
163 456 m 1,8,9
 107 400 107 400 107 320 c 128,-1,10
 107 240 107 240 163 184 c 1,11,-1
 133 154 l 1,12,13
 64 223 64 223 64 320 c 128,-1,14
 64 417 64 417 133 486 c 1,15,-1
 163 456 l 1,8,9
363 85 m 0,16,17
 380 85 380 85 392.5 98 c 128,-1,18
 405 111 405 111 405 128 c 1,19,-1
 448 128 l 1,20,21
 448 93 448 93 423 68 c 128,-1,22
 398 43 398 43 363 43 c 0,23,24
 343 43 343 43 328 50 c 0,25,26
 287 71 287 71 269 126 c 0,27,28
 262 148 262 148 233 170 c 0,29,30
 192 200 192 200 172 237 c 0,31,32
 149 278 149 278 149 320 c 0,33,34
 149 383 149 383 192.5 426 c 128,-1,35
 236 469 236 469 299 469 c 128,-1,36
 362 469 362 469 405 426 c 128,-1,37
 448 383 448 383 448 320 c 1,38,-1
 405 320 l 1,39,40
 405 365 405 365 374.5 396 c 128,-1,41
 344 427 344 427 299 427 c 128,-1,42
 254 427 254 427 223 396 c 128,-1,43
 192 365 192 365 192 320 c 0,44,45
 192 288 192 288 209 257 c 0,46,47
 223 230 223 230 259 203 c 0,48,49
 299 173 299 173 310 139 c 0,50,51
 323 101 323 101 346 89 c 0,52,53
 354 85 354 85 363 85 c 0,16,17
EndSplineSet
Ligature2: "'liga' Standard Ligatures in Latin lookup 0 subtable" h e a r i n g
EndChar

StartChar: uniE024
Encoding: 57380 57380 53
Width: 512
GlyphClass: 3
Flags: W
LayerCount: 2
Fore
SplineSet
309 224 m 1,0,-1
 309 288 l 1,1,-1
 352 288 l 1,2,-1
 352 224 l 1,3,-1
 309 224 l 1,0,-1
384 213 m 2,4,-1
 384 299 l 2,5,6
 384 308 384 308 378 314 c 128,-1,7
 372 320 372 320 363 320 c 2,8,-1
 299 320 l 2,9,10
 290 320 290 320 283.5 314 c 128,-1,11
 277 308 277 308 277 299 c 2,12,-1
 277 213 l 2,13,14
 277 204 277 204 283.5 198 c 128,-1,15
 290 192 290 192 299 192 c 2,16,-1
 315 192 l 1,17,-1
 315 160 l 1,18,-1
 347 160 l 1,19,-1
 347 192 l 1,20,-1
 363 192 l 2,21,22
 372 192 372 192 378 198 c 128,-1,23
 384 204 384 204 384 213 c 2,4,-1
235 192 m 1,24,-1
 235 320 l 1,25,-1
 203 320 l 1,26,-1
 203 267 l 1,27,-1
 160 267 l 1,28,-1
 160 320 l 1,29,-1
 128 320 l 1,30,-1
 128 192 l 1,31,-1
 160 192 l 1,32,-1
 160 235 l 1,33,-1
 203 235 l 1,34,-1
 203 192 l 1,35,-1
 235 192 l 1,24,-1
405 427 m 2,36,37
 422 427 422 427 435 414 c 128,-1,38
 448 401 448 401 448 384 c 2,39,-1
 448 128 l 2,40,41
 448 111 448 111 435 98 c 128,-1,42
 422 85 422 85 405 85 c 2,43,-1
 107 85 l 2,44,45
 89 85 89 85 76.5 98 c 128,-1,46
 64 111 64 111 64 128 c 2,47,-1
 64 384 l 2,48,49
 64 401 64 401 76.5 414 c 128,-1,50
 89 427 89 427 107 427 c 2,51,-1
 405 427 l 2,36,37
EndSplineSet
Ligature2: "'liga' Standard Ligatures in Latin lookup 0 subtable" h i g h underscore q u a l i t y
EndChar

StartChar: uniE028
Encoding: 57384 57384 54
Width: 512
GlyphClass: 3
Flags: W
LayerCount: 2
Fore
SplineSet
256 128 m 1,0,-1
 256 192 l 1,1,-1
 341 107 l 1,2,-1
 256 21 l 1,3,-1
 256 85 l 1,4,5
 186 85 186 85 135.5 135.5 c 128,-1,6
 85 186 85 186 85 256 c 0,7,8
 85 306 85 306 112 347 c 1,9,-1
 143 316 l 1,10,11
 128 289 128 289 128 256 c 0,12,13
 128 203 128 203 165.5 165.5 c 128,-1,14
 203 128 203 128 256 128 c 1,0,-1
256 427 m 1,15,16
 326 427 326 427 376.5 376.5 c 128,-1,17
 427 326 427 326 427 256 c 0,18,19
 427 206 427 206 400 165 c 1,20,-1
 369 196 l 1,21,22
 384 223 384 223 384 256 c 0,23,24
 384 309 384 309 346.5 346.5 c 128,-1,25
 309 384 309 384 256 384 c 1,26,-1
 256 320 l 1,27,-1
 171 405 l 1,28,-1
 256 491 l 1,29,-1
 256 427 l 1,15,16
EndSplineSet
Ligature2: "'liga' Standard Ligatures in Latin lookup 0 subtable" l o o p
EndChar

StartChar: uniE029
Encoding: 57385 57385 55
Width: 512
GlyphClass: 3
Flags: W
LayerCount: 2
Fore
SplineSet
369 277 m 1,0,-1
 405 277 l 1,1,2
 405 223 405 223 367.5 182.5 c 128,-1,3
 330 142 330 142 277 134 c 1,4,-1
 277 64 l 1,5,-1
 235 64 l 1,6,-1
 235 134 l 1,7,8
 182 142 182 142 144.5 182.5 c 128,-1,9
 107 223 107 223 107 277 c 1,10,-1
 143 277 l 1,11,12
 143 230 143 230 176.5 199.5 c 128,-1,13
 210 169 210 169 256 169 c 128,-1,14
 302 169 302 169 335.5 199.5 c 128,-1,15
 369 230 369 230 369 277 c 1,0,-1
256 213 m 128,-1,17
 230 213 230 213 211 232 c 128,-1,18
 192 251 192 251 192 277 c 2,19,-1
 192 405 l 2,20,21
 192 431 192 431 211 450 c 128,-1,22
 230 469 230 469 256 469 c 128,-1,23
 282 469 282 469 301 450 c 128,-1,24
 320 431 320 431 320 405 c 2,25,-1
 320 277 l 2,26,27
 320 251 320 251 301 232 c 128,-1,16
 282 213 282 213 256 213 c 128,-1,17
EndSplineSet
Ligature2: "'liga' Standard Ligatures in Latin lookup 0 subtable" m i c
EndChar

StartChar: uniE02A
Encoding: 57386 57386 56
Width: 512
GlyphClass: 3
Flags: W
LayerCount: 2
Fore
SplineSet
369 277 m 1,0,-1
 405 277 l 1,1,2
 405 223 405 223 367.5 182.5 c 128,-1,3
 330 142 330 142 277 134 c 1,4,-1
 277 64 l 1,5,-1
 235 64 l 1,6,-1
 235 134 l 1,7,8
 182 142 182 142 144.5 182.5 c 128,-1,9
 107 223 107 223 107 277 c 1,10,-1
 143 277 l 1,11,12
 143 230 143 230 176.5 199.5 c 128,-1,13
 210 169 210 169 256 169 c 128,-1,14
 302 169 302 169 335.5 199.5 c 128,-1,15
 369 230 369 230 369 277 c 1,0,-1
230 407 m 2,16,-1
 230 275 l 2,17,18
 230 265 230 265 237.5 257.5 c 128,-1,19
 245 250 245 250 256 250 c 0,20,21
 266 250 266 250 273.5 257 c 128,-1,22
 281 264 281 264 281 275 c 2,23,-1
 282 407 l 2,24,25
 282 418 282 418 274 425.5 c 128,-1,26
 266 433 266 433 256 433 c 128,-1,27
 246 433 246 433 238 425.5 c 128,-1,28
 230 418 230 418 230 407 c 2,16,-1
256 213 m 128,-1,30
 230 213 230 213 211 232 c 128,-1,31
 192 251 192 251 192 277 c 2,32,-1
 192 405 l 2,33,34
 192 431 192 431 211 450 c 128,-1,35
 230 469 230 469 256 469 c 128,-1,36
 282 469 282 469 301 450 c 128,-1,37
 320 431 320 431 320 405 c 2,38,-1
 320 277 l 2,39,40
 320 251 320 251 301 232 c 128,-1,29
 282 213 282 213 256 213 c 128,-1,30
EndSplineSet
Ligature2: "'liga' Standard Ligatures in Latin lookup 0 subtable" m i c underscore n o n e
EndChar

StartChar: uniE02B
Encoding: 57387 57387 57
Width: 512
GlyphClass: 3
Flags: W
LayerCount: 2
Fore
SplineSet
91 448 m 1,0,-1
 448 91 l 1,1,-1
 421 64 l 1,2,-1
 332 153 l 1,3,4
 310 139 310 139 277 134 c 1,5,-1
 277 64 l 1,6,-1
 235 64 l 1,7,-1
 235 134 l 1,8,9
 182 142 182 142 144.5 182.5 c 128,-1,10
 107 223 107 223 107 277 c 1,11,-1
 143 277 l 1,12,13
 143 230 143 230 176.5 199.5 c 128,-1,14
 210 169 210 169 256 169 c 0,15,16
 281 169 281 169 305 180 c 1,17,-1
 270 215 l 1,18,19
 262 213 262 213 256 213 c 0,20,21
 230 213 230 213 211 232 c 128,-1,22
 192 251 192 251 192 277 c 2,23,-1
 192 293 l 1,24,-1
 64 421 l 1,25,-1
 91 448 l 1,0,-1
320 274 m 1,26,-1
 192 401 l 1,27,-1
 192 405 l 2,28,29
 192 431 192 431 211 450 c 128,-1,30
 230 469 230 469 256 469 c 128,-1,31
 282 469 282 469 301 450 c 128,-1,32
 320 431 320 431 320 405 c 2,33,-1
 320 274 l 1,26,-1
405 277 m 1,34,35
 405 240 405 240 386 207 c 1,36,-1
 360 234 l 1,37,38
 369 254 369 254 369 277 c 1,39,-1
 405 277 l 1,34,35
EndSplineSet
Ligature2: "'liga' Standard Ligatures in Latin lookup 0 subtable" m i c underscore o f f
EndChar

StartChar: uniE02C
Encoding: 57388 57388 58
Width: 512
GlyphClass: 3
Flags: W
LayerCount: 2
Fore
SplineSet
384 427 m 1,0,-1
 469 427 l 1,1,-1
 469 128 l 2,2,3
 469 111 469 111 456.5 98 c 128,-1,4
 444 85 444 85 427 85 c 2,5,-1
 85 85 l 2,6,7
 68 85 68 85 55.5 98 c 128,-1,8
 43 111 43 111 43 128 c 2,9,-1
 43 384 l 2,10,11
 43 401 43 401 55.5 414 c 128,-1,12
 68 427 68 427 85 427 c 2,13,-1
 107 427 l 1,14,-1
 149 341 l 1,15,-1
 213 341 l 1,16,-1
 171 427 l 1,17,-1
 213 427 l 1,18,-1
 256 341 l 1,19,-1
 320 341 l 1,20,-1
 277 427 l 1,21,-1
 320 427 l 1,22,-1
 363 341 l 1,23,-1
 427 341 l 1,24,-1
 384 427 l 1,0,-1
EndSplineSet
Ligature2: "'liga' Standard Ligatures in Latin lookup 0 subtable" m o v i e
EndChar

StartChar: uniE02E
Encoding: 57390 57390 59
Width: 512
GlyphClass: 3
Flags: W
LayerCount: 2
Fore
SplineSet
405 277 m 1,0,-1
 405 320 l 1,1,-1
 320 320 l 1,2,-1
 320 405 l 1,3,-1
 277 405 l 1,4,-1
 277 320 l 1,5,-1
 192 320 l 1,6,-1
 192 277 l 1,7,-1
 277 277 l 1,8,-1
 277 192 l 1,9,-1
 320 192 l 1,10,-1
 320 277 l 1,11,-1
 405 277 l 1,0,-1
427 469 m 2,12,13
 444 469 444 469 456.5 456.5 c 128,-1,14
 469 444 469 444 469 427 c 2,15,-1
 469 171 l 2,16,17
 469 154 469 154 456.5 141 c 128,-1,18
 444 128 444 128 427 128 c 2,19,-1
 171 128 l 2,20,21
 154 128 154 128 141 141 c 128,-1,22
 128 154 128 154 128 171 c 2,23,-1
 128 427 l 2,24,25
 128 444 128 444 141 456.5 c 128,-1,26
 154 469 154 469 171 469 c 2,27,-1
 427 469 l 2,12,13
85 384 m 1,28,-1
 85 85 l 1,29,-1
 384 85 l 1,30,-1
 384 43 l 1,31,-1
 85 43 l 2,32,33
 68 43 68 43 55.5 55.5 c 128,-1,34
 43 68 43 68 43 85 c 2,35,-1
 43 384 l 1,36,-1
 85 384 l 1,28,-1
EndSplineSet
Ligature2: "'liga' Standard Ligatures in Latin lookup 0 subtable" m y underscore l i b r a r y underscore a d d
Ligature2: "'liga' Standard Ligatures in Latin lookup 0 subtable" l i b r a r y underscore a d d
EndChar

StartChar: uniE02F
Encoding: 57391 57391 60
Width: 512
GlyphClass: 3
Flags: W
LayerCount: 2
Fore
SplineSet
405 363 m 1,0,-1
 405 405 l 1,1,-1
 192 405 l 1,2,-1
 192 363 l 1,3,-1
 405 363 l 1,0,-1
320 192 m 1,4,-1
 320 235 l 1,5,-1
 192 235 l 1,6,-1
 192 192 l 1,7,-1
 320 192 l 1,4,-1
405 277 m 1,8,-1
 405 320 l 1,9,-1
 192 320 l 1,10,-1
 192 277 l 1,11,-1
 405 277 l 1,8,-1
427 469 m 2,12,13
 444 469 444 469 456.5 456.5 c 128,-1,14
 469 444 469 444 469 427 c 2,15,-1
 469 171 l 2,16,17
 469 154 469 154 456.5 141 c 128,-1,18
 444 128 444 128 427 128 c 2,19,-1
 171 128 l 2,20,21
 154 128 154 128 141 141 c 128,-1,22
 128 154 128 154 128 171 c 2,23,-1
 128 427 l 2,24,25
 128 444 128 444 141 456.5 c 128,-1,26
 154 469 154 469 171 469 c 2,27,-1
 427 469 l 2,12,13
85 384 m 1,28,-1
 85 85 l 1,29,-1
 384 85 l 1,30,-1
 384 43 l 1,31,-1
 85 43 l 2,32,33
 68 43 68 43 55.5 55.5 c 128,-1,34
 43 68 43 68 43 85 c 2,35,-1
 43 384 l 1,36,-1
 85 384 l 1,28,-1
EndSplineSet
Ligature2: "'liga' Standard Ligatures in Latin lookup 0 subtable" m y underscore l i b r a r y underscore b o o k s
Ligature2: "'liga' Standard Ligatures in Latin lookup 0 subtable" l i b r a r y underscore b o o k s
EndChar

StartChar: uniE030
Encoding: 57392 57392 61
Width: 512
GlyphClass: 3
Flags: W
LayerCount: 2
Fore
SplineSet
85 384 m 1,0,-1
 85 85 l 1,1,-1
 384 85 l 1,2,-1
 384 43 l 1,3,-1
 85 43 l 2,4,5
 68 43 68 43 55.5 55.5 c 128,-1,6
 43 68 43 68 43 85 c 2,7,-1
 43 384 l 1,8,-1
 85 384 l 1,0,-1
384 363 m 1,9,-1
 384 405 l 1,10,-1
 299 405 l 1,11,-1
 299 288 l 1,12,13
 285 299 285 299 267 299 c 0,14,15
 245 299 245 299 229 283 c 128,-1,16
 213 267 213 267 213 245 c 128,-1,17
 213 223 213 223 229 207.5 c 128,-1,18
 245 192 245 192 267 192 c 128,-1,19
 289 192 289 192 304.5 207.5 c 128,-1,20
 320 223 320 223 320 245 c 2,21,-1
 320 363 l 1,22,-1
 384 363 l 1,9,-1
427 469 m 2,23,24
 444 469 444 469 456.5 456.5 c 128,-1,25
 469 444 469 444 469 427 c 2,26,-1
 469 171 l 2,27,28
 469 154 469 154 456.5 141 c 128,-1,29
 444 128 444 128 427 128 c 2,30,-1
 171 128 l 2,31,32
 154 128 154 128 141 141 c 128,-1,33
 128 154 128 154 128 171 c 2,34,-1
 128 427 l 2,35,36
 128 444 128 444 141 456.5 c 128,-1,37
 154 469 154 469 171 469 c 2,38,-1
 427 469 l 2,23,24
EndSplineSet
Ligature2: "'liga' Standard Ligatures in Latin lookup 0 subtable" m y underscore l i b r a r y underscore m u s i c
Ligature2: "'liga' Standard Ligatures in Latin lookup 0 subtable" l i b r a r y underscore m u s i c
EndChar

StartChar: uniE031
Encoding: 57393 57393 62
Width: 512
GlyphClass: 3
Flags: W
LayerCount: 2
Fore
SplineSet
277 235 m 1,0,-1
 277 363 l 1,1,-1
 235 363 l 1,2,-1
 235 235 l 1,3,-1
 277 235 l 1,0,-1
277 149 m 1,4,-1
 277 192 l 1,5,-1
 235 192 l 1,6,-1
 235 149 l 1,7,-1
 277 149 l 1,4,-1
491 256 m 1,8,-1
 439 197 l 1,9,-1
 446 118 l 1,10,-1
 369 101 l 1,11,-1
 329 33 l 1,12,-1
 256 64 l 1,13,-1
 183 33 l 1,14,-1
 143 100 l 1,15,-1
 66 118 l 1,16,-1
 73 197 l 1,17,-1
 21 256 l 1,18,-1
 73 316 l 1,19,-1
 66 394 l 1,20,-1
 143 411 l 1,21,-1
 183 479 l 1,22,-1
 256 448 l 1,23,-1
 329 479 l 1,24,-1
 369 411 l 1,25,-1
 446 394 l 1,26,-1
 439 315 l 1,27,-1
 491 256 l 1,8,-1
EndSplineSet
Ligature2: "'liga' Standard Ligatures in Latin lookup 0 subtable" n e w underscore r e l e a s e s
EndChar

StartChar: uniE033
Encoding: 57395 57395 63
Width: 512
GlyphClass: 3
Flags: W
LayerCount: 2
Fore
SplineSet
391 151 m 1,0,1
 427 196 427 196 427 256 c 0,2,3
 427 326 427 326 376.5 376.5 c 128,-1,4
 326 427 326 427 256 427 c 0,5,6
 196 427 196 427 151 391 c 1,7,-1
 391 151 l 1,0,1
256 85 m 0,8,9
 316 85 316 85 361 121 c 1,10,-1
 121 361 l 1,11,12
 85 316 85 316 85 256 c 0,13,14
 85 186 85 186 135.5 135.5 c 128,-1,15
 186 85 186 85 256 85 c 0,8,9
256 469 m 128,-1,17
 344 469 344 469 406.5 406.5 c 128,-1,18
 469 344 469 344 469 256 c 128,-1,19
 469 168 469 168 406.5 105.5 c 128,-1,20
 344 43 344 43 256 43 c 128,-1,21
 168 43 168 43 105.5 105.5 c 128,-1,22
 43 168 43 168 43 256 c 128,-1,23
 43 344 43 344 105.5 406.5 c 128,-1,16
 168 469 168 469 256 469 c 128,-1,17
EndSplineSet
Ligature2: "'liga' Standard Ligatures in Latin lookup 0 subtable" n o t underscore i n t e r e s t e d
EndChar

StartChar: uniE034
Encoding: 57396 57396 64
Width: 512
GlyphClass: 3
Flags: W
LayerCount: 2
Fore
SplineSet
299 405 m 1,0,-1
 384 405 l 1,1,-1
 384 107 l 1,2,-1
 299 107 l 1,3,-1
 299 405 l 1,0,-1
128 107 m 1,4,-1
 128 405 l 1,5,-1
 213 405 l 1,6,-1
 213 107 l 1,7,-1
 128 107 l 1,4,-1
EndSplineSet
Ligature2: "'liga' Standard Ligatures in Latin lookup 0 subtable" p a u s e
EndChar

StartChar: uniE035
Encoding: 57397 57397 65
Width: 512
GlyphClass: 3
Flags: W
LayerCount: 2
Fore
SplineSet
320 171 m 1,0,-1
 320 341 l 1,1,-1
 277 341 l 1,2,-1
 277 171 l 1,3,-1
 320 171 l 1,0,-1
235 171 m 1,4,-1
 235 341 l 1,5,-1
 192 341 l 1,6,-1
 192 171 l 1,7,-1
 235 171 l 1,4,-1
256 469 m 128,-1,9
 344 469 344 469 406.5 406.5 c 128,-1,10
 469 344 469 344 469 256 c 128,-1,11
 469 168 469 168 406.5 105.5 c 128,-1,12
 344 43 344 43 256 43 c 128,-1,13
 168 43 168 43 105.5 105.5 c 128,-1,14
 43 168 43 168 43 256 c 128,-1,15
 43 344 43 344 105.5 406.5 c 128,-1,8
 168 469 168 469 256 469 c 128,-1,9
EndSplineSet
Ligature2: "'liga' Standard Ligatures in Latin lookup 0 subtable" p a u s e underscore c i r c l e underscore f i l l e d
EndChar

StartChar: uniE036
Encoding: 57398 57398 66
Width: 512
GlyphClass: 3
Flags: W
LayerCount: 2
Fore
SplineSet
277 171 m 1,0,-1
 277 341 l 1,1,-1
 320 341 l 1,2,-1
 320 171 l 1,3,-1
 277 171 l 1,0,-1
256 85 m 128,-1,5
 326 85 326 85 376.5 135.5 c 128,-1,6
 427 186 427 186 427 256 c 128,-1,7
 427 326 427 326 376.5 376.5 c 128,-1,8
 326 427 326 427 256 427 c 128,-1,9
 186 427 186 427 135.5 376.5 c 128,-1,10
 85 326 85 326 85 256 c 128,-1,11
 85 186 85 186 135.5 135.5 c 128,-1,4
 186 85 186 85 256 85 c 128,-1,5
256 469 m 128,-1,13
 344 469 344 469 406.5 406.5 c 128,-1,14
 469 344 469 344 469 256 c 128,-1,15
 469 168 469 168 406.5 105.5 c 128,-1,16
 344 43 344 43 256 43 c 128,-1,17
 168 43 168 43 105.5 105.5 c 128,-1,18
 43 168 43 168 43 256 c 128,-1,19
 43 344 43 344 105.5 406.5 c 128,-1,12
 168 469 168 469 256 469 c 128,-1,13
192 171 m 1,20,-1
 192 341 l 1,21,-1
 235 341 l 1,22,-1
 235 171 l 1,23,-1
 192 171 l 1,20,-1
EndSplineSet
Ligature2: "'liga' Standard Ligatures in Latin lookup 0 subtable" p a u s e underscore c i r c l e underscore o u t l i n e
EndChar

StartChar: uniE037
Encoding: 57399 57399 67
Width: 512
GlyphClass: 3
Flags: W
LayerCount: 2
Fore
SplineSet
171 405 m 1,0,-1
 405 256 l 1,1,-1
 171 107 l 1,2,-1
 171 405 l 1,0,-1
EndSplineSet
Ligature2: "'liga' Standard Ligatures in Latin lookup 0 subtable" p l a y underscore a r r o w
EndChar

StartChar: uniE038
Encoding: 57400 57400 68
Width: 512
GlyphClass: 3
Flags: W
LayerCount: 2
Fore
SplineSet
213 160 m 1,0,-1
 341 256 l 1,1,-1
 213 352 l 1,2,-1
 213 160 l 1,0,-1
256 469 m 128,-1,4
 344 469 344 469 406.5 406.5 c 128,-1,5
 469 344 469 344 469 256 c 128,-1,6
 469 168 469 168 406.5 105.5 c 128,-1,7
 344 43 344 43 256 43 c 128,-1,8
 168 43 168 43 105.5 105.5 c 128,-1,9
 43 168 43 168 43 256 c 128,-1,10
 43 344 43 344 105.5 406.5 c 128,-1,3
 168 469 168 469 256 469 c 128,-1,4
EndSplineSet
Ligature2: "'liga' Standard Ligatures in Latin lookup 0 subtable" p l a y underscore c i r c l e underscore f i l l
Ligature2: "'liga' Standard Ligatures in Latin lookup 0 subtable" p l a y underscore c i r c l e underscore f i l l e d
EndChar

StartChar: uniE039
Encoding: 57401 57401 69
Width: 512
GlyphClass: 3
Flags: W
LayerCount: 2
Fore
SplineSet
256 85 m 128,-1,1
 326 85 326 85 376.5 135.5 c 128,-1,2
 427 186 427 186 427 256 c 128,-1,3
 427 326 427 326 376.5 376.5 c 128,-1,4
 326 427 326 427 256 427 c 128,-1,5
 186 427 186 427 135.5 376.5 c 128,-1,6
 85 326 85 326 85 256 c 128,-1,7
 85 186 85 186 135.5 135.5 c 128,-1,0
 186 85 186 85 256 85 c 128,-1,1
256 469 m 128,-1,9
 344 469 344 469 406.5 406.5 c 128,-1,10
 469 344 469 344 469 256 c 128,-1,11
 469 168 469 168 406.5 105.5 c 128,-1,12
 344 43 344 43 256 43 c 128,-1,13
 168 43 168 43 105.5 105.5 c 128,-1,14
 43 168 43 168 43 256 c 128,-1,15
 43 344 43 344 105.5 406.5 c 128,-1,8
 168 469 168 469 256 469 c 128,-1,9
213 160 m 1,16,-1
 213 352 l 1,17,-1
 341 256 l 1,18,-1
 213 160 l 1,16,-1
EndSplineSet
Ligature2: "'liga' Standard Ligatures in Latin lookup 0 subtable" p l a y underscore c i r c l e underscore o u t l i n e
EndChar

StartChar: uniE03B
Encoding: 57403 57403 70
Width: 512
GlyphClass: 3
Flags: W
LayerCount: 2
Fore
SplineSet
43 171 m 1,0,-1
 43 213 l 1,1,-1
 213 213 l 1,2,-1
 213 171 l 1,3,-1
 43 171 l 1,0,-1
384 213 m 1,4,-1
 469 213 l 1,5,-1
 469 171 l 1,6,-1
 384 171 l 1,7,-1
 384 85 l 1,8,-1
 341 85 l 1,9,-1
 341 171 l 1,10,-1
 256 171 l 1,11,-1
 256 213 l 1,12,-1
 341 213 l 1,13,-1
 341 299 l 1,14,-1
 384 299 l 1,15,-1
 384 213 l 1,4,-1
299 384 m 1,16,-1
 299 341 l 1,17,-1
 43 341 l 1,18,-1
 43 384 l 1,19,-1
 299 384 l 1,16,-1
299 299 m 1,20,-1
 299 256 l 1,21,-1
 43 256 l 1,22,-1
 43 299 l 1,23,-1
 299 299 l 1,20,-1
EndSplineSet
Ligature2: "'liga' Standard Ligatures in Latin lookup 0 subtable" p l a y l i s t underscore a d d
EndChar

StartChar: uniE03C
Encoding: 57404 57404 71
Width: 512
GlyphClass: 3
Flags: W
LayerCount: 2
Fore
SplineSet
405 277 m 1,0,-1
 405 320 l 1,1,-1
 320 320 l 1,2,-1
 320 405 l 1,3,-1
 277 405 l 1,4,-1
 277 320 l 1,5,-1
 192 320 l 1,6,-1
 192 277 l 1,7,-1
 277 277 l 1,8,-1
 277 192 l 1,9,-1
 320 192 l 1,10,-1
 320 277 l 1,11,-1
 405 277 l 1,0,-1
427 469 m 2,12,13
 444 469 444 469 456.5 456.5 c 128,-1,14
 469 444 469 444 469 427 c 2,15,-1
 469 171 l 2,16,17
 469 154 469 154 456.5 141 c 128,-1,18
 444 128 444 128 427 128 c 2,19,-1
 171 128 l 2,20,21
 154 128 154 128 141 141 c 128,-1,22
 128 154 128 154 128 171 c 2,23,-1
 128 427 l 2,24,25
 128 444 128 444 141 456.5 c 128,-1,26
 154 469 154 469 171 469 c 2,27,-1
 427 469 l 2,12,13
85 384 m 1,28,-1
 85 85 l 1,29,-1
 384 85 l 1,30,-1
 384 43 l 1,31,-1
 85 43 l 2,32,33
 68 43 68 43 55.5 55.5 c 128,-1,34
 43 68 43 68 43 85 c 2,35,-1
 43 384 l 1,36,-1
 85 384 l 1,28,-1
EndSplineSet
Ligature2: "'liga' Standard Ligatures in Latin lookup 0 subtable" q u e u e
EndChar

StartChar: uniE03D
Encoding: 57405 57405 72
Width: 512
GlyphClass: 3
Flags: W
LayerCount: 2
Fore
SplineSet
363 384 m 1,0,-1
 469 384 l 1,1,-1
 469 341 l 1,2,-1
 405 341 l 1,3,-1
 405 149 l 2,4,5
 405 123 405 123 386 104 c 128,-1,6
 367 85 367 85 341 85 c 128,-1,7
 315 85 315 85 296 104 c 128,-1,8
 277 123 277 123 277 149 c 128,-1,9
 277 175 277 175 296 194 c 128,-1,10
 315 213 315 213 341 213 c 0,11,12
 349 213 349 213 363 209 c 1,13,-1
 363 384 l 1,0,-1
64 171 m 1,14,-1
 64 213 l 1,15,-1
 235 213 l 1,16,-1
 235 171 l 1,17,-1
 64 171 l 1,14,-1
320 299 m 1,18,-1
 320 256 l 1,19,-1
 64 256 l 1,20,-1
 64 299 l 1,21,-1
 320 299 l 1,18,-1
320 384 m 1,22,-1
 320 341 l 1,23,-1
 64 341 l 1,24,-1
 64 384 l 1,25,-1
 320 384 l 1,22,-1
EndSplineSet
Ligature2: "'liga' Standard Ligatures in Latin lookup 0 subtable" q u e u e underscore m u s i c
EndChar

StartChar: uniE03E
Encoding: 57406 57406 73
Width: 512
GlyphClass: 3
Flags: W
LayerCount: 2
Fore
SplineSet
427 256 m 1,0,-1
 427 341 l 1,1,-1
 85 341 l 1,2,-1
 85 256 l 1,3,-1
 341 256 l 1,4,-1
 341 299 l 1,5,-1
 384 299 l 1,6,-1
 384 256 l 1,7,-1
 427 256 l 1,0,-1
149 85 m 128,-1,9
 175 85 175 85 194 104 c 128,-1,10
 213 123 213 123 213 149 c 128,-1,11
 213 175 213 175 194 194 c 128,-1,12
 175 213 175 213 149 213 c 128,-1,13
 123 213 123 213 104 194 c 128,-1,14
 85 175 85 175 85 149 c 128,-1,15
 85 123 85 123 104 104 c 128,-1,8
 123 85 123 85 149 85 c 128,-1,9
69 381 m 2,16,-1
 339 491 l 1,17,-1
 353 455 l 1,18,-1
 177 384 l 1,19,-1
 427 384 l 2,20,21
 445 384 445 384 457 371.5 c 128,-1,22
 469 359 469 359 469 341 c 2,23,-1
 469 85 l 2,24,25
 469 68 469 68 457 55.5 c 128,-1,26
 445 43 445 43 427 43 c 2,27,-1
 85 43 l 2,28,29
 67 43 67 43 55 55.5 c 128,-1,30
 43 68 43 68 43 85 c 2,31,-1
 43 341 l 2,32,33
 43 371 43 371 69 381 c 2,16,-1
EndSplineSet
Ligature2: "'liga' Standard Ligatures in Latin lookup 0 subtable" r a d i o
EndChar

StartChar: uniE03F
Encoding: 57407 57407 74
Width: 512
GlyphClass: 3
Flags: W
LayerCount: 2
Fore
SplineSet
267 149 m 1,0,-1
 267 165 l 2,1,2
 267 187 267 187 234 200 c 128,-1,3
 201 213 201 213 171 213 c 128,-1,4
 141 213 141 213 108 200 c 128,-1,5
 75 187 75 187 75 165 c 2,6,-1
 75 149 l 1,7,-1
 267 149 l 1,0,-1
171 347 m 128,-1,9
 152 347 152 347 137.5 332.5 c 128,-1,10
 123 318 123 318 123 299 c 128,-1,11
 123 280 123 280 137.5 265.5 c 128,-1,12
 152 251 152 251 171 251 c 128,-1,13
 190 251 190 251 204.5 265.5 c 128,-1,14
 219 280 219 280 219 299 c 128,-1,15
 219 318 219 318 204.5 332.5 c 128,-1,8
 190 347 190 347 171 347 c 128,-1,9
299 405 m 2,16,17
 308 405 308 405 314 399 c 128,-1,18
 320 393 320 393 320 384 c 2,19,-1
 320 128 l 2,20,21
 320 119 320 119 314 113 c 128,-1,22
 308 107 308 107 299 107 c 2,23,-1
 43 107 l 2,24,25
 34 107 34 107 27.5 113 c 128,-1,26
 21 119 21 119 21 128 c 2,27,-1
 21 384 l 2,28,29
 21 393 21 393 27.5 399 c 128,-1,30
 34 405 34 405 43 405 c 2,31,-1
 299 405 l 2,16,17
363 107 m 1,32,-1
 363 405 l 1,33,-1
 405 405 l 1,34,-1
 405 107 l 1,35,-1
 363 107 l 1,32,-1
448 405 m 1,36,-1
 491 405 l 1,37,-1
 491 107 l 1,38,-1
 448 107 l 1,39,-1
 448 405 l 1,36,-1
EndSplineSet
Ligature2: "'liga' Standard Ligatures in Latin lookup 0 subtable" r e c e n t underscore a c t o r s
EndChar

StartChar: uniE040
Encoding: 57408 57408 75
Width: 512
GlyphClass: 3
Flags: W
LayerCount: 2
Fore
SplineSet
363 149 m 1,0,-1
 363 235 l 1,1,-1
 405 235 l 1,2,-1
 405 107 l 1,3,-1
 149 107 l 1,4,-1
 149 43 l 1,5,-1
 64 128 l 1,6,-1
 149 213 l 1,7,-1
 149 149 l 1,8,-1
 363 149 l 1,0,-1
149 363 m 1,9,-1
 149 277 l 1,10,-1
 107 277 l 1,11,-1
 107 405 l 1,12,-1
 363 405 l 1,13,-1
 363 469 l 1,14,-1
 448 384 l 1,15,-1
 363 299 l 1,16,-1
 363 363 l 1,17,-1
 149 363 l 1,9,-1
EndSplineSet
Ligature2: "'liga' Standard Ligatures in Latin lookup 0 subtable" r e p e a t
EndChar

StartChar: uniE041
Encoding: 57409 57409 76
Width: 512
GlyphClass: 3
Flags: W
LayerCount: 2
Fore
SplineSet
277 192 m 1,0,-1
 245 192 l 1,1,-1
 245 277 l 1,2,-1
 213 277 l 1,3,-1
 213 299 l 1,4,-1
 256 320 l 1,5,-1
 277 320 l 1,6,-1
 277 192 l 1,0,-1
363 149 m 1,7,-1
 363 235 l 1,8,-1
 405 235 l 1,9,-1
 405 107 l 1,10,-1
 149 107 l 1,11,-1
 149 43 l 1,12,-1
 64 128 l 1,13,-1
 149 213 l 1,14,-1
 149 149 l 1,15,-1
 363 149 l 1,7,-1
149 363 m 1,16,-1
 149 277 l 1,17,-1
 107 277 l 1,18,-1
 107 405 l 1,19,-1
 363 405 l 1,20,-1
 363 469 l 1,21,-1
 448 384 l 1,22,-1
 363 299 l 1,23,-1
 363 363 l 1,24,-1
 149 363 l 1,16,-1
EndSplineSet
Ligature2: "'liga' Standard Ligatures in Latin lookup 0 subtable" r e p e a t underscore o n e
EndChar

StartChar: uniE042
Encoding: 57410 57410 77
Width: 512
GlyphClass: 3
Flags: W
LayerCount: 2
Fore
SplineSet
256 405 m 1,0,1
 327 405 327 405 377 355 c 128,-1,2
 427 305 427 305 427 235 c 0,3,4
 427 164 427 164 376.5 114 c 128,-1,5
 326 64 326 64 256 64 c 128,-1,6
 186 64 186 64 135.5 114 c 128,-1,7
 85 164 85 164 85 235 c 1,8,-1
 128 235 l 1,9,10
 128 182 128 182 165.5 144.5 c 128,-1,11
 203 107 203 107 256 107 c 128,-1,12
 309 107 309 107 346.5 144.5 c 128,-1,13
 384 182 384 182 384 235 c 128,-1,14
 384 288 384 288 346.5 325.5 c 128,-1,15
 309 363 309 363 256 363 c 1,16,-1
 256 277 l 1,17,-1
 149 384 l 1,18,-1
 256 491 l 1,19,-1
 256 405 l 1,0,1
EndSplineSet
Ligature2: "'liga' Standard Ligatures in Latin lookup 0 subtable" r e p l a y
EndChar

StartChar: uniE043
Encoding: 57411 57411 78
Width: 512
GlyphClass: 3
Flags: W
LayerCount: 2
Fore
SplineSet
316 226 m 1,0,-1
 383 159 l 1,1,-1
 427 203 l 1,2,-1
 427 85 l 1,3,-1
 309 85 l 1,4,-1
 353 129 l 1,5,-1
 286 196 l 1,6,-1
 316 226 l 1,0,-1
309 427 m 1,7,-1
 427 427 l 1,8,-1
 427 309 l 1,9,-1
 383 353 l 1,10,-1
 115 85 l 1,11,-1
 85 115 l 1,12,-1
 353 383 l 1,13,-1
 309 427 l 1,7,-1
226 316 m 1,14,-1
 196 286 l 1,15,-1
 85 397 l 1,16,-1
 115 427 l 1,17,-1
 226 316 l 1,14,-1
EndSplineSet
Ligature2: "'liga' Standard Ligatures in Latin lookup 0 subtable" s h u f f l e
EndChar

StartChar: uniE044
Encoding: 57412 57412 79
Width: 512
GlyphClass: 3
Flags: W
LayerCount: 2
Fore
SplineSet
341 384 m 1,0,-1
 384 384 l 1,1,-1
 384 128 l 1,2,-1
 341 128 l 1,3,-1
 341 384 l 1,0,-1
128 128 m 1,4,-1
 128 384 l 1,5,-1
 309 256 l 1,6,-1
 128 128 l 1,4,-1
EndSplineSet
Ligature2: "'liga' Standard Ligatures in Latin lookup 0 subtable" s k i p underscore n e x t
EndChar

StartChar: uniE045
Encoding: 57413 57413 80
Width: 512
GlyphClass: 3
Flags: W
LayerCount: 2
Fore
SplineSet
203 256 m 1,0,-1
 384 384 l 1,1,-1
 384 128 l 1,2,-1
 203 256 l 1,0,-1
128 384 m 1,3,-1
 171 384 l 1,4,-1
 171 128 l 1,5,-1
 128 128 l 1,6,-1
 128 384 l 1,3,-1
EndSplineSet
Ligature2: "'liga' Standard Ligatures in Latin lookup 0 subtable" s k i p underscore p r e v i o u s
EndChar

StartChar: uniE046
Encoding: 57414 57414 81
Width: 512
GlyphClass: 3
Flags: W
LayerCount: 2
Fore
SplineSet
192 277 m 1,0,-1
 192 320 l 1,1,-1
 320 320 l 1,2,-1
 320 282 l 1,3,-1
 243 192 l 1,4,-1
 320 192 l 1,5,-1
 320 149 l 1,6,-1
 192 149 l 1,7,-1
 192 188 l 1,8,-1
 269 277 l 1,9,-1
 192 277 l 1,0,-1
256 85 m 128,-1,11
 318 85 318 85 361.5 129 c 128,-1,12
 405 173 405 173 405 235 c 128,-1,13
 405 297 405 297 361.5 340.5 c 128,-1,14
 318 384 318 384 256 384 c 128,-1,15
 194 384 194 384 150.5 340.5 c 128,-1,16
 107 297 107 297 107 235 c 128,-1,17
 107 173 107 173 150.5 129 c 128,-1,10
 194 85 194 85 256 85 c 128,-1,11
256 427 m 128,-1,19
 336 427 336 427 392 370.5 c 128,-1,20
 448 314 448 314 448 235 c 128,-1,21
 448 156 448 156 392 99.5 c 128,-1,22
 336 43 336 43 256 43 c 128,-1,23
 176 43 176 43 120 99.5 c 128,-1,24
 64 156 64 156 64 235 c 128,-1,25
 64 314 64 314 120 370.5 c 128,-1,18
 176 427 176 427 256 427 c 128,-1,19
469 390 m 1,26,-1
 442 357 l 1,27,-1
 344 440 l 1,28,-1
 371 472 l 1,29,-1
 469 390 l 1,26,-1
168 440 m 1,30,-1
 70 358 l 1,31,-1
 43 390 l 1,32,-1
 141 472 l 1,33,-1
 168 440 l 1,30,-1
EndSplineSet
Ligature2: "'liga' Standard Ligatures in Latin lookup 0 subtable" s n o o z e
EndChar

StartChar: uniE047
Encoding: 57415 57415 82
Width: 512
GlyphClass: 3
Flags: W
LayerCount: 2
Fore
SplineSet
128 384 m 1,0,-1
 384 384 l 1,1,-1
 384 128 l 1,2,-1
 128 128 l 1,3,-1
 128 384 l 1,0,-1
EndSplineSet
Ligature2: "'liga' Standard Ligatures in Latin lookup 0 subtable" s t o p
EndChar

StartChar: uniE048
Encoding: 57416 57416 83
Width: 512
GlyphClass: 3
Flags: W
LayerCount: 2
Fore
SplineSet
427 213 m 1,0,-1
 427 256 l 1,1,-1
 213 256 l 1,2,-1
 213 213 l 1,3,-1
 427 213 l 1,0,-1
427 128 m 1,4,-1
 427 171 l 1,5,-1
 341 171 l 1,6,-1
 341 128 l 1,7,-1
 427 128 l 1,4,-1
299 128 m 1,8,-1
 299 171 l 1,9,-1
 85 171 l 1,10,-1
 85 128 l 1,11,-1
 299 128 l 1,8,-1
85 256 m 1,12,-1
 85 213 l 1,13,-1
 171 213 l 1,14,-1
 171 256 l 1,15,-1
 85 256 l 1,12,-1
427 427 m 2,16,17
 444 427 444 427 456.5 414 c 128,-1,18
 469 401 469 401 469 384 c 2,19,-1
 469 128 l 2,20,21
 469 111 469 111 456.5 98 c 128,-1,22
 444 85 444 85 427 85 c 2,23,-1
 85 85 l 2,24,25
 68 85 68 85 55.5 98 c 128,-1,26
 43 111 43 111 43 128 c 2,27,-1
 43 384 l 2,28,29
 43 401 43 401 55.5 414 c 128,-1,30
 68 427 68 427 85 427 c 2,31,-1
 427 427 l 2,16,17
EndSplineSet
Ligature2: "'liga' Standard Ligatures in Latin lookup 0 subtable" s u b t i t l e s
EndChar

StartChar: uniE049
Encoding: 57417 57417 84
Width: 512
GlyphClass: 3
Flags: W
LayerCount: 2
Fore
SplineSet
256 299 m 128,-1,1
 273 299 273 299 286 286 c 128,-1,2
 299 273 299 273 299 256 c 128,-1,3
 299 239 299 239 286 226 c 128,-1,4
 273 213 273 213 256 213 c 128,-1,5
 239 213 239 213 226 226 c 128,-1,6
 213 239 213 239 213 256 c 128,-1,7
 213 273 213 273 226 286 c 128,-1,0
 239 299 239 299 256 299 c 128,-1,1
377 135 m 1,8,9
 427 185 427 185 427 256 c 128,-1,10
 427 327 427 327 377 377 c 1,11,-1
 346 346 l 1,12,13
 384 308 384 308 384 256 c 0,14,15
 384 202 384 202 347 165 c 1,16,-1
 377 135 l 1,8,9
256 171 m 128,-1,18
 291 171 291 171 316 196 c 128,-1,19
 341 221 341 221 341 256 c 128,-1,20
 341 291 341 291 316 316 c 128,-1,21
 291 341 291 341 256 341 c 128,-1,22
 221 341 221 341 196 316 c 128,-1,23
 171 291 171 291 171 256 c 128,-1,24
 171 221 171 221 196 196 c 128,-1,17
 221 171 221 171 256 171 c 128,-1,18
166 166 m 1,25,26
 128 204 128 204 128 256 c 0,27,28
 128 310 128 310 165 347 c 1,29,-1
 135 377 l 1,30,31
 85 327 85 327 85 256 c 128,-1,32
 85 185 85 185 135 135 c 1,33,-1
 166 166 l 1,25,26
427 427 m 2,34,35
 444 427 444 427 456.5 414 c 128,-1,36
 469 401 469 401 469 384 c 2,37,-1
 469 128 l 2,38,39
 469 111 469 111 456.5 98 c 128,-1,40
 444 85 444 85 427 85 c 2,41,-1
 85 85 l 2,42,43
 68 85 68 85 55.5 98 c 128,-1,44
 43 111 43 111 43 128 c 2,45,-1
 43 384 l 2,46,47
 43 401 43 401 55.5 414 c 128,-1,48
 68 427 68 427 85 427 c 2,49,-1
 427 427 l 2,34,35
EndSplineSet
Ligature2: "'liga' Standard Ligatures in Latin lookup 0 subtable" s u r r o u n d underscore s o u n d
EndChar

StartChar: uniE04A
Encoding: 57418 57418 85
Width: 512
GlyphClass: 3
Flags: W
LayerCount: 2
Fore
SplineSet
256 203 m 1,0,-1
 384 299 l 1,1,-1
 256 395 l 1,2,-1
 256 203 l 1,0,-1
427 469 m 2,3,4
 444 469 444 469 456.5 456.5 c 128,-1,5
 469 444 469 444 469 427 c 2,6,-1
 469 171 l 2,7,8
 469 154 469 154 456.5 141 c 128,-1,9
 444 128 444 128 427 128 c 2,10,-1
 171 128 l 2,11,12
 154 128 154 128 141 141 c 128,-1,13
 128 154 128 154 128 171 c 2,14,-1
 128 427 l 2,15,16
 128 444 128 444 141 456.5 c 128,-1,17
 154 469 154 469 171 469 c 2,18,-1
 427 469 l 2,3,4
85 384 m 1,19,-1
 85 85 l 1,20,-1
 384 85 l 1,21,-1
 384 43 l 1,22,-1
 85 43 l 2,23,24
 68 43 68 43 55.5 55.5 c 128,-1,25
 43 68 43 68 43 85 c 2,26,-1
 43 384 l 1,27,-1
 85 384 l 1,19,-1
EndSplineSet
Ligature2: "'liga' Standard Ligatures in Latin lookup 0 subtable" v i d e o underscore l i b r a r y
Ligature2: "'liga' Standard Ligatures in Latin lookup 0 subtable" v i d e o underscore c o l l e c t i o n
EndChar

StartChar: uniE04B
Encoding: 57419 57419 86
Width: 512
GlyphClass: 3
Flags: W
LayerCount: 2
Fore
SplineSet
363 288 m 1,0,-1
 448 373 l 1,1,-1
 448 139 l 1,2,-1
 363 224 l 1,3,-1
 363 149 l 2,4,5
 363 140 363 140 356.5 134 c 128,-1,6
 350 128 350 128 341 128 c 2,7,-1
 85 128 l 2,8,9
 76 128 76 128 70 134 c 128,-1,10
 64 140 64 140 64 149 c 2,11,-1
 64 363 l 2,12,13
 64 372 64 372 70 378 c 128,-1,14
 76 384 76 384 85 384 c 2,15,-1
 341 384 l 2,16,17
 350 384 350 384 356.5 378 c 128,-1,18
 363 372 363 372 363 363 c 2,19,-1
 363 288 l 1,0,-1
EndSplineSet
Ligature2: "'liga' Standard Ligatures in Latin lookup 0 subtable" v i d e o c a m
EndChar

StartChar: uniE04C
Encoding: 57420 57420 87
Width: 512
GlyphClass: 3
Flags: W
LayerCount: 2
Fore
SplineSet
70 469 m 1,0,-1
 448 91 l 1,1,-1
 421 64 l 1,2,-1
 353 132 l 1,3,4
 347 128 347 128 341 128 c 2,5,-1
 85 128 l 2,6,7
 76 128 76 128 70 134 c 128,-1,8
 64 140 64 140 64 149 c 2,9,-1
 64 363 l 2,10,11
 64 372 64 372 70 378 c 128,-1,12
 76 384 76 384 85 384 c 2,13,-1
 101 384 l 1,14,-1
 43 442 l 1,15,-1
 70 469 l 1,0,-1
448 373 m 1,16,-1
 448 145 l 1,17,-1
 209 384 l 1,18,-1
 341 384 l 2,19,20
 350 384 350 384 356.5 378 c 128,-1,21
 363 372 363 372 363 363 c 2,22,-1
 363 288 l 1,23,-1
 448 373 l 1,16,-1
EndSplineSet
Ligature2: "'liga' Standard Ligatures in Latin lookup 0 subtable" v i d e o c a m underscore o f f
EndChar

StartChar: uniE04D
Encoding: 57421 57421 88
Width: 512
GlyphClass: 3
Flags: W
LayerCount: 2
Fore
SplineSet
107 320 m 1,0,-1
 192 320 l 1,1,-1
 299 427 l 1,2,-1
 299 85 l 1,3,-1
 192 192 l 1,4,-1
 107 192 l 1,5,-1
 107 320 l 1,0,-1
395 256 m 128,-1,7
 395 197 395 197 341 170 c 1,8,-1
 341 342 l 1,9,6
 395 315 395 315 395 256 c 128,-1,7
EndSplineSet
Ligature2: "'liga' Standard Ligatures in Latin lookup 0 subtable" v o l u m e underscore d o w n
EndChar

StartChar: uniE04E
Encoding: 57422 57422 89
Width: 512
GlyphClass: 3
Flags: W
LayerCount: 2
Fore
SplineSet
149 320 m 1,0,-1
 235 320 l 1,1,-1
 341 427 l 1,2,-1
 341 85 l 1,3,-1
 235 192 l 1,4,-1
 149 192 l 1,5,-1
 149 320 l 1,0,-1
EndSplineSet
Ligature2: "'liga' Standard Ligatures in Latin lookup 0 subtable" v o l u m e underscore m u t e
EndChar

StartChar: uniE04F
Encoding: 57423 57423 90
Width: 512
GlyphClass: 3
Flags: W
LayerCount: 2
Fore
SplineSet
256 427 m 1,0,-1
 256 337 l 1,1,-1
 211 382 l 1,2,-1
 256 427 l 1,0,-1
91 448 m 1,3,-1
 448 91 l 1,4,-1
 421 64 l 1,5,-1
 377 108 l 1,6,7
 340 79 340 79 299 69 c 1,8,-1
 299 113 l 1,9,10
 324 120 324 120 347 138 c 1,11,-1
 256 229 l 1,12,-1
 256 85 l 1,13,-1
 149 192 l 1,14,-1
 64 192 l 1,15,-1
 64 320 l 1,16,-1
 165 320 l 1,17,-1
 64 421 l 1,18,-1
 91 448 l 1,3,-1
405 256 m 0,19,20
 405 307 405 307 375.5 346 c 128,-1,21
 346 385 346 385 299 399 c 1,22,-1
 299 443 l 1,23,24
 364 429 364 429 406 376.5 c 128,-1,25
 448 324 448 324 448 256 c 0,26,27
 448 208 448 208 426 167 c 1,28,-1
 394 200 l 1,29,30
 405 227 405 227 405 256 c 0,19,20
352 256 m 0,31,32
 352 247 352 247 351 243 c 2,33,-1
 299 295 l 1,34,-1
 299 342 l 1,35,36
 352 316 352 316 352 256 c 0,31,32
EndSplineSet
Ligature2: "'liga' Standard Ligatures in Latin lookup 0 subtable" v o l u m e underscore o f f
EndChar

StartChar: uniE050
Encoding: 57424 57424 91
Width: 512
GlyphClass: 3
Flags: W
LayerCount: 2
Fore
SplineSet
299 443 m 1,0,1
 364 429 364 429 406 376.5 c 128,-1,2
 448 324 448 324 448 256 c 128,-1,3
 448 188 448 188 406 135.5 c 128,-1,4
 364 83 364 83 299 69 c 1,5,-1
 299 113 l 1,6,7
 346 127 346 127 375.5 166 c 128,-1,8
 405 205 405 205 405 256 c 128,-1,9
 405 307 405 307 375.5 346 c 128,-1,10
 346 385 346 385 299 399 c 1,11,-1
 299 443 l 1,0,1
352 256 m 128,-1,13
 352 196 352 196 299 170 c 1,14,-1
 299 342 l 1,15,12
 352 316 352 316 352 256 c 128,-1,13
64 320 m 1,16,-1
 149 320 l 1,17,-1
 256 427 l 1,18,-1
 256 85 l 1,19,-1
 149 192 l 1,20,-1
 64 192 l 1,21,-1
 64 320 l 1,16,-1
EndSplineSet
Ligature2: "'liga' Standard Ligatures in Latin lookup 0 subtable" v o l u m e underscore u p
EndChar

StartChar: uniE051
Encoding: 57425 57425 92
Width: 512
GlyphClass: 3
Flags: W
LayerCount: 2
Fore
SplineSet
427 128 m 1,0,-1
 427 320 l 1,1,-1
 341 320 l 1,2,-1
 341 128 l 1,3,-1
 427 128 l 1,0,-1
320 235 m 1,4,-1
 320 320 l 1,5,-1
 85 320 l 1,6,-1
 85 235 l 1,7,-1
 320 235 l 1,4,-1
320 128 m 1,8,-1
 320 213 l 1,9,-1
 85 213 l 1,10,-1
 85 128 l 1,11,-1
 320 128 l 1,8,-1
427 427 m 2,12,13
 444 427 444 427 456.5 414 c 128,-1,14
 469 401 469 401 469 384 c 2,15,-1
 469 128 l 2,16,17
 469 111 469 111 456.5 98 c 128,-1,18
 444 85 444 85 427 85 c 2,19,-1
 85 85 l 2,20,21
 68 85 68 85 55.5 98 c 128,-1,22
 43 111 43 111 43 128 c 2,23,-1
 43 384 l 2,24,25
 43 401 43 401 55.5 414 c 128,-1,26
 68 427 68 427 85 427 c 2,27,-1
 427 427 l 2,12,13
EndSplineSet
Ligature2: "'liga' Standard Ligatures in Latin lookup 0 subtable" w e b
EndChar

StartChar: uniE052
Encoding: 57426 57426 93
Width: 512
GlyphClass: 3
Flags: W
LayerCount: 2
Fore
SplineSet
309 224 m 1,0,-1
 309 288 l 1,1,-1
 352 288 l 1,2,-1
 352 224 l 1,3,-1
 309 224 l 1,0,-1
277 320 m 1,4,-1
 277 192 l 1,5,-1
 363 192 l 2,6,7
 372 192 372 192 378 198 c 128,-1,8
 384 204 384 204 384 213 c 2,9,-1
 384 299 l 2,10,11
 384 308 384 308 378 314 c 128,-1,12
 372 320 372 320 363 320 c 2,13,-1
 277 320 l 1,4,-1
235 192 m 1,14,-1
 235 320 l 1,15,-1
 203 320 l 1,16,-1
 203 267 l 1,17,-1
 160 267 l 1,18,-1
 160 320 l 1,19,-1
 128 320 l 1,20,-1
 128 192 l 1,21,-1
 160 192 l 1,22,-1
 160 235 l 1,23,-1
 203 235 l 1,24,-1
 203 192 l 1,25,-1
 235 192 l 1,14,-1
405 448 m 2,26,27
 422 448 422 448 435 435 c 128,-1,28
 448 422 448 422 448 405 c 2,29,-1
 448 107 l 2,30,31
 448 90 448 90 435 77 c 128,-1,32
 422 64 422 64 405 64 c 2,33,-1
 107 64 l 2,34,35
 89 64 89 64 76.5 77 c 128,-1,36
 64 90 64 90 64 107 c 2,37,-1
 64 405 l 2,38,39
 64 422 64 422 76.5 435 c 128,-1,40
 89 448 89 448 107 448 c 2,41,-1
 405 448 l 2,26,27
EndSplineSet
Ligature2: "'liga' Standard Ligatures in Latin lookup 0 subtable" h d
EndChar

StartChar: uniE053
Encoding: 57427 57427 94
Width: 512
GlyphClass: 3
Flags: W
LayerCount: 2
Fore
SplineSet
336 168 m 1,0,-1
 466 168 l 1,1,-1
 466 134 l 1,2,-1
 284 134 l 1,3,-1
 284 161 l 1,4,-1
 410 344 l 1,5,-1
 285 344 l 1,6,-1
 285 378 l 1,7,-1
 462 378 l 1,8,-1
 462 351 l 1,9,-1
 336 168 l 1,0,-1
106 221 m 1,10,-1
 189 221 l 1,11,-1
 147 332 l 1,12,-1
 106 221 l 1,10,-1
130 378 m 1,13,-1
 165 378 l 1,14,-1
 261 134 l 1,15,-1
 222 134 l 1,16,-1
 202 186 l 1,17,-1
 93 186 l 1,18,-1
 73 134 l 1,19,-1
 34 134 l 1,20,-1
 130 378 l 1,13,-1
219 99 m 1,21,-1
 318 99 l 1,22,-1
 268 49 l 1,23,-1
 219 99 l 1,21,-1
319 413 m 1,24,-1
 218 413 l 1,25,-1
 268 463 l 1,26,-1
 319 413 l 1,24,-1
EndSplineSet
Ligature2: "'liga' Standard Ligatures in Latin lookup 0 subtable" s o r t underscore b y underscore a l p h a
EndChar

StartChar: uniE055
Encoding: 57429 57429 95
Width: 512
GlyphClass: 3
Flags: W
LayerCount: 2
Fore
SplineSet
448 448 m 2,0,1
 465 448 465 448 478 435 c 128,-1,2
 491 422 491 422 491 405 c 2,3,-1
 491 149 l 2,4,5
 491 132 491 132 478 119.5 c 128,-1,6
 465 107 465 107 448 107 c 2,7,-1
 363 107 l 1,8,-1
 363 149 l 1,9,-1
 448 149 l 1,10,-1
 448 405 l 1,11,-1
 64 405 l 1,12,-1
 64 149 l 1,13,-1
 149 149 l 1,14,-1
 149 107 l 1,15,-1
 64 107 l 2,16,17
 47 107 47 107 34 119.5 c 128,-1,18
 21 132 21 132 21 149 c 2,19,-1
 21 405 l 2,20,21
 21 422 21 422 34 435 c 128,-1,22
 47 448 47 448 64 448 c 2,23,-1
 448 448 l 2,0,1
128 43 m 1,24,-1
 256 171 l 1,25,-1
 384 43 l 1,26,-1
 128 43 l 1,24,-1
EndSplineSet
Ligature2: "'liga' Standard Ligatures in Latin lookup 0 subtable" a i r p l a y
EndChar

StartChar: uniE056
Encoding: 57430 57430 96
Width: 512
GlyphClass: 3
Flags: W
LayerCount: 2
Fore
SplineSet
282 188 m 0,0,1
 282 181 282 181 292 181 c 0,2,3
 297 181 297 181 299 183 c 2,4,-1
 303 188 l 2,5,6
 305 192 305 192 305 194 c 2,7,-1
 305 237 l 2,8,9
 303 241 303 241 303 243 c 128,-1,10
 303 245 303 245 298.5 247.5 c 128,-1,11
 294 250 294 250 292 250 c 0,12,13
 289 250 289 250 286 247 c 2,14,-1
 282 243 l 2,15,16
 279 239 279 239 279 237 c 2,17,-1
 279 194 l 2,18,19
 282 190 282 190 282 188 c 0,0,1
322 209 m 2,20,21
 322 196 322 196 320 192 c 2,22,-1
 314 179 l 2,23,24
 307 173 307 173 303 173 c 0,25,26
 301 173 301 173 296.5 172 c 128,-1,27
 292 171 292 171 290 171 c 0,28,29
 281 171 281 171 277 173 c 0,30,31
 275 174 275 174 272 176 c 128,-1,32
 269 178 269 178 267 179 c 0,33,34
 258 184 258 184 258 209 c 2,35,-1
 258 224 l 2,36,37
 258 237 258 237 260 241 c 2,38,-1
 267 254 l 2,39,40
 273 260 273 260 277 260 c 0,41,42
 279 260 279 260 283.5 261 c 128,-1,43
 288 262 288 262 290 262 c 0,44,45
 299 262 299 262 303 260 c 0,46,47
 305 259 305 259 308.5 257 c 128,-1,48
 312 255 312 255 314 254 c 128,-1,49
 316 253 316 253 320 241 c 0,50,51
 322 235 322 235 322 224 c 2,52,-1
 322 209 l 2,20,21
233 171 m 1,53,-1
 213 171 l 1,54,-1
 213 241 l 1,55,-1
 192 235 l 1,56,-1
 192 250 l 1,57,-1
 230 262 l 1,58,-1
 233 262 l 1,59,-1
 233 171 l 1,53,-1
85 235 m 0,60,61
 85 305 85 305 135 355 c 128,-1,62
 185 405 185 405 256 405 c 1,63,-1
 256 491 l 1,64,-1
 363 384 l 1,65,-1
 256 277 l 1,66,-1
 256 363 l 1,67,68
 204 363 204 363 166 325.5 c 128,-1,69
 128 288 128 288 128 235 c 128,-1,70
 128 182 128 182 166 144.5 c 128,-1,71
 204 107 204 107 256 107 c 128,-1,72
 308 107 308 107 346 144.5 c 128,-1,73
 384 182 384 182 384 235 c 1,74,-1
 427 235 l 1,75,76
 427 164 427 164 376.5 114 c 128,-1,77
 326 64 326 64 256 64 c 128,-1,78
 186 64 186 64 135.5 114 c 128,-1,79
 85 164 85 164 85 235 c 0,60,61
EndSplineSet
Ligature2: "'liga' Standard Ligatures in Latin lookup 0 subtable" f o r w a r d underscore one zero
EndChar

StartChar: uniE057
Encoding: 57431 57431 97
Width: 512
GlyphClass: 3
Flags: W
LayerCount: 2
Fore
SplineSet
85 235 m 0,0,1
 85 305 85 305 135 355 c 128,-1,2
 185 405 185 405 256 405 c 1,3,-1
 256 491 l 1,4,-1
 363 384 l 1,5,-1
 256 277 l 1,6,-1
 256 363 l 1,7,8
 204 363 204 363 166 325.5 c 128,-1,9
 128 288 128 288 128 235 c 128,-1,10
 128 182 128 182 166 144.5 c 128,-1,11
 204 107 204 107 256 107 c 128,-1,12
 308 107 308 107 346 144.5 c 128,-1,13
 384 182 384 182 384 235 c 1,14,-1
 427 235 l 1,15,16
 427 164 427 164 376.5 114 c 128,-1,17
 326 64 326 64 256 64 c 128,-1,18
 186 64 186 64 135.5 114 c 128,-1,19
 85 164 85 164 85 235 c 0,0,1
284 188 m 0,20,21
 284 181 284 181 294 181 c 0,22,23
 299 181 299 181 301 183 c 2,24,-1
 305 188 l 2,25,26
 307 192 307 192 307 194 c 2,27,-1
 307 237 l 2,28,29
 305 241 305 241 305 243 c 128,-1,30
 305 245 305 245 300.5 247.5 c 128,-1,31
 296 250 296 250 294 250 c 0,32,33
 291 250 291 250 288 247 c 2,34,-1
 284 243 l 2,35,36
 282 239 282 239 282 237 c 2,37,-1
 282 194 l 2,38,39
 284 190 284 190 284 188 c 0,20,21
326 209 m 2,40,41
 326 196 326 196 324 192 c 2,42,-1
 318 179 l 2,43,44
 311 173 311 173 307 173 c 0,45,46
 305 173 305 173 300.5 172 c 128,-1,47
 296 171 296 171 294 171 c 0,48,49
 287 171 287 171 271 179 c 0,50,51
 269 180 269 180 265 192 c 0,52,53
 262 201 262 201 262 209 c 2,54,-1
 262 224 l 2,55,56
 262 235 262 235 265 241 c 2,57,-1
 271 254 l 2,58,59
 278 260 278 260 282 260 c 0,60,61
 284 260 284 260 288 261 c 128,-1,62
 292 262 292 262 294 262 c 0,63,64
 303 262 303 262 307 260 c 0,65,66
 309 259 309 259 312.5 257 c 128,-1,67
 316 255 316 255 318 254 c 128,-1,68
 320 253 320 253 324 241 c 0,69,70
 326 235 326 235 326 224 c 2,71,-1
 326 209 l 2,40,41
213 224 m 2,72,73
 228 224 228 224 228 237 c 2,74,-1
 228 241 l 2,75,76
 226 243 226 243 226 245 c 128,-1,77
 226 247 226 247 222 247 c 2,78,-1
 211 247 l 2,79,80
 209 245 209 245 207 245 c 128,-1,81
 205 245 205 245 205 241 c 2,82,-1
 205 237 l 1,83,-1
 183 237 l 1,84,85
 183 245 183 245 188.5 252.5 c 128,-1,86
 194 260 194 260 201 260 c 0,87,88
 202 260 202 260 206 261 c 128,-1,89
 210 262 210 262 211 262 c 0,90,91
 223 262 223 262 235 256 c 0,92,93
 243 252 243 252 243 237 c 2,94,-1
 243 230 l 2,95,96
 241 226 241 226 241 224 c 0,97,98
 241 220 241 220 237 220 c 0,99,100
 235 220 235 220 230 215 c 1,101,102
 239 210 239 210 241 207 c 0,103,104
 245 199 245 199 245 194 c 0,105,106
 245 185 245 185 243 183 c 0,107,108
 242 182 242 182 240 179 c 128,-1,109
 238 176 238 176 237 175 c 0,110,111
 233 171 233 171 226 171 c 0,112,113
 224 171 224 171 219.5 170 c 128,-1,114
 215 169 215 169 213 169 c 0,115,116
 205 169 205 169 203 171 c 0,117,118
 202 172 202 172 198 173 c 128,-1,119
 194 174 194 174 192 175 c 0,120,121
 183 180 183 180 183 196 c 1,122,-1
 201 196 l 1,123,-1
 201 192 l 2,124,125
 203 190 203 190 203 188 c 128,-1,126
 203 186 203 186 207 186 c 2,127,-1
 218 186 l 2,128,129
 220 188 220 188 222 188 c 128,-1,130
 224 188 224 188 224 192 c 2,131,-1
 224 203 l 2,132,133
 222 205 222 205 222 207 c 128,-1,134
 222 209 222 209 218 209 c 2,135,-1
 205 209 l 1,136,-1
 205 224 l 1,137,-1
 213 224 l 2,72,73
EndSplineSet
Ligature2: "'liga' Standard Ligatures in Latin lookup 0 subtable" f o r w a r d underscore three zero
EndChar

StartChar: uniE058
Encoding: 57432 57432 98
Width: 512
GlyphClass: 3
Flags: W
LayerCount: 2
Fore
SplineSet
250 222 m 2,0,1
 243 219 243 219 243 218 c 2,2,-1
 241 215 l 1,3,-1
 228 215 l 1,4,-1
 233 262 l 1,5,-1
 284 262 l 1,6,-1
 284 247 l 1,7,-1
 247 247 l 1,8,-1
 245 228 l 2,9,10
 247 228 247 228 247 230 c 0,11,12
 247 231 247 231 248.5 231.5 c 128,-1,13
 250 232 250 232 250 233 c 2,14,-1
 254 233 l 1,15,-1
 258 233 l 2,16,17
 266 233 266 233 269 230 c 0,18,19
 270 229 270 229 273 227 c 128,-1,20
 276 225 276 225 277 224 c 0,21,22
 286 215 286 215 286 201 c 0,23,24
 286 192 286 192 284 190 c 0,25,26
 283 189 283 189 281 185 c 128,-1,27
 279 181 279 181 277 179 c 0,28,29
 269 171 269 171 254 171 c 0,30,31
 245 171 245 171 243 173 c 0,32,33
 242 174 242 174 238.5 175 c 128,-1,34
 235 176 235 176 233 177 c 0,35,36
 224 182 224 182 224 196 c 1,37,-1
 241 196 l 1,38,39
 241 186 241 186 254 186 c 0,40,41
 258 186 258 186 260 188 c 2,42,-1
 265 192 l 2,43,44
 267 196 267 196 267 198 c 2,45,-1
 267 211 l 1,46,-1
 265 215 l 1,47,-1
 260 220 l 2,48,49
 256 222 256 222 254 222 c 2,50,-1
 250 222 l 2,0,1
85 235 m 0,51,52
 85 305 85 305 135 355 c 128,-1,53
 185 405 185 405 256 405 c 1,54,-1
 256 491 l 1,55,-1
 363 384 l 1,56,-1
 256 277 l 1,57,-1
 256 363 l 1,58,59
 204 363 204 363 166 325.5 c 128,-1,60
 128 288 128 288 128 235 c 128,-1,61
 128 182 128 182 166 144.5 c 128,-1,62
 204 107 204 107 256 107 c 128,-1,63
 308 107 308 107 346 144.5 c 128,-1,64
 384 182 384 182 384 235 c 1,65,-1
 427 235 l 1,66,67
 427 164 427 164 376.5 114 c 128,-1,68
 326 64 326 64 256 64 c 128,-1,69
 186 64 186 64 135.5 114 c 128,-1,70
 85 164 85 164 85 235 c 0,51,52
EndSplineSet
Ligature2: "'liga' Standard Ligatures in Latin lookup 0 subtable" f o r w a r d underscore five
EndChar

StartChar: uniE059
Encoding: 57433 57433 99
Width: 512
GlyphClass: 3
Flags: W
LayerCount: 2
Fore
SplineSet
282 188 m 0,0,1
 282 181 282 181 292 181 c 0,2,3
 297 181 297 181 299 183 c 2,4,-1
 303 188 l 2,5,6
 305 192 305 192 305 194 c 2,7,-1
 305 237 l 2,8,9
 303 241 303 241 303 243 c 128,-1,10
 303 245 303 245 298.5 247.5 c 128,-1,11
 294 250 294 250 292 250 c 0,12,13
 289 250 289 250 286 247 c 2,14,-1
 282 243 l 2,15,16
 279 239 279 239 279 237 c 2,17,-1
 279 194 l 2,18,19
 282 190 282 190 282 188 c 0,0,1
324 209 m 2,20,21
 324 196 324 196 322 192 c 2,22,-1
 316 179 l 2,23,24
 309 173 309 173 305 173 c 0,25,26
 303 173 303 173 298.5 172 c 128,-1,27
 294 171 294 171 292 171 c 0,28,29
 283 171 283 171 279 173 c 0,30,31
 277 174 277 174 274 176 c 128,-1,32
 271 178 271 178 269 179 c 0,33,34
 260 184 260 184 260 209 c 2,35,-1
 260 224 l 2,36,37
 260 237 260 237 262 241 c 2,38,-1
 269 254 l 2,39,40
 275 260 275 260 279 260 c 0,41,42
 281 260 281 260 285.5 261 c 128,-1,43
 290 262 290 262 292 262 c 0,44,45
 301 262 301 262 305 260 c 0,46,47
 307 259 307 259 310.5 257 c 128,-1,48
 314 255 314 255 316 254 c 128,-1,49
 318 253 318 253 322 241 c 0,50,51
 324 235 324 235 324 224 c 2,52,-1
 324 209 l 2,20,21
233 171 m 1,53,-1
 213 171 l 1,54,-1
 213 241 l 1,55,-1
 192 235 l 1,56,-1
 192 250 l 1,57,-1
 230 262 l 1,58,-1
 233 262 l 1,59,-1
 233 171 l 1,53,-1
256 405 m 1,60,61
 327 405 327 405 377 355 c 128,-1,62
 427 305 427 305 427 235 c 0,63,64
 427 164 427 164 376.5 114 c 128,-1,65
 326 64 326 64 256 64 c 128,-1,66
 186 64 186 64 135.5 114 c 128,-1,67
 85 164 85 164 85 235 c 1,68,-1
 128 235 l 1,69,70
 128 182 128 182 166 144.5 c 128,-1,71
 204 107 204 107 256 107 c 128,-1,72
 308 107 308 107 346 144.5 c 128,-1,73
 384 182 384 182 384 235 c 128,-1,74
 384 288 384 288 346 325.5 c 128,-1,75
 308 363 308 363 256 363 c 1,76,-1
 256 277 l 1,77,-1
 149 384 l 1,78,-1
 256 491 l 1,79,-1
 256 405 l 1,60,61
EndSplineSet
Ligature2: "'liga' Standard Ligatures in Latin lookup 0 subtable" r e p l a y underscore one zero
EndChar

StartChar: uniE05A
Encoding: 57434 57434 100
Width: 512
GlyphClass: 3
Flags: W
LayerCount: 2
Fore
SplineSet
286 188 m 0,0,1
 286 181 286 181 297 181 c 0,2,3
 301 181 301 181 303 183 c 2,4,-1
 307 188 l 2,5,6
 309 192 309 192 309 194 c 2,7,-1
 309 237 l 2,8,9
 309 238 309 238 308 240 c 128,-1,10
 307 242 307 242 307 243 c 0,11,12
 307 245 307 245 303 247.5 c 128,-1,13
 299 250 299 250 297 250 c 0,14,15
 293 250 293 250 290 247 c 2,16,-1
 286 243 l 2,17,18
 284 239 284 239 284 237 c 2,19,-1
 284 194 l 2,20,21
 286 190 286 190 286 188 c 0,0,1
326 209 m 2,22,23
 326 196 326 196 324 192 c 2,24,-1
 318 179 l 2,25,26
 311 173 311 173 307 173 c 0,27,28
 305 173 305 173 300.5 172 c 128,-1,29
 296 171 296 171 294 171 c 0,30,31
 287 171 287 171 271 179 c 0,32,33
 269 180 269 180 265 192 c 0,34,35
 262 201 262 201 262 209 c 2,36,-1
 262 224 l 2,37,38
 262 235 262 235 265 241 c 2,39,-1
 271 254 l 2,40,41
 278 260 278 260 282 260 c 0,42,43
 284 260 284 260 288 261 c 128,-1,44
 292 262 292 262 294 262 c 0,45,46
 303 262 303 262 307 260 c 0,47,48
 309 259 309 259 312.5 257 c 128,-1,49
 316 255 316 255 318 254 c 128,-1,50
 320 253 320 253 324 241 c 0,51,52
 326 235 326 235 326 224 c 2,53,-1
 326 209 l 2,22,23
213 224 m 2,54,55
 228 224 228 224 228 237 c 2,56,-1
 228 241 l 2,57,58
 226 243 226 243 226 245 c 128,-1,59
 226 247 226 247 222 247 c 2,60,-1
 211 247 l 2,61,62
 209 245 209 245 207 245 c 128,-1,63
 205 245 205 245 205 241 c 2,64,-1
 205 237 l 1,65,-1
 183 237 l 1,66,67
 183 245 183 245 188.5 252.5 c 128,-1,68
 194 260 194 260 201 260 c 0,69,70
 202 260 202 260 206 261 c 128,-1,71
 210 262 210 262 211 262 c 0,72,73
 223 262 223 262 235 256 c 0,74,75
 243 252 243 252 243 237 c 2,76,-1
 243 230 l 2,77,78
 241 226 241 226 241 224 c 0,79,80
 241 220 241 220 237 220 c 0,81,82
 235 220 235 220 230 215 c 1,83,84
 239 210 239 210 241 207 c 0,85,86
 245 199 245 199 245 194 c 0,87,88
 245 185 245 185 243 183 c 0,89,90
 242 182 242 182 240 179 c 128,-1,91
 238 176 238 176 237 175 c 0,92,93
 233 171 233 171 226 171 c 0,94,95
 224 171 224 171 219.5 170 c 128,-1,96
 215 169 215 169 213 169 c 0,97,98
 205 169 205 169 203 171 c 0,99,100
 202 172 202 172 198 173 c 128,-1,101
 194 174 194 174 192 175 c 0,102,103
 183 180 183 180 183 196 c 1,104,-1
 201 196 l 1,105,-1
 201 192 l 2,106,107
 203 190 203 190 203 188 c 128,-1,108
 203 186 203 186 207 186 c 2,109,-1
 218 186 l 2,110,111
 220 188 220 188 222 188 c 128,-1,112
 224 188 224 188 224 192 c 2,113,-1
 224 203 l 2,114,115
 222 205 222 205 222 207 c 128,-1,116
 222 209 222 209 218 209 c 2,117,-1
 205 209 l 1,118,-1
 205 224 l 1,119,-1
 213 224 l 2,54,55
256 405 m 1,120,121
 327 405 327 405 377 355 c 128,-1,122
 427 305 427 305 427 235 c 0,123,124
 427 164 427 164 376.5 114 c 128,-1,125
 326 64 326 64 256 64 c 128,-1,126
 186 64 186 64 135.5 114 c 128,-1,127
 85 164 85 164 85 235 c 1,128,-1
 128 235 l 1,129,130
 128 182 128 182 166 144.5 c 128,-1,131
 204 107 204 107 256 107 c 128,-1,132
 308 107 308 107 346 144.5 c 128,-1,133
 384 182 384 182 384 235 c 128,-1,134
 384 288 384 288 346 325.5 c 128,-1,135
 308 363 308 363 256 363 c 1,136,-1
 256 277 l 1,137,-1
 149 384 l 1,138,-1
 256 491 l 1,139,-1
 256 405 l 1,120,121
EndSplineSet
Ligature2: "'liga' Standard Ligatures in Latin lookup 0 subtable" r e p l a y underscore three zero
EndChar

StartChar: uniE05B
Encoding: 57435 57435 101
Width: 512
GlyphClass: 3
Flags: W
LayerCount: 2
Fore
SplineSet
252 222 m 2,0,1
 245 219 245 219 245 218 c 2,2,-1
 243 215 l 1,3,-1
 228 215 l 1,4,-1
 233 262 l 1,5,-1
 284 262 l 1,6,-1
 284 247 l 1,7,-1
 247 247 l 1,8,-1
 245 228 l 2,9,10
 247 228 247 228 247 230 c 0,11,12
 247 231 247 231 248.5 231.5 c 128,-1,13
 250 232 250 232 250 233 c 2,14,-1
 254 233 l 1,15,-1
 258 233 l 2,16,17
 266 233 266 233 269 230 c 0,18,19
 270 229 270 229 273 227 c 128,-1,20
 276 225 276 225 277 224 c 0,21,22
 286 215 286 215 286 201 c 0,23,24
 286 192 286 192 284 190 c 0,25,26
 283 189 283 189 281 185 c 128,-1,27
 279 181 279 181 277 179 c 128,-1,28
 275 177 275 177 272.5 175.5 c 128,-1,29
 270 174 270 174 269 173 c 0,30,31
 267 171 267 171 256 171 c 0,32,33
 247 171 247 171 245 173 c 0,34,35
 244 174 244 174 240.5 175 c 128,-1,36
 237 176 237 176 235 177 c 0,37,38
 226 182 226 182 226 196 c 1,39,-1
 243 196 l 1,40,41
 243 186 243 186 256 186 c 0,42,43
 260 186 260 186 262 188 c 2,44,-1
 267 192 l 2,45,46
 269 196 269 196 269 198 c 2,47,-1
 269 211 l 1,48,-1
 267 215 l 1,49,-1
 262 220 l 2,50,51
 258 222 258 222 256 222 c 2,52,-1
 252 222 l 2,0,1
256 405 m 1,53,54
 327 405 327 405 377 355 c 128,-1,55
 427 305 427 305 427 235 c 0,56,57
 427 164 427 164 376.5 114 c 128,-1,58
 326 64 326 64 256 64 c 128,-1,59
 186 64 186 64 135.5 114 c 128,-1,60
 85 164 85 164 85 235 c 1,61,-1
 128 235 l 1,62,63
 128 182 128 182 166 144.5 c 128,-1,64
 204 107 204 107 256 107 c 128,-1,65
 308 107 308 107 346 144.5 c 128,-1,66
 384 182 384 182 384 235 c 128,-1,67
 384 288 384 288 346 325.5 c 128,-1,68
 308 363 308 363 256 363 c 1,69,-1
 256 277 l 1,70,-1
 149 384 l 1,71,-1
 256 491 l 1,72,-1
 256 405 l 1,53,54
EndSplineSet
Ligature2: "'liga' Standard Ligatures in Latin lookup 0 subtable" r e p l a y underscore five
EndChar

StartChar: uniE05C
Encoding: 57436 57436 102
Width: 512
GlyphClass: 3
Flags: W
LayerCount: 2
Fore
SplineSet
341 299 m 1,0,-1
 341 256 l 1,1,-1
 277 256 l 1,2,-1
 277 192 l 1,3,-1
 235 192 l 1,4,-1
 235 256 l 1,5,-1
 171 256 l 1,6,-1
 171 299 l 1,7,-1
 235 299 l 1,8,-1
 235 363 l 1,9,-1
 277 363 l 1,10,-1
 277 299 l 1,11,-1
 341 299 l 1,0,-1
448 149 m 1,12,-1
 448 405 l 1,13,-1
 64 405 l 1,14,-1
 64 149 l 1,15,-1
 448 149 l 1,12,-1
448 448 m 2,16,17
 465 448 465 448 478 435.5 c 128,-1,18
 491 423 491 423 491 405 c 2,19,-1
 490 149 l 2,20,21
 490 132 490 132 477.5 119.5 c 128,-1,22
 465 107 465 107 448 107 c 2,23,-1
 341 107 l 1,24,-1
 341 64 l 1,25,-1
 171 64 l 1,26,-1
 171 107 l 1,27,-1
 64 107 l 2,28,29
 46 107 46 107 33.5 119.5 c 128,-1,30
 21 132 21 132 21 149 c 2,31,-1
 21 405 l 2,32,33
 21 423 21 423 33.5 435.5 c 128,-1,34
 46 448 46 448 64 448 c 2,35,-1
 448 448 l 2,16,17
EndSplineSet
Ligature2: "'liga' Standard Ligatures in Latin lookup 0 subtable" a d d underscore t o underscore q u e u e
EndChar

StartChar: uniE05D
Encoding: 57437 57437 103
Width: 512
GlyphClass: 3
Flags: W
LayerCount: 2
Fore
SplineSet
448 267 m 2,0,-1
 448 288 l 2,1,2
 448 302 448 302 439 311 c 128,-1,3
 430 320 430 320 416 320 c 2,4,-1
 341 320 l 1,5,-1
 341 192 l 1,6,-1
 373 192 l 1,7,-1
 373 235 l 1,8,-1
 398 235 l 1,9,-1
 416 192 l 1,10,-1
 448 192 l 1,11,-1
 429 237 l 1,12,13
 448 246 448 246 448 267 c 2,0,-1
269 192 m 1,14,-1
 307 320 l 1,15,-1
 275 320 l 1,16,-1
 253 247 l 1,17,-1
 232 320 l 1,18,-1
 200 320 l 1,19,-1
 237 192 l 1,20,-1
 269 192 l 1,14,-1
171 224 m 2,21,-1
 171 288 l 2,22,23
 171 302 171 302 161.5 311 c 128,-1,24
 152 320 152 320 139 320 c 2,25,-1
 64 320 l 1,26,-1
 64 192 l 1,27,-1
 139 192 l 2,28,29
 152 192 152 192 161.5 201 c 128,-1,30
 171 210 171 210 171 224 c 2,21,-1
448 448 m 2,31,32
 466 448 466 448 478.5 435.5 c 128,-1,33
 491 423 491 423 491 405 c 2,34,-1
 491 107 l 2,35,36
 491 90 491 90 478.5 77 c 128,-1,37
 466 64 466 64 448 64 c 2,38,-1
 64 64 l 2,39,40
 46 64 46 64 33.5 77 c 128,-1,41
 21 90 21 90 21 107 c 2,42,-1
 21 405 l 2,43,44
 21 423 21 423 33.5 435.5 c 128,-1,45
 46 448 46 448 64 448 c 2,46,-1
 448 448 l 2,31,32
96 288 m 1,47,-1
 139 288 l 1,48,-1
 139 224 l 1,49,-1
 96 224 l 1,50,-1
 96 288 l 1,47,-1
373 288 m 1,51,-1
 416 288 l 1,52,-1
 416 267 l 1,53,-1
 373 267 l 1,54,-1
 373 288 l 1,51,-1
EndSplineSet
Ligature2: "'liga' Standard Ligatures in Latin lookup 0 subtable" f i b e r underscore d v r
EndChar

StartChar: uniE05E
Encoding: 57438 57438 104
Width: 512
GlyphClass: 3
Flags: W
LayerCount: 2
Fore
SplineSet
437 213 m 2,0,-1
 437 320 l 1,1,-1
 411 320 l 1,2,-1
 411 224 l 1,3,-1
 387 224 l 1,4,-1
 387 299 l 1,5,-1
 360 299 l 1,6,-1
 360 224 l 1,7,-1
 336 224 l 1,8,-1
 336 320 l 1,9,-1
 309 320 l 1,10,-1
 309 213 l 2,11,12
 309 204 309 204 315.5 198 c 128,-1,13
 322 192 322 192 331 192 c 2,14,-1
 416 192 l 2,15,16
 425 192 425 192 431 198 c 128,-1,17
 437 204 437 204 437 213 c 2,0,-1
288 293 m 1,18,-1
 288 320 l 1,19,-1
 203 320 l 1,20,-1
 203 192 l 1,21,-1
 288 192 l 1,22,-1
 288 219 l 1,23,-1
 235 219 l 1,24,-1
 235 242 l 1,25,-1
 288 242 l 1,26,-1
 288 269 l 1,27,-1
 235 269 l 1,28,-1
 235 293 l 1,29,-1
 288 293 l 1,18,-1
181 192 m 1,30,-1
 181 320 l 1,31,-1
 155 320 l 1,32,-1
 155 245 l 1,33,-1
 101 320 l 1,34,-1
 75 320 l 1,35,-1
 75 192 l 1,36,-1
 101 192 l 1,37,-1
 101 267 l 1,38,-1
 156 192 l 1,39,-1
 181 192 l 1,30,-1
427 427 m 2,40,41
 445 427 445 427 457 414.5 c 128,-1,42
 469 402 469 402 469 384 c 2,43,-1
 469 128 l 2,44,45
 469 110 469 110 457 97.5 c 128,-1,46
 445 85 445 85 427 85 c 2,47,-1
 85 85 l 2,48,49
 67 85 67 85 55 97.5 c 128,-1,50
 43 110 43 110 43 128 c 2,51,-1
 43 384 l 2,52,53
 43 402 43 402 55 414.5 c 128,-1,54
 67 427 67 427 85 427 c 2,55,-1
 427 427 l 2,40,41
EndSplineSet
Ligature2: "'liga' Standard Ligatures in Latin lookup 0 subtable" f i b e r underscore n e w
EndChar

StartChar: uniE05F
Encoding: 57439 57439 105
Width: 512
GlyphClass: 3
Flags: W
LayerCount: 2
Fore
SplineSet
363 235 m 1,0,-1
 469 171 l 1,1,-1
 363 107 l 1,2,-1
 363 235 l 1,0,-1
43 192 m 1,3,-1
 43 235 l 1,4,-1
 320 235 l 1,5,-1
 320 192 l 1,6,-1
 43 192 l 1,3,-1
405 405 m 1,7,-1
 405 363 l 1,8,-1
 43 363 l 1,9,-1
 43 405 l 1,10,-1
 405 405 l 1,7,-1
405 320 m 1,11,-1
 405 277 l 1,12,-1
 43 277 l 1,13,-1
 43 320 l 1,14,-1
 405 320 l 1,11,-1
EndSplineSet
Ligature2: "'liga' Standard Ligatures in Latin lookup 0 subtable" p l a y l i s t underscore p l a y
EndChar

StartChar: uniE060
Encoding: 57440 57440 106
Width: 512
GlyphClass: 3
Flags: W
LayerCount: 2
Fore
SplineSet
224 192 m 1,0,-1
 176 256 l 1,1,-1
 139 208 l 1,2,-1
 112 240 l 1,3,-1
 75 192 l 1,4,-1
 224 192 l 1,0,-1
256 320 m 2,5,-1
 256 192 l 2,6,7
 256 175 256 175 243 162 c 128,-1,8
 230 149 230 149 213 149 c 2,9,-1
 85 149 l 2,10,11
 68 149 68 149 55.5 162 c 128,-1,12
 43 175 43 175 43 192 c 2,13,-1
 43 320 l 2,14,15
 43 337 43 337 55.5 350 c 128,-1,16
 68 363 68 363 85 363 c 2,17,-1
 213 363 l 2,18,19
 230 363 230 363 243 350 c 128,-1,20
 256 337 256 337 256 320 c 2,5,-1
299 149 m 1,21,-1
 299 192 l 1,22,-1
 469 192 l 1,23,-1
 469 149 l 1,24,-1
 299 149 l 1,21,-1
469 363 m 1,25,-1
 469 320 l 1,26,-1
 299 320 l 1,27,-1
 299 363 l 1,28,-1
 469 363 l 1,25,-1
469 235 m 1,29,-1
 299 235 l 1,30,-1
 299 277 l 1,31,-1
 469 277 l 1,32,-1
 469 235 l 1,29,-1
EndSplineSet
Ligature2: "'liga' Standard Ligatures in Latin lookup 0 subtable" a r t underscore t r a c k
EndChar

StartChar: uniE061
Encoding: 57441 57441 107
Width: 512
GlyphClass: 3
Flags: W
LayerCount: 2
Fore
SplineSet
85 256 m 128,-1,1
 85 326 85 326 135.5 376.5 c 128,-1,2
 186 427 186 427 256 427 c 128,-1,3
 326 427 326 427 376.5 376.5 c 128,-1,4
 427 326 427 326 427 256 c 128,-1,5
 427 186 427 186 376.5 135.5 c 128,-1,6
 326 85 326 85 256 85 c 128,-1,7
 186 85 186 85 135.5 135.5 c 128,-1,0
 85 186 85 186 85 256 c 128,-1,1
EndSplineSet
Ligature2: "'liga' Standard Ligatures in Latin lookup 0 subtable" f i b e r underscore m a n u a l underscore r e c o r d
EndChar

StartChar: uniE062
Encoding: 57442 57442 108
Width: 512
GlyphClass: 3
Flags: W
LayerCount: 2
Fore
SplineSet
363 421 m 1,0,1
 419 407 419 407 455 361 c 128,-1,2
 491 315 491 315 491 256 c 128,-1,3
 491 197 491 197 455 151 c 128,-1,4
 419 105 419 105 363 91 c 1,5,-1
 363 135 l 1,6,7
 401 148 401 148 424.5 181 c 128,-1,8
 448 214 448 214 448 256 c 128,-1,9
 448 298 448 298 424.5 331 c 128,-1,10
 401 364 401 364 363 377 c 1,11,-1
 363 421 l 1,0,1
21 256 m 128,-1,13
 21 326 21 326 71.5 376.5 c 128,-1,14
 122 427 122 427 192 427 c 128,-1,15
 262 427 262 427 312.5 376.5 c 128,-1,16
 363 326 363 326 363 256 c 128,-1,17
 363 186 363 186 312.5 135.5 c 128,-1,18
 262 85 262 85 192 85 c 128,-1,19
 122 85 122 85 71.5 135.5 c 128,-1,12
 21 186 21 186 21 256 c 128,-1,13
EndSplineSet
Ligature2: "'liga' Standard Ligatures in Latin lookup 0 subtable" f i b e r underscore s m a r t underscore r e c o r d
EndChar

StartChar: uniE063
Encoding: 57443 57443 109
Width: 512
GlyphClass: 3
Flags: W
LayerCount: 2
Fore
SplineSet
171 192 m 128,-1,1
 171 218 171 218 190 237 c 128,-1,2
 209 256 209 256 235 256 c 0,3,4
 242 256 242 256 256 252 c 1,5,-1
 256 384 l 1,6,-1
 363 384 l 1,7,-1
 363 341 l 1,8,-1
 299 341 l 1,9,-1
 299 191 l 2,10,11
 299 165 299 165 280 146.5 c 128,-1,12
 261 128 261 128 235 128 c 128,-1,13
 209 128 209 128 190 147 c 128,-1,0
 171 166 171 166 171 192 c 128,-1,1
448 107 m 1,14,-1
 448 405 l 1,15,-1
 64 405 l 1,16,-1
 64 107 l 1,17,-1
 448 107 l 1,14,-1
448 448 m 2,18,19
 465 448 465 448 478 435 c 128,-1,20
 491 422 491 422 491 405 c 2,21,-1
 491 107 l 2,22,23
 491 90 491 90 478 77 c 128,-1,24
 465 64 465 64 448 64 c 2,25,-1
 64 64 l 2,26,27
 47 64 47 64 34 77 c 128,-1,28
 21 90 21 90 21 107 c 2,29,-1
 21 405 l 2,30,31
 21 422 21 422 34 435 c 128,-1,32
 47 448 47 448 64 448 c 2,33,-1
 448 448 l 2,18,19
EndSplineSet
Ligature2: "'liga' Standard Ligatures in Latin lookup 0 subtable" m u s i c underscore v i d e o
EndChar

StartChar: uniE064
Encoding: 57444 57444 110
Width: 512
GlyphClass: 3
Flags: W
LayerCount: 2
Fore
SplineSet
341 171 m 1,0,-1
 213 240 l 1,1,-1
 213 101 l 1,2,-1
 341 171 l 1,0,-1
469 256 m 2,3,-1
 469 85 l 2,4,5
 469 68 469 68 456.5 55.5 c 128,-1,6
 444 43 444 43 427 43 c 2,7,-1
 85 43 l 2,8,9
 68 43 68 43 55.5 55.5 c 128,-1,10
 43 68 43 68 43 85 c 2,11,-1
 43 256 l 2,12,13
 43 273 43 273 55.5 286 c 128,-1,14
 68 299 68 299 85 299 c 2,15,-1
 427 299 l 2,16,17
 444 299 444 299 456.5 286 c 128,-1,18
 469 273 469 273 469 256 c 2,3,-1
384 469 m 1,19,-1
 384 427 l 1,20,-1
 128 427 l 1,21,-1
 128 469 l 1,22,-1
 384 469 l 1,19,-1
427 341 m 1,23,-1
 85 341 l 1,24,-1
 85 384 l 1,25,-1
 427 384 l 1,26,-1
 427 341 l 1,23,-1
EndSplineSet
Ligature2: "'liga' Standard Ligatures in Latin lookup 0 subtable" s u b s c r i p t i o n s
EndChar

StartChar: uniE065
Encoding: 57445 57445 111
Width: 512
GlyphClass: 3
Flags: W
LayerCount: 2
Fore
SplineSet
459 267 m 1,0,-1
 491 235 l 1,1,-1
 342 85 l 1,2,-1
 245 181 l 1,3,-1
 277 213 l 1,4,-1
 342 149 l 1,5,-1
 459 267 l 1,0,-1
43 171 m 1,6,-1
 43 213 l 1,7,-1
 213 213 l 1,8,-1
 213 171 l 1,9,-1
 43 171 l 1,6,-1
299 384 m 1,10,-1
 299 341 l 1,11,-1
 43 341 l 1,12,-1
 43 384 l 1,13,-1
 299 384 l 1,10,-1
299 299 m 1,14,-1
 299 256 l 1,15,-1
 43 256 l 1,16,-1
 43 299 l 1,17,-1
 299 299 l 1,14,-1
EndSplineSet
Ligature2: "'liga' Standard Ligatures in Latin lookup 0 subtable" p l a y l i s t underscore a d d underscore c h e c k
EndChar

StartChar: uniE066
Encoding: 57446 57446 112
Width: 512
GlyphClass: 3
Flags: W
LayerCount: 2
Fore
SplineSet
512 128 m 1,0,-1
 416 32 l 1,1,-1
 384 64 l 1,2,-1
 448 128 l 1,3,-1
 384 192 l 1,4,-1
 416 224 l 1,5,-1
 512 128 l 1,0,-1
277 299 m 1,6,-1
 341 299 l 1,7,-1
 341 256 l 1,8,-1
 277 256 l 1,9,-1
 277 192 l 1,10,-1
 235 192 l 1,11,-1
 235 256 l 1,12,-1
 171 256 l 1,13,-1
 171 299 l 1,14,-1
 235 299 l 1,15,-1
 235 363 l 1,16,-1
 277 363 l 1,17,-1
 277 299 l 1,6,-1
448 448 m 2,18,19
 465 448 465 448 478 435.5 c 128,-1,20
 491 423 491 423 491 405 c 2,21,-1
 491 235 l 1,22,-1
 448 235 l 1,23,-1
 448 405 l 1,24,-1
 64 405 l 1,25,-1
 64 149 l 1,26,-1
 384 149 l 1,27,-1
 384 107 l 1,28,-1
 341 107 l 1,29,-1
 341 64 l 1,30,-1
 171 64 l 1,31,-1
 171 107 l 1,32,-1
 64 107 l 2,33,34
 46 107 46 107 33.5 119.5 c 128,-1,35
 21 132 21 132 21 149 c 2,36,-1
 21 405 l 2,37,38
 21 423 21 423 33.5 435.5 c 128,-1,39
 46 448 46 448 64 448 c 2,40,-1
 448 448 l 2,18,19
EndSplineSet
Ligature2: "'liga' Standard Ligatures in Latin lookup 0 subtable" q u e u e underscore p l a y underscore n e x t
EndChar

StartChar: uniE067
Encoding: 57447 57447 113
Width: 512
GlyphClass: 3
Flags: W
LayerCount: 2
Fore
SplineSet
341 299 m 1,0,-1
 341 256 l 1,1,-1
 171 256 l 1,2,-1
 171 299 l 1,3,-1
 341 299 l 1,0,-1
448 149 m 1,4,-1
 448 405 l 1,5,-1
 64 405 l 1,6,-1
 64 149 l 1,7,-1
 448 149 l 1,4,-1
448 448 m 2,8,9
 465 448 465 448 478 435.5 c 128,-1,10
 491 423 491 423 491 405 c 2,11,-1
 490 149 l 2,12,13
 490 132 490 132 477.5 119.5 c 128,-1,14
 465 107 465 107 448 107 c 2,15,-1
 341 107 l 1,16,-1
 341 64 l 1,17,-1
 171 64 l 1,18,-1
 171 107 l 1,19,-1
 64 107 l 2,20,21
 46 107 46 107 33.5 119.5 c 128,-1,22
 21 132 21 132 21 149 c 2,23,-1
 21 405 l 2,24,25
 21 423 21 423 33.5 435.5 c 128,-1,26
 46 448 46 448 64 448 c 2,27,-1
 448 448 l 2,8,9
EndSplineSet
Ligature2: "'liga' Standard Ligatures in Latin lookup 0 subtable" r e m o v e underscore f r o m underscore q u e u e
EndChar

StartChar: uniE068
Encoding: 57448 57448 114
Width: 512
GlyphClass: 3
Flags: W
LayerCount: 2
Fore
SplineSet
469 256 m 128,-1,1
 469 174 469 174 414 113 c 128,-1,2
 359 52 359 52 278 44 c 1,3,-1
 278 87 l 1,4,5
 341 95 341 95 384 143.5 c 128,-1,6
 427 192 427 192 427 256 c 128,-1,7
 427 320 427 320 384 368.5 c 128,-1,8
 341 417 341 417 278 425 c 1,9,-1
 278 468 l 1,10,11
 359 460 359 460 414 399 c 128,-1,0
 469 338 469 338 469 256 c 128,-1,1
121 91 m 1,12,-1
 151 121 l 1,13,14
 188 93 188 93 235 87 c 1,15,-1
 235 44 l 1,16,17
 172 50 172 50 121 91 c 1,12,-1
87 235 m 1,18,19
 93 188 93 188 121 152 c 1,20,-1
 91 121 l 1,21,22
 50 172 50 172 44 235 c 1,23,-1
 87 235 l 1,18,19
121 361 m 1,24,25
 93 324 93 324 87 277 c 1,26,-1
 44 277 l 1,27,28
 50 340 50 340 91 391 c 1,29,-1
 121 361 l 1,24,25
235 425 m 1,30,31
 188 419 188 419 151 391 c 1,32,-1
 121 421 l 1,33,34
 172 462 172 462 235 468 c 1,35,-1
 235 425 l 1,30,31
278 303 m 1,36,-1
 341 256 l 1,37,38
 278 209 278 209 213 160 c 1,39,-1
 278 303 l 1,36,-1
EndSplineSet
Ligature2: "'liga' Standard Ligatures in Latin lookup 0 subtable" s l o w underscore m o t i o n underscore v i d e o
EndChar

StartChar: uniE069
Encoding: 57449 57449 115
Width: 512
GlyphClass: 3
Flags: W
LayerCount: 2
Fore
SplineSet
405 128 m 1,0,-1
 405 341 l 1,1,-1
 107 341 l 1,2,-1
 107 128 l 1,3,-1
 405 128 l 1,0,-1
405 427 m 2,4,5
 423 427 423 427 435.5 414 c 128,-1,6
 448 401 448 401 448 384 c 2,7,-1
 448 128 l 2,8,9
 448 111 448 111 435 98 c 128,-1,10
 422 85 422 85 405 85 c 2,11,-1
 107 85 l 2,12,13
 89 85 89 85 76.5 98 c 128,-1,14
 64 111 64 111 64 128 c 2,15,-1
 64 384 l 2,16,17
 64 401 64 401 76.5 414 c 128,-1,18
 89 427 89 427 107 427 c 2,19,-1
 405 427 l 2,4,5
EndSplineSet
Ligature2: "'liga' Standard Ligatures in Latin lookup 0 subtable" w e b underscore a s s e t
EndChar

StartChar: uniE06A
Encoding: 57450 57450 116
Width: 512
GlyphClass: 3
Flags: W
LayerCount: 2
Fore
SplineSet
427 192 m 1,0,-1
 427 320 l 1,1,-1
 400 320 l 1,2,-1
 400 245 l 1,3,-1
 347 320 l 1,4,-1
 320 320 l 1,5,-1
 320 192 l 1,6,-1
 347 192 l 1,7,-1
 347 267 l 1,8,-1
 401 192 l 1,9,-1
 427 192 l 1,0,-1
267 192 m 1,10,-1
 267 320 l 1,11,-1
 235 320 l 1,12,-1
 235 192 l 1,13,-1
 267 192 l 1,10,-1
192 267 m 2,14,-1
 192 288 l 2,15,16
 192 302 192 302 183 311 c 128,-1,17
 174 320 174 320 160 320 c 2,18,-1
 85 320 l 1,19,-1
 85 192 l 1,20,-1
 117 192 l 1,21,-1
 117 235 l 1,22,-1
 160 235 l 2,23,24
 174 235 174 235 183 244.5 c 128,-1,25
 192 254 192 254 192 267 c 2,14,-1
427 427 m 2,26,27
 445 427 445 427 457 414.5 c 128,-1,28
 469 402 469 402 469 384 c 2,29,-1
 469 128 l 2,30,31
 469 110 469 110 457 97.5 c 128,-1,32
 445 85 445 85 427 85 c 2,33,-1
 85 85 l 2,34,35
 67 85 67 85 55 97.5 c 128,-1,36
 43 110 43 110 43 128 c 2,37,-1
 43 384 l 2,38,39
 43 402 43 402 55 414.5 c 128,-1,40
 67 427 67 427 85 427 c 2,41,-1
 427 427 l 2,26,27
117 288 m 1,42,-1
 160 288 l 1,43,-1
 160 267 l 1,44,-1
 117 267 l 1,45,-1
 117 288 l 1,42,-1
EndSplineSet
Ligature2: "'liga' Standard Ligatures in Latin lookup 0 subtable" f i b e r underscore p i n
EndChar

StartChar: uniE06B
Encoding: 57451 57451 117
Width: 512
GlyphClass: 3
Flags: W
LayerCount: 2
Fore
SplineSet
448 107 m 1,0,-1
 448 235 l 1,1,-1
 256 235 l 1,2,-1
 256 107 l 1,3,-1
 448 107 l 1,0,-1
448 448 m 2,4,5
 465 448 465 448 478 435 c 128,-1,6
 491 422 491 422 491 405 c 2,7,-1
 491 107 l 2,8,9
 491 90 491 90 478 77 c 128,-1,10
 465 64 465 64 448 64 c 2,11,-1
 64 64 l 2,12,13
 47 64 47 64 34 77 c 128,-1,14
 21 90 21 90 21 107 c 2,15,-1
 21 405 l 2,16,17
 21 422 21 422 34 435 c 128,-1,18
 47 448 47 448 64 448 c 2,19,-1
 448 448 l 2,4,5
EndSplineSet
Ligature2: "'liga' Standard Ligatures in Latin lookup 0 subtable" b r a n d i n g underscore w a t e r m a r k
EndChar

StartChar: uniE06C
Encoding: 57452 57452 118
Width: 512
GlyphClass: 3
Flags: W
LayerCount: 2
Fore
SplineSet
448 107 m 1,0,-1
 448 171 l 1,1,-1
 64 171 l 1,2,-1
 64 107 l 1,3,-1
 448 107 l 1,0,-1
448 448 m 2,4,5
 465 448 465 448 478 435 c 128,-1,6
 491 422 491 422 491 405 c 2,7,-1
 491 107 l 2,8,9
 491 90 491 90 478 77 c 128,-1,10
 465 64 465 64 448 64 c 2,11,-1
 64 64 l 2,12,13
 47 64 47 64 34 77 c 128,-1,14
 21 90 21 90 21 107 c 2,15,-1
 21 405 l 2,16,17
 21 422 21 422 34 435 c 128,-1,18
 47 448 47 448 64 448 c 2,19,-1
 448 448 l 2,4,5
EndSplineSet
Ligature2: "'liga' Standard Ligatures in Latin lookup 0 subtable" c a l l underscore t o underscore a c t i o n
EndChar

StartChar: uniE06D
Encoding: 57453 57453 119
Width: 512
GlyphClass: 3
Flags: W
LayerCount: 2
Fore
SplineSet
256 363 m 1,0,-1
 256 405 l 1,1,-1
 64 405 l 1,2,-1
 64 363 l 1,3,-1
 256 363 l 1,0,-1
256 277 m 1,4,-1
 256 320 l 1,5,-1
 64 320 l 1,6,-1
 64 277 l 1,7,-1
 256 277 l 1,4,-1
448 448 m 2,8,9
 465 448 465 448 478 435 c 128,-1,10
 491 422 491 422 491 405 c 2,11,-1
 491 107 l 2,12,13
 491 90 491 90 478 77 c 128,-1,14
 465 64 465 64 448 64 c 2,15,-1
 64 64 l 2,16,17
 47 64 47 64 34 77 c 128,-1,18
 21 90 21 90 21 107 c 2,19,-1
 21 405 l 2,20,21
 21 422 21 422 34 435 c 128,-1,22
 47 448 47 448 64 448 c 2,23,-1
 448 448 l 2,8,9
EndSplineSet
Ligature2: "'liga' Standard Ligatures in Latin lookup 0 subtable" f e a t u r e d underscore p l a y underscore l i s t
EndChar

StartChar: uniE06E
Encoding: 57454 57454 120
Width: 512
GlyphClass: 3
Flags: W
LayerCount: 2
Fore
SplineSet
256 256 m 1,0,-1
 256 405 l 1,1,-1
 64 405 l 1,2,-1
 64 256 l 1,3,-1
 256 256 l 1,0,-1
448 448 m 2,4,5
 465 448 465 448 478 435 c 128,-1,6
 491 422 491 422 491 405 c 2,7,-1
 491 107 l 2,8,9
 491 90 491 90 478 77 c 128,-1,10
 465 64 465 64 448 64 c 2,11,-1
 64 64 l 2,12,13
 47 64 47 64 34 77 c 128,-1,14
 21 90 21 90 21 107 c 2,15,-1
 21 405 l 2,16,17
 21 422 21 422 34 435 c 128,-1,18
 47 448 47 448 64 448 c 2,19,-1
 448 448 l 2,4,5
EndSplineSet
Ligature2: "'liga' Standard Ligatures in Latin lookup 0 subtable" f e a t u r e d underscore v i d e o
EndChar

StartChar: uniE06F
Encoding: 57455 57455 121
Width: 512
GlyphClass: 3
Flags: W
LayerCount: 2
Fore
SplineSet
320 395 m 1,0,-1
 320 277 l 1,1,-1
 437 277 l 1,2,-1
 320 395 l 1,0,-1
469 299 m 1,3,-1
 469 128 l 2,4,5
 469 111 469 111 456.5 98.5 c 128,-1,6
 444 86 444 86 427 86 c 2,7,-1
 85 85 l 2,8,9
 68 85 68 85 55.5 98 c 128,-1,10
 43 111 43 111 43 128 c 2,11,-1
 43 384 l 2,12,13
 43 401 43 401 55.5 414 c 128,-1,14
 68 427 68 427 85 427 c 2,15,-1
 341 427 l 1,16,-1
 469 299 l 1,3,-1
EndSplineSet
Ligature2: "'liga' Standard Ligatures in Latin lookup 0 subtable" n o t e
EndChar

StartChar: uniE070
Encoding: 57456 57456 122
Width: 512
GlyphClass: 3
Flags: W
LayerCount: 2
Fore
SplineSet
299 235 m 1,0,-1
 299 277 l 1,1,-1
 235 277 l 1,2,-1
 235 341 l 1,3,-1
 192 341 l 1,4,-1
 192 277 l 1,5,-1
 128 277 l 1,6,-1
 128 235 l 1,7,-1
 192 235 l 1,8,-1
 192 171 l 1,9,-1
 235 171 l 1,10,-1
 235 235 l 1,11,-1
 299 235 l 1,0,-1
363 288 m 1,12,-1
 448 373 l 1,13,-1
 448 139 l 1,14,-1
 363 224 l 1,15,-1
 363 149 l 2,16,17
 363 140 363 140 356.5 134 c 128,-1,18
 350 128 350 128 341 128 c 2,19,-1
 85 128 l 2,20,21
 76 128 76 128 70 134 c 128,-1,22
 64 140 64 140 64 149 c 2,23,-1
 64 363 l 2,24,25
 64 372 64 372 70 378 c 128,-1,26
 76 384 76 384 85 384 c 2,27,-1
 341 384 l 2,28,29
 350 384 350 384 356.5 378 c 128,-1,30
 363 372 363 372 363 363 c 2,31,-1
 363 288 l 1,12,-1
EndSplineSet
Ligature2: "'liga' Standard Ligatures in Latin lookup 0 subtable" v i d e o underscore c a l l
EndChar

StartChar: uniE071
Encoding: 57457 57457 123
Width: 512
GlyphClass: 3
Flags: W
LayerCount: 2
Fore
SplineSet
448 171 m 1,0,-1
 448 405 l 1,1,-1
 64 405 l 1,2,-1
 64 171 l 1,3,-1
 448 171 l 1,0,-1
448 448 m 2,4,5
 465 448 465 448 478 435 c 128,-1,6
 491 422 491 422 491 405 c 2,7,-1
 491 107 l 2,8,9
 491 90 491 90 478 77 c 128,-1,10
 465 64 465 64 448 64 c 2,11,-1
 64 64 l 2,12,13
 47 64 47 64 34 77 c 128,-1,14
 21 90 21 90 21 107 c 2,15,-1
 21 405 l 2,16,17
 21 422 21 422 34 435 c 128,-1,18
 47 448 47 448 64 448 c 2,19,-1
 448 448 l 2,4,5
EndSplineSet
Ligature2: "'liga' Standard Ligatures in Latin lookup 0 subtable" v i d e o underscore l a b e l
EndChar

StartChar: uniE0AF
Encoding: 57519 57519 124
Width: 512
GlyphClass: 3
Flags: W
LayerCount: 2
Fore
SplineSet
384 192 m 1,0,-1
 384 149 l 1,1,-1
 341 149 l 1,2,-1
 341 192 l 1,3,-1
 384 192 l 1,0,-1
384 277 m 1,4,-1
 384 235 l 1,5,-1
 341 235 l 1,6,-1
 341 277 l 1,7,-1
 384 277 l 1,4,-1
427 107 m 1,8,-1
 427 320 l 1,9,-1
 256 320 l 1,10,-1
 256 277 l 1,11,-1
 299 277 l 1,12,-1
 299 235 l 1,13,-1
 256 235 l 1,14,-1
 256 192 l 1,15,-1
 299 192 l 1,16,-1
 299 149 l 1,17,-1
 256 149 l 1,18,-1
 256 107 l 1,19,-1
 427 107 l 1,8,-1
213 363 m 1,20,-1
 213 405 l 1,21,-1
 171 405 l 1,22,-1
 171 363 l 1,23,-1
 213 363 l 1,20,-1
213 277 m 1,24,-1
 213 320 l 1,25,-1
 171 320 l 1,26,-1
 171 277 l 1,27,-1
 213 277 l 1,24,-1
213 192 m 1,28,-1
 213 235 l 1,29,-1
 171 235 l 1,30,-1
 171 192 l 1,31,-1
 213 192 l 1,28,-1
213 107 m 1,32,-1
 213 149 l 1,33,-1
 171 149 l 1,34,-1
 171 107 l 1,35,-1
 213 107 l 1,32,-1
128 363 m 1,36,-1
 128 405 l 1,37,-1
 85 405 l 1,38,-1
 85 363 l 1,39,-1
 128 363 l 1,36,-1
128 277 m 1,40,-1
 128 320 l 1,41,-1
 85 320 l 1,42,-1
 85 277 l 1,43,-1
 128 277 l 1,40,-1
128 192 m 1,44,-1
 128 235 l 1,45,-1
 85 235 l 1,46,-1
 85 192 l 1,47,-1
 128 192 l 1,44,-1
128 107 m 1,48,-1
 128 149 l 1,49,-1
 85 149 l 1,50,-1
 85 107 l 1,51,-1
 128 107 l 1,48,-1
256 363 m 1,52,-1
 469 363 l 1,53,-1
 469 64 l 1,54,-1
 43 64 l 1,55,-1
 43 448 l 1,56,-1
 256 448 l 1,57,-1
 256 363 l 1,52,-1
EndSplineSet
Ligature2: "'liga' Standard Ligatures in Latin lookup 0 subtable" b u s i n e s s
EndChar

StartChar: uniE0B0
Encoding: 57520 57520 125
Width: 512
GlyphClass: 3
Flags: W
LayerCount: 2
Fore
SplineSet
141 282 m 1,0,1
 189 189 189 189 282 141 c 1,2,-1
 329 188 l 2,3,4
 339 198 339 198 351 193 c 0,5,6
 387 181 387 181 427 181 c 0,7,8
 436 181 436 181 442 175 c 128,-1,9
 448 169 448 169 448 160 c 2,10,-1
 448 85 l 2,11,12
 448 76 448 76 442 70 c 128,-1,13
 436 64 436 64 427 64 c 0,14,15
 277 64 277 64 170.5 170.5 c 128,-1,16
 64 277 64 277 64 427 c 0,17,18
 64 436 64 436 70 442 c 128,-1,19
 76 448 76 448 85 448 c 2,20,-1
 160 448 l 2,21,22
 169 448 169 448 175 442 c 128,-1,23
 181 436 181 436 181 427 c 0,24,25
 181 387 181 387 193 351 c 0,26,27
 197 338 197 338 188 329 c 2,28,-1
 141 282 l 1,0,1
EndSplineSet
Ligature2: "'liga' Standard Ligatures in Latin lookup 0 subtable" c a l l
EndChar

StartChar: uniE0B1
Encoding: 57521 57521 126
Width: 512
GlyphClass: 3
Flags: W
LayerCount: 2
Fore
SplineSet
256 320 m 0,0,1
 204 320 204 320 158 305 c 1,2,-1
 158 239 l 2,3,4
 158 224 158 224 146 219 c 0,5,6
 114 204 114 204 89 180 c 0,7,8
 83 174 83 174 74 174 c 128,-1,9
 65 174 65 174 59 180 c 2,10,-1
 6 233 l 2,11,12
 0 239 0 239 0 248 c 128,-1,13
 0 257 0 257 6 263 c 0,14,15
 111 363 111 363 256 363 c 128,-1,16
 401 363 401 363 506 263 c 0,17,18
 512 257 512 257 512 248 c 128,-1,19
 512 239 512 239 506 233 c 2,20,-1
 453 180 l 2,21,22
 447 174 447 174 438 174 c 128,-1,23
 429 174 429 174 423 180 c 0,24,25
 398 204 398 204 366 219 c 0,26,27
 354 224 354 224 354 238 c 2,28,-1
 354 304 l 1,29,30
 304 320 304 320 256 320 c 0,0,1
EndSplineSet
Ligature2: "'liga' Standard Ligatures in Latin lookup 0 subtable" c a l l underscore e n d
EndChar

StartChar: uniE0B2
Encoding: 57522 57522 127
Width: 512
GlyphClass: 3
Flags: W
LayerCount: 2
Fore
SplineSet
192 405 m 1,0,-1
 405 405 l 1,1,-1
 405 192 l 1,2,-1
 363 192 l 1,3,-1
 363 333 l 1,4,-1
 115 85 l 1,5,-1
 85 115 l 1,6,-1
 333 363 l 1,7,-1
 192 363 l 1,8,-1
 192 405 l 1,0,-1
EndSplineSet
Ligature2: "'liga' Standard Ligatures in Latin lookup 0 subtable" c a l l underscore m a d e
EndChar

StartChar: uniE0B3
Encoding: 57523 57523 128
Width: 512
GlyphClass: 3
Flags: W
LayerCount: 2
Fore
SplineSet
160 341 m 1,0,-1
 256 437 l 1,1,-1
 352 341 l 1,2,-1
 277 341 l 1,3,-1
 277 205 l 1,4,-1
 149 77 l 1,5,-1
 119 107 l 1,6,-1
 235 222 l 1,7,-1
 235 341 l 1,8,-1
 160 341 l 1,0,-1
363 77 m 1,9,-1
 290 149 l 1,10,-1
 320 179 l 1,11,-1
 393 107 l 1,12,-1
 363 77 l 1,9,-1
EndSplineSet
Ligature2: "'liga' Standard Ligatures in Latin lookup 0 subtable" c a l l underscore m e r g e
EndChar

StartChar: uniE0B4
Encoding: 57524 57524 129
Width: 512
GlyphClass: 3
Flags: W
LayerCount: 2
Fore
SplineSet
418 363 m 1,0,-1
 448 333 l 1,1,-1
 256 141 l 1,2,-1
 107 290 l 1,3,-1
 107 192 l 1,4,-1
 64 192 l 1,5,-1
 64 363 l 1,6,-1
 235 363 l 1,7,-1
 235 320 l 1,8,-1
 137 320 l 1,9,-1
 256 201 l 1,10,-1
 418 363 l 1,0,-1
EndSplineSet
Ligature2: "'liga' Standard Ligatures in Latin lookup 0 subtable" c a l l underscore m i s s e d
EndChar

StartChar: uniE0B5
Encoding: 57525 57525 130
Width: 512
GlyphClass: 3
Flags: W
LayerCount: 2
Fore
SplineSet
427 397 m 1,0,-1
 179 149 l 1,1,-1
 320 149 l 1,2,-1
 320 107 l 1,3,-1
 107 107 l 1,4,-1
 107 320 l 1,5,-1
 149 320 l 1,6,-1
 149 179 l 1,7,-1
 397 427 l 1,8,-1
 427 397 l 1,0,-1
EndSplineSet
Ligature2: "'liga' Standard Ligatures in Latin lookup 0 subtable" c a l l underscore r e c e i v e d
EndChar

StartChar: uniE0B6
Encoding: 57526 57526 131
Width: 512
GlyphClass: 3
Flags: W
LayerCount: 2
Fore
SplineSet
213 427 m 1,0,-1
 164 378 l 1,1,-1
 277 265 l 1,2,-1
 277 85 l 1,3,-1
 235 85 l 1,4,-1
 235 247 l 1,5,-1
 134 348 l 1,6,-1
 85 299 l 1,7,-1
 85 427 l 1,8,-1
 213 427 l 1,0,-1
299 427 m 1,9,-1
 427 427 l 1,10,-1
 427 299 l 1,11,-1
 378 348 l 1,12,-1
 316 286 l 1,13,-1
 286 316 l 1,14,-1
 348 378 l 1,15,-1
 299 427 l 1,9,-1
EndSplineSet
Ligature2: "'liga' Standard Ligatures in Latin lookup 0 subtable" c a l l underscore s p l i t
EndChar

StartChar: uniE0B7
Encoding: 57527 57527 132
Width: 512
GlyphClass: 3
Flags: W
LayerCount: 2
Fore
SplineSet
384 341 m 1,0,-1
 384 384 l 1,1,-1
 128 384 l 1,2,-1
 128 341 l 1,3,-1
 384 341 l 1,0,-1
299 213 m 1,4,-1
 299 256 l 1,5,-1
 128 256 l 1,6,-1
 128 213 l 1,7,-1
 299 213 l 1,4,-1
128 320 m 1,8,-1
 128 277 l 1,9,-1
 384 277 l 1,10,-1
 384 320 l 1,11,-1
 128 320 l 1,8,-1
427 469 m 2,12,13
 444 469 444 469 456.5 456.5 c 128,-1,14
 469 444 469 444 469 427 c 2,15,-1
 469 171 l 2,16,17
 469 154 469 154 456.5 141 c 128,-1,18
 444 128 444 128 427 128 c 2,19,-1
 128 128 l 1,20,-1
 43 43 l 1,21,-1
 43 427 l 2,22,23
 43 444 43 444 55.5 456.5 c 128,-1,24
 68 469 68 469 85 469 c 2,25,-1
 427 469 l 2,12,13
EndSplineSet
Ligature2: "'liga' Standard Ligatures in Latin lookup 0 subtable" c h a t
EndChar

StartChar: uniE0B8
Encoding: 57528 57528 133
Width: 512
GlyphClass: 3
Flags: W
LayerCount: 2
Fore
SplineSet
149 363 m 1,0,-1
 448 363 l 1,1,-1
 448 320 l 1,2,-1
 149 320 l 1,3,-1
 149 363 l 1,0,-1
64 149 m 1,4,-1
 64 192 l 1,5,-1
 363 192 l 1,6,-1
 363 149 l 1,7,-1
 64 149 l 1,4,-1
107 235 m 1,8,-1
 107 277 l 1,9,-1
 405 277 l 1,10,-1
 405 235 l 1,11,-1
 107 235 l 1,8,-1
EndSplineSet
Ligature2: "'liga' Standard Ligatures in Latin lookup 0 subtable" c l e a r underscore a l l
EndChar

StartChar: uniE0B9
Encoding: 57529 57529 134
Width: 512
GlyphClass: 3
Flags: W
LayerCount: 2
Fore
SplineSet
384 341 m 1,0,-1
 384 384 l 1,1,-1
 128 384 l 1,2,-1
 128 341 l 1,3,-1
 384 341 l 1,0,-1
384 277 m 1,4,-1
 384 320 l 1,5,-1
 128 320 l 1,6,-1
 128 277 l 1,7,-1
 384 277 l 1,4,-1
384 213 m 1,8,-1
 384 256 l 1,9,-1
 128 256 l 1,10,-1
 128 213 l 1,11,-1
 384 213 l 1,8,-1
469 427 m 2,12,-1
 469 43 l 1,13,-1
 384 128 l 1,14,-1
 85 128 l 2,15,16
 68 128 68 128 55.5 141 c 128,-1,17
 43 154 43 154 43 171 c 2,18,-1
 43 427 l 2,19,20
 43 444 43 444 55.5 456.5 c 128,-1,21
 68 469 68 469 85 469 c 2,22,-1
 427 469 l 2,23,24
 444 469 444 469 456.5 456.5 c 128,-1,25
 469 444 469 444 469 427 c 2,12,-1
EndSplineSet
Ligature2: "'liga' Standard Ligatures in Latin lookup 0 subtable" c o m m e n t
EndChar

StartChar: uniE0BA
Encoding: 57530 57530 135
Width: 512
GlyphClass: 3
Flags: W
LayerCount: 2
Fore
SplineSet
363 149 m 1,0,-1
 363 181 l 2,1,2
 363 205 363 205 326.5 220 c 128,-1,3
 290 235 290 235 256 235 c 128,-1,4
 222 235 222 235 185.5 220 c 128,-1,5
 149 205 149 205 149 181 c 2,6,-1
 149 149 l 1,7,-1
 363 149 l 1,0,-1
256 368 m 128,-1,9
 236 368 236 368 222 354 c 128,-1,10
 208 340 208 340 208 320 c 128,-1,11
 208 300 208 300 222 286 c 128,-1,12
 236 272 236 272 256 272 c 128,-1,13
 276 272 276 272 290 286 c 128,-1,14
 304 300 304 300 304 320 c 128,-1,15
 304 340 304 340 290 354 c 128,-1,8
 276 368 276 368 256 368 c 128,-1,9
427 427 m 2,16,17
 444 427 444 427 456.5 414 c 128,-1,18
 469 401 469 401 469 384 c 2,19,-1
 469 128 l 2,20,21
 469 111 469 111 456.5 98 c 128,-1,22
 444 85 444 85 427 85 c 2,23,-1
 85 85 l 2,24,25
 68 85 68 85 55.5 98 c 128,-1,26
 43 111 43 111 43 128 c 2,27,-1
 43 384 l 2,28,29
 43 401 43 401 55.5 414 c 128,-1,30
 68 427 68 427 85 427 c 2,31,-1
 427 427 l 2,16,17
85 0 m 1,32,-1
 85 43 l 1,33,-1
 427 43 l 1,34,-1
 427 0 l 1,35,-1
 85 0 l 1,32,-1
427 512 m 1,36,-1
 427 469 l 1,37,-1
 85 469 l 1,38,-1
 85 512 l 1,39,-1
 427 512 l 1,36,-1
EndSplineSet
Ligature2: "'liga' Standard Ligatures in Latin lookup 0 subtable" c o n t a c t s
EndChar

StartChar: uniE0BB
Encoding: 57531 57531 136
Width: 512
GlyphClass: 3
Flags: W
LayerCount: 2
Fore
SplineSet
427 181 m 0,0,1
 436 181 436 181 442 175 c 128,-1,2
 448 169 448 169 448 160 c 2,3,-1
 448 85 l 2,4,5
 448 76 448 76 442 70 c 128,-1,6
 436 64 436 64 427 64 c 0,7,8
 277 64 277 64 170.5 170.5 c 128,-1,9
 64 277 64 277 64 427 c 0,10,11
 64 436 64 436 70 442 c 128,-1,12
 76 448 76 448 85 448 c 2,13,-1
 160 448 l 2,14,15
 169 448 169 448 175 442 c 128,-1,16
 181 436 181 436 181 427 c 0,17,18
 181 387 181 387 193 351 c 0,19,20
 197 338 197 338 188 329 c 2,21,-1
 141 282 l 1,22,23
 188 190 188 190 282 141 c 1,24,-1
 329 188 l 2,25,26
 338 197 338 197 351 193 c 0,27,28
 387 181 387 181 427 181 c 0,0,1
427 405 m 1,29,-1
 427 427 l 1,30,-1
 405 427 l 1,31,-1
 405 405 l 1,32,-1
 427 405 l 1,29,-1
384 448 m 1,33,-1
 448 448 l 1,34,-1
 448 384 l 1,35,-1
 405 384 l 1,36,-1
 405 341 l 1,37,-1
 384 341 l 1,38,-1
 384 448 l 1,33,-1
320 405 m 1,39,-1
 320 341 l 1,40,-1
 256 341 l 1,41,-1
 256 363 l 1,42,-1
 299 363 l 1,43,-1
 299 384 l 1,44,-1
 256 384 l 1,45,-1
 256 448 l 1,46,-1
 320 448 l 1,47,-1
 320 427 l 1,48,-1
 277 427 l 1,49,-1
 277 405 l 1,50,-1
 320 405 l 1,39,-1
363 448 m 1,51,-1
 363 341 l 1,52,-1
 341 341 l 1,53,-1
 341 448 l 1,54,-1
 363 448 l 1,51,-1
EndSplineSet
Ligature2: "'liga' Standard Ligatures in Latin lookup 0 subtable" d i a l e r underscore s i p
EndChar

StartChar: uniE0BC
Encoding: 57532 57532 137
Width: 512
GlyphClass: 3
Flags: W
LayerCount: 2
Fore
SplineSet
256 491 m 128,-1,1
 273 491 273 491 286 478 c 128,-1,2
 299 465 299 465 299 448 c 128,-1,3
 299 431 299 431 286 418 c 128,-1,4
 273 405 273 405 256 405 c 128,-1,5
 239 405 239 405 226 418 c 128,-1,6
 213 431 213 431 213 448 c 128,-1,7
 213 465 213 465 226 478 c 128,-1,0
 239 491 239 491 256 491 c 128,-1,1
256 363 m 128,-1,9
 273 363 273 363 286 350 c 128,-1,10
 299 337 299 337 299 320 c 128,-1,11
 299 303 299 303 286 290 c 128,-1,12
 273 277 273 277 256 277 c 128,-1,13
 239 277 239 277 226 290 c 128,-1,14
 213 303 213 303 213 320 c 128,-1,15
 213 337 213 337 226 350 c 128,-1,8
 239 363 239 363 256 363 c 128,-1,9
384 363 m 128,-1,17
 401 363 401 363 414 350 c 128,-1,18
 427 337 427 337 427 320 c 128,-1,19
 427 303 427 303 414 290 c 128,-1,20
 401 277 401 277 384 277 c 128,-1,21
 367 277 367 277 354 290 c 128,-1,22
 341 303 341 303 341 320 c 128,-1,23
 341 337 341 337 354 350 c 128,-1,16
 367 363 367 363 384 363 c 128,-1,17
384 235 m 128,-1,25
 401 235 401 235 414 222 c 128,-1,26
 427 209 427 209 427 192 c 128,-1,27
 427 175 427 175 414 162 c 128,-1,28
 401 149 401 149 384 149 c 128,-1,29
 367 149 367 149 354 162 c 128,-1,30
 341 175 341 175 341 192 c 128,-1,31
 341 209 341 209 354 222 c 128,-1,24
 367 235 367 235 384 235 c 128,-1,25
256 235 m 128,-1,33
 273 235 273 235 286 222 c 128,-1,34
 299 209 299 209 299 192 c 128,-1,35
 299 175 299 175 286 162 c 128,-1,36
 273 149 273 149 256 149 c 128,-1,37
 239 149 239 149 226 162 c 128,-1,38
 213 175 213 175 213 192 c 128,-1,39
 213 209 213 209 226 222 c 128,-1,32
 239 235 239 235 256 235 c 128,-1,33
384 405 m 128,-1,41
 367 405 367 405 354 418 c 128,-1,42
 341 431 341 431 341 448 c 128,-1,43
 341 465 341 465 354 478 c 128,-1,44
 367 491 367 491 384 491 c 128,-1,45
 401 491 401 491 414 478 c 128,-1,46
 427 465 427 465 427 448 c 128,-1,47
 427 431 427 431 414 418 c 128,-1,40
 401 405 401 405 384 405 c 128,-1,41
128 235 m 128,-1,49
 145 235 145 235 158 222 c 128,-1,50
 171 209 171 209 171 192 c 128,-1,51
 171 175 171 175 158 162 c 128,-1,52
 145 149 145 149 128 149 c 128,-1,53
 111 149 111 149 98 162 c 128,-1,54
 85 175 85 175 85 192 c 128,-1,55
 85 209 85 209 98 222 c 128,-1,48
 111 235 111 235 128 235 c 128,-1,49
128 363 m 128,-1,57
 145 363 145 363 158 350 c 128,-1,58
 171 337 171 337 171 320 c 128,-1,59
 171 303 171 303 158 290 c 128,-1,60
 145 277 145 277 128 277 c 128,-1,61
 111 277 111 277 98 290 c 128,-1,62
 85 303 85 303 85 320 c 128,-1,63
 85 337 85 337 98 350 c 128,-1,56
 111 363 111 363 128 363 c 128,-1,57
128 491 m 128,-1,65
 145 491 145 491 158 478 c 128,-1,66
 171 465 171 465 171 448 c 128,-1,67
 171 431 171 431 158 418 c 128,-1,68
 145 405 145 405 128 405 c 128,-1,69
 111 405 111 405 98 418 c 128,-1,70
 85 431 85 431 85 448 c 128,-1,71
 85 465 85 465 98 478 c 128,-1,64
 111 491 111 491 128 491 c 128,-1,65
256 107 m 128,-1,73
 273 107 273 107 286 94 c 128,-1,74
 299 81 299 81 299 64 c 128,-1,75
 299 47 299 47 286 34 c 128,-1,76
 273 21 273 21 256 21 c 128,-1,77
 239 21 239 21 226 34 c 128,-1,78
 213 47 213 47 213 64 c 128,-1,79
 213 81 213 81 226 94 c 128,-1,72
 239 107 239 107 256 107 c 128,-1,73
EndSplineSet
Ligature2: "'liga' Standard Ligatures in Latin lookup 0 subtable" d i a l p a d
EndChar

StartChar: uniE0BE
Encoding: 57534 57534 138
Width: 512
GlyphClass: 3
Flags: W
LayerCount: 2
Fore
SplineSet
427 341 m 1,0,-1
 427 384 l 1,1,-1
 256 277 l 1,2,-1
 85 384 l 1,3,-1
 85 341 l 1,4,-1
 256 235 l 1,5,-1
 427 341 l 1,0,-1
427 427 m 2,6,7
 444 427 444 427 456.5 414 c 128,-1,8
 469 401 469 401 469 384 c 2,9,-1
 469 128 l 2,10,11
 469 111 469 111 456.5 98 c 128,-1,12
 444 85 444 85 427 85 c 2,13,-1
 85 85 l 2,14,15
 68 85 68 85 55.5 98 c 128,-1,16
 43 111 43 111 43 128 c 2,17,-1
 43 384 l 2,18,19
 43 401 43 401 55.5 414 c 128,-1,20
 68 427 68 427 85 427 c 2,21,-1
 427 427 l 2,6,7
EndSplineSet
Ligature2: "'liga' Standard Ligatures in Latin lookup 0 subtable" e m a i l
EndChar

StartChar: uniE0BF
Encoding: 57535 57535 139
Width: 512
GlyphClass: 3
Flags: W
LayerCount: 2
Fore
SplineSet
363 256 m 2,0,1
 363 247 363 247 356.5 241 c 128,-1,2
 350 235 350 235 341 235 c 2,3,-1
 128 235 l 1,4,-1
 43 149 l 1,5,-1
 43 448 l 2,6,7
 43 457 43 457 49 463 c 128,-1,8
 55 469 55 469 64 469 c 2,9,-1
 341 469 l 2,10,11
 350 469 350 469 356.5 463 c 128,-1,12
 363 457 363 457 363 448 c 2,13,-1
 363 256 l 2,0,1
448 384 m 2,14,15
 457 384 457 384 463 378 c 128,-1,16
 469 372 469 372 469 363 c 2,17,-1
 469 43 l 1,18,-1
 384 128 l 1,19,-1
 149 128 l 2,20,21
 140 128 140 128 134 134 c 128,-1,22
 128 140 128 140 128 149 c 2,23,-1
 128 192 l 1,24,-1
 405 192 l 1,25,-1
 405 384 l 1,26,-1
 448 384 l 2,14,15
EndSplineSet
Ligature2: "'liga' Standard Ligatures in Latin lookup 0 subtable" f o r u m
EndChar

StartChar: uniE0C3
Encoding: 57539 57539 140
Width: 512
GlyphClass: 3
Flags: W
LayerCount: 2
Fore
SplineSet
341 149 m 1,0,-1
 405 149 l 1,1,-1
 320 64 l 1,2,-1
 235 149 l 1,3,-1
 299 149 l 1,4,-1
 299 299 l 1,5,-1
 341 299 l 1,6,-1
 341 149 l 1,0,-1
192 448 m 1,7,-1
 277 363 l 1,8,-1
 213 363 l 1,9,-1
 213 213 l 1,10,-1
 171 213 l 1,11,-1
 171 363 l 1,12,-1
 107 363 l 1,13,-1
 192 448 l 1,7,-1
EndSplineSet
Ligature2: "'liga' Standard Ligatures in Latin lookup 0 subtable" i m p o r t underscore e x p o r t
EndChar

StartChar: uniE0C4
Encoding: 57540 57540 141
Width: 512
GlyphClass: 3
Flags: W
LayerCount: 2
Fore
SplineSet
256 403 m 1,0,-1
 207 355 l 1,1,-1
 177 385 l 1,2,-1
 256 464 l 1,3,-1
 377 343 l 2,4,5
 415 305 415 305 424 251.5 c 128,-1,6
 433 198 433 198 411 151 c 1,7,-1
 256 305 l 1,8,-1
 256 403 l 1,0,-1
256 94 m 1,9,-1
 256 197 l 1,10,-1
 154 299 l 1,11,12
 128 265 128 265 128 222 c 0,13,14
 128 170 128 170 166 132 c 128,-1,15
 204 94 204 94 256 94 c 1,9,-1
441 67 m 1,16,-1
 448 59 l 1,17,-1
 421 32 l 1,18,-1
 363 90 l 1,19,20
 316 52 316 52 256 52 c 0,21,22
 185 52 185 52 135 102 c 0,23,24
 89 149 89 149 85.5 214.5 c 128,-1,25
 82 280 82 280 123 330 c 1,26,-1
 64 389 l 1,27,-1
 91 416 l 1,28,29
 390 117 390 117 441 67 c 1,16,-1
EndSplineSet
Ligature2: "'liga' Standard Ligatures in Latin lookup 0 subtable" i n v e r t underscore c o l o r s underscore o f f
EndChar

StartChar: uniE0C6
Encoding: 57542 57542 142
Width: 512
GlyphClass: 3
Flags: W
LayerCount: 2
Fore
SplineSet
321 293 m 2,0,1
 341 313 341 313 341 341 c 0,2,3
 341 376 341 376 316 401.5 c 128,-1,4
 291 427 291 427 256 427 c 128,-1,5
 221 427 221 427 196 401.5 c 128,-1,6
 171 376 171 376 171 341 c 1,7,-1
 213 341 l 1,8,9
 213 358 213 358 226 371 c 128,-1,10
 239 384 239 384 256 384 c 128,-1,11
 273 384 273 384 286 371 c 128,-1,12
 299 358 299 358 299 341 c 128,-1,13
 299 324 299 324 286 311 c 2,14,-1
 260 284 l 2,15,16
 235 257 235 257 235 224 c 2,17,-1
 235 213 l 1,18,-1
 277 213 l 1,19,20
 277 247 277 247 302 274 c 2,21,-1
 321 293 l 2,0,1
277 128 m 1,22,-1
 277 171 l 1,23,-1
 235 171 l 1,24,-1
 235 128 l 1,25,-1
 277 128 l 1,22,-1
405 469 m 2,26,27
 422 469 422 469 435 456.5 c 128,-1,28
 448 444 448 444 448 427 c 2,29,-1
 448 128 l 2,30,31
 448 111 448 111 435 98 c 128,-1,32
 422 85 422 85 405 85 c 2,33,-1
 320 85 l 1,34,-1
 256 21 l 1,35,-1
 192 85 l 1,36,-1
 107 85 l 2,37,38
 89 85 89 85 76.5 98 c 128,-1,39
 64 111 64 111 64 128 c 2,40,-1
 64 427 l 2,41,42
 64 444 64 444 76.5 456.5 c 128,-1,43
 89 469 89 469 107 469 c 2,44,-1
 405 469 l 2,26,27
EndSplineSet
Ligature2: "'liga' Standard Ligatures in Latin lookup 0 subtable" l i v e underscore h e l p
EndChar

StartChar: uniE0C7
Encoding: 57543 57543 143
Width: 512
GlyphClass: 3
Flags: W
LayerCount: 2
Fore
SplineSet
250 267 m 1,0,1
 359 159 359 159 427 91 c 1,2,-1
 400 64 l 1,3,-1
 328 135 l 1,4,5
 312 111 312 111 294 88 c 128,-1,6
 276 65 276 65 266 54 c 2,7,-1
 256 43 l 1,8,9
 250 50 250 50 240 61.5 c 128,-1,10
 230 73 230 73 204 107.5 c 128,-1,11
 178 142 178 142 158.5 174.5 c 128,-1,12
 139 207 139 207 123 248 c 128,-1,13
 107 289 107 289 107 320 c 0,14,15
 107 331 107 331 111 353 c 1,16,-1
 43 421 l 1,17,-1
 70 448 l 1,18,-1
 248 270 l 1,19,-1
 250 267 l 1,0,1
256 373 m 0,20,21
 233 373 233 373 217 355 c 1,22,-1
 148 423 l 1,23,24
 192 469 192 469 256 469 c 0,25,26
 318 469 318 469 361.5 425.5 c 128,-1,27
 405 382 405 382 405 320 c 0,28,29
 405 272 405 272 369 203 c 1,30,-1
 292 281 l 1,31,32
 309 296 309 296 309 320 c 0,33,34
 309 342 309 342 293.5 357.5 c 128,-1,35
 278 373 278 373 256 373 c 0,20,21
EndSplineSet
Ligature2: "'liga' Standard Ligatures in Latin lookup 0 subtable" l o c a t i o n underscore o f f
EndChar

StartChar: uniE0C8
Encoding: 57544 57544 144
Width: 512
GlyphClass: 3
Flags: W
LayerCount: 2
Fore
SplineSet
256 267 m 128,-1,1
 278 267 278 267 293.5 282.5 c 128,-1,2
 309 298 309 298 309 320 c 128,-1,3
 309 342 309 342 293.5 357.5 c 128,-1,4
 278 373 278 373 256 373 c 128,-1,5
 234 373 234 373 218.5 357.5 c 128,-1,6
 203 342 203 342 203 320 c 128,-1,7
 203 298 203 298 218.5 282.5 c 128,-1,0
 234 267 234 267 256 267 c 128,-1,1
256 469 m 128,-1,9
 318 469 318 469 361.5 425.5 c 128,-1,10
 405 382 405 382 405 320 c 0,11,12
 405 289 405 289 389.5 249 c 128,-1,13
 374 209 374 209 352 174 c 128,-1,14
 330 139 330 139 308.5 108.5 c 128,-1,15
 287 78 287 78 272 60 c 2,16,-1
 256 43 l 1,17,18
 250 50 250 50 240 61.5 c 128,-1,19
 230 73 230 73 204 107.5 c 128,-1,20
 178 142 178 142 158.5 174.5 c 128,-1,21
 139 207 139 207 123 248 c 128,-1,22
 107 289 107 289 107 320 c 0,23,24
 107 382 107 382 150.5 425.5 c 128,-1,8
 194 469 194 469 256 469 c 128,-1,9
EndSplineSet
Ligature2: "'liga' Standard Ligatures in Latin lookup 0 subtable" l o c a t i o n underscore o n
EndChar

StartChar: uniE0C9
Encoding: 57545 57545 145
Width: 512
GlyphClass: 3
Flags: W
LayerCount: 2
Fore
SplineSet
384 341 m 1,0,-1
 384 384 l 1,1,-1
 128 384 l 1,2,-1
 128 341 l 1,3,-1
 384 341 l 1,0,-1
384 277 m 1,4,-1
 384 320 l 1,5,-1
 128 320 l 1,6,-1
 128 277 l 1,7,-1
 384 277 l 1,4,-1
384 213 m 1,8,-1
 384 256 l 1,9,-1
 128 256 l 1,10,-1
 128 213 l 1,11,-1
 384 213 l 1,8,-1
427 469 m 2,12,13
 444 469 444 469 456.5 456.5 c 128,-1,14
 469 444 469 444 469 427 c 2,15,-1
 469 171 l 2,16,17
 469 154 469 154 456.5 141 c 128,-1,18
 444 128 444 128 427 128 c 2,19,-1
 128 128 l 1,20,-1
 43 43 l 1,21,-1
 43 427 l 2,22,23
 43 444 43 444 55.5 456.5 c 128,-1,24
 68 469 68 469 85 469 c 2,25,-1
 427 469 l 2,12,13
EndSplineSet
Ligature2: "'liga' Standard Ligatures in Latin lookup 0 subtable" m e s s a g e
EndChar

StartChar: uniE0CA
Encoding: 57546 57546 146
Width: 512
GlyphClass: 3
Flags: W
LayerCount: 2
Fore
SplineSet
427 469 m 2,0,1
 444 469 444 469 456.5 456.5 c 128,-1,2
 469 444 469 444 469 427 c 2,3,-1
 469 171 l 2,4,5
 469 154 469 154 456.5 141 c 128,-1,6
 444 128 444 128 427 128 c 2,7,-1
 128 128 l 1,8,-1
 43 43 l 1,9,-1
 43 427 l 2,10,11
 43 444 43 444 55.5 456.5 c 128,-1,12
 68 469 68 469 85 469 c 2,13,-1
 427 469 l 2,0,1
EndSplineSet
Ligature2: "'liga' Standard Ligatures in Latin lookup 0 subtable" m e s s e n g e r
Ligature2: "'liga' Standard Ligatures in Latin lookup 0 subtable" c h a t underscore b u b b l e
EndChar

StartChar: uniE0CB
Encoding: 57547 57547 147
Width: 512
GlyphClass: 3
Flags: W
LayerCount: 2
Fore
SplineSet
427 171 m 1,0,-1
 427 427 l 1,1,-1
 85 427 l 1,2,-1
 85 128 l 1,3,-1
 128 171 l 1,4,-1
 427 171 l 1,0,-1
427 469 m 2,5,6
 444 469 444 469 456.5 456.5 c 128,-1,7
 469 444 469 444 469 427 c 2,8,-1
 469 171 l 2,9,10
 469 154 469 154 456.5 141 c 128,-1,11
 444 128 444 128 427 128 c 2,12,-1
 128 128 l 1,13,-1
 43 43 l 1,14,-1
 43 427 l 2,15,16
 43 444 43 444 55.5 456.5 c 128,-1,17
 68 469 68 469 85 469 c 2,18,-1
 427 469 l 2,5,6
EndSplineSet
Ligature2: "'liga' Standard Ligatures in Latin lookup 0 subtable" m e s s e n g e r underscore o u t l i n e
Ligature2: "'liga' Standard Ligatures in Latin lookup 0 subtable" c h a t underscore b u b b l e underscore o u t l i n e
EndChar

StartChar: uniE0CC
Encoding: 57548 57548 148
Width: 512
GlyphClass: 3
Flags: W
LayerCount: 2
Fore
SplineSet
78 429 m 1,0,-1
 451 57 l 1,1,-1
 423 29 l 1,2,-1
 383 70 l 1,3,4
 371 64 371 64 363 64 c 2,5,-1
 149 64 l 2,6,7
 132 64 132 64 119.5 77 c 128,-1,8
 107 90 107 90 107 107 c 2,9,-1
 107 346 l 1,10,-1
 51 402 l 1,11,-1
 78 429 l 1,0,-1
405 405 m 2,12,-1
 405 156 l 1,13,-1
 163 398 l 1,14,-1
 213 448 l 1,15,-1
 363 448 l 2,16,17
 380 448 380 448 392.5 435 c 128,-1,18
 405 422 405 422 405 405 c 2,12,-1
EndSplineSet
Ligature2: "'liga' Standard Ligatures in Latin lookup 0 subtable" n o underscore s i m
EndChar

StartChar: uniE0CD
Encoding: 57549 57549 149
Width: 512
GlyphClass: 3
Flags: W
LayerCount: 2
Fore
SplineSet
141 282 m 1,0,1
 189 189 189 189 282 141 c 1,2,-1
 329 188 l 2,3,4
 339 198 339 198 351 193 c 0,5,6
 387 181 387 181 427 181 c 0,7,8
 436 181 436 181 442 175 c 128,-1,9
 448 169 448 169 448 160 c 2,10,-1
 448 85 l 2,11,12
 448 76 448 76 442 70 c 128,-1,13
 436 64 436 64 427 64 c 0,14,15
 277 64 277 64 170.5 170.5 c 128,-1,16
 64 277 64 277 64 427 c 0,17,18
 64 436 64 436 70 442 c 128,-1,19
 76 448 76 448 85 448 c 2,20,-1
 160 448 l 2,21,22
 169 448 169 448 175 442 c 128,-1,23
 181 436 181 436 181 427 c 0,24,25
 181 387 181 387 193 351 c 0,26,27
 197 338 197 338 188 329 c 2,28,-1
 141 282 l 1,0,1
EndSplineSet
Ligature2: "'liga' Standard Ligatures in Latin lookup 0 subtable" p h o n e
EndChar

StartChar: uniE0CE
Encoding: 57550 57550 150
Width: 512
GlyphClass: 3
Flags: W
LayerCount: 2
Fore
SplineSet
70 459 m 1,0,-1
 91 437 l 1,1,-1
 448 80 l 1,2,-1
 421 53 l 1,3,-1
 261 214 l 1,4,-1
 260 214 l 1,5,-1
 256 213 l 1,6,7
 239 213 239 213 226 226 c 128,-1,8
 213 239 213 239 213 256 c 1,9,-1
 214 260 l 1,10,-1
 180 294 l 1,11,12
 171 276 171 276 171 256 c 0,13,14
 171 207 171 207 213 182 c 1,15,-1
 192 145 l 1,16,17
 163 162 163 162 145.5 191.5 c 128,-1,18
 128 221 128 221 128 256 c 0,19,20
 128 294 128 294 148 325 c 1,21,-1
 118 356 l 1,22,23
 85 310 85 310 85 256 c 0,24,25
 85 210 85 210 108 170.5 c 128,-1,26
 131 131 131 131 170 108 c 1,27,-1
 149 71 l 1,28,29
 100 99 100 99 71.5 148.5 c 128,-1,30
 43 198 43 198 43 256 c 0,31,32
 43 330 43 330 87 387 c 1,33,-1
 43 432 l 1,34,-1
 70 459 l 1,0,-1
256 427 m 0,35,36
 213 427 213 427 176 407 c 1,37,-1
 145 438 l 1,38,39
 195 469 195 469 256 469 c 0,40,41
 344 469 344 469 406.5 406.5 c 128,-1,42
 469 344 469 344 469 256 c 0,43,44
 469 195 469 195 438 145 c 1,45,-1
 406 176 l 1,46,47
 427 215 427 215 427 256 c 0,48,49
 427 326 427 326 376.5 376.5 c 128,-1,50
 326 427 326 427 256 427 c 0,35,36
375 208 m 1,51,-1
 340 243 l 2,52,53
 341 247 341 247 341 256 c 0,54,55
 341 291 341 291 316 316 c 128,-1,56
 291 341 291 341 256 341 c 0,57,58
 247 341 247 341 243 340 c 2,59,-1
 208 375 l 1,60,61
 230 384 230 384 256 384 c 0,62,63
 309 384 309 384 346.5 346.5 c 128,-1,64
 384 309 384 309 384 256 c 0,65,66
 384 230 384 230 375 208 c 1,51,-1
EndSplineSet
Ligature2: "'liga' Standard Ligatures in Latin lookup 0 subtable" p o r t a b l e underscore w i f i underscore o f f
EndChar

StartChar: uniE0CF
Encoding: 57551 57551 151
Width: 512
GlyphClass: 3
Flags: W
LayerCount: 2
Fore
SplineSet
381 213 m 1,0,1
 373 234 373 234 373 256 c 128,-1,2
 373 278 373 278 381 299 c 1,3,-1
 416 299 l 1,4,-1
 448 341 l 1,5,-1
 406 384 l 1,6,7
 362 351 362 351 347 299 c 0,8,9
 341 278 341 278 341 256 c 128,-1,10
 341 234 341 234 347 213 c 0,11,12
 362 161 362 161 406 128 c 1,13,-1
 448 171 l 1,14,-1
 416 213 l 1,15,-1
 381 213 l 1,0,1
299 128 m 1,16,-1
 299 149 l 2,17,18
 299 178 299 178 255 196.5 c 128,-1,19
 211 215 211 215 171 215 c 128,-1,20
 131 215 131 215 87 196.5 c 128,-1,21
 43 178 43 178 43 149 c 2,22,-1
 43 128 l 1,23,-1
 299 128 l 1,16,-1
171 384 m 128,-1,25
 145 384 145 384 126 365 c 128,-1,26
 107 346 107 346 107 320 c 128,-1,27
 107 294 107 294 126 275 c 128,-1,28
 145 256 145 256 171 256 c 128,-1,29
 197 256 197 256 216 275 c 128,-1,30
 235 294 235 294 235 320 c 128,-1,31
 235 346 235 346 216 365 c 128,-1,24
 197 384 197 384 171 384 c 128,-1,25
469 448 m 2,32,33
 486 448 486 448 499 435 c 128,-1,34
 512 422 512 422 512 405 c 2,35,-1
 512 107 l 2,36,37
 512 90 512 90 499 77 c 128,-1,38
 486 64 486 64 469 64 c 2,39,-1
 43 64 l 2,40,41
 26 64 26 64 13 77 c 128,-1,42
 0 90 0 90 0 107 c 2,43,-1
 0 405 l 2,44,45
 0 422 0 422 13 435 c 128,-1,46
 26 448 26 448 43 448 c 2,47,-1
 469 448 l 2,32,33
EndSplineSet
Ligature2: "'liga' Standard Ligatures in Latin lookup 0 subtable" q u i c k underscore c o n t a c t s underscore d i a l e r
Ligature2: "'liga' Standard Ligatures in Latin lookup 0 subtable" c o n t a c t underscore p h o n e
EndChar

StartChar: uniE0D0
Encoding: 57552 57552 152
Width: 512
GlyphClass: 3
Flags: W
LayerCount: 2
Fore
SplineSet
469 256 m 1,0,-1
 469 384 l 1,1,-1
 299 384 l 1,2,-1
 299 256 l 1,3,-1
 469 256 l 1,0,-1
299 128 m 1,4,-1
 299 149 l 2,5,6
 299 178 299 178 255 196.5 c 128,-1,7
 211 215 211 215 171 215 c 128,-1,8
 131 215 131 215 87 196.5 c 128,-1,9
 43 178 43 178 43 149 c 2,10,-1
 43 128 l 1,11,-1
 299 128 l 1,4,-1
171 384 m 128,-1,13
 145 384 145 384 126 365 c 128,-1,14
 107 346 107 346 107 320 c 128,-1,15
 107 294 107 294 126 275 c 128,-1,16
 145 256 145 256 171 256 c 128,-1,17
 197 256 197 256 216 275 c 128,-1,18
 235 294 235 294 235 320 c 128,-1,19
 235 346 235 346 216 365 c 128,-1,12
 197 384 197 384 171 384 c 128,-1,13
469 448 m 2,20,21
 486 448 486 448 499 435 c 128,-1,22
 512 422 512 422 512 405 c 2,23,-1
 512 107 l 2,24,25
 512 90 512 90 499 77 c 128,-1,26
 486 64 486 64 469 64 c 2,27,-1
 43 64 l 2,28,29
 26 64 26 64 13 77 c 128,-1,30
 0 90 0 90 0 107 c 2,31,-1
 0 405 l 2,32,33
 0 422 0 422 13 435 c 128,-1,34
 26 448 26 448 43 448 c 2,35,-1
 469 448 l 2,20,21
448 341 m 1,36,-1
 384 299 l 1,37,-1
 320 341 l 1,38,-1
 320 363 l 1,39,-1
 384 320 l 1,40,-1
 448 363 l 1,41,-1
 448 341 l 1,36,-1
EndSplineSet
Ligature2: "'liga' Standard Ligatures in Latin lookup 0 subtable" q u i c k underscore c o n t a c t s underscore m a i l
Ligature2: "'liga' Standard Ligatures in Latin lookup 0 subtable" c o n t a c t underscore m a i l
EndChar

StartChar: uniE0D1
Encoding: 57553 57553 153
Width: 512
GlyphClass: 3
Flags: W
LayerCount: 2
Fore
SplineSet
137 303 m 1,0,1
 63 377 63 377 61 378 c 2,2,-1
 91 409 l 1,3,-1
 167 333 l 1,4,-1
 137 303 l 1,0,1
277 469 m 1,5,-1
 277 363 l 1,6,-1
 235 363 l 1,7,-1
 235 469 l 1,8,-1
 277 469 l 1,5,-1
451 378 m 1,9,-1
 375 303 l 1,10,-1
 345 333 l 1,11,-1
 421 409 l 1,12,-1
 451 378 l 1,9,-1
506 156 m 0,13,14
 512 150 512 150 512 141 c 128,-1,15
 512 132 512 132 506 126 c 2,16,-1
 453 73 l 2,17,18
 447 67 447 67 438 67 c 128,-1,19
 429 67 429 67 423 73 c 0,20,21
 395 99 395 99 366 113 c 0,22,23
 354 118 354 118 354 132 c 2,24,-1
 354 198 l 1,25,26
 308 213 308 213 256 213 c 128,-1,27
 204 213 204 213 158 198 c 1,28,-1
 158 132 l 2,29,30
 158 117 158 117 146 112 c 0,31,32
 114 97 114 97 89 73 c 0,33,34
 83 67 83 67 74 67 c 128,-1,35
 65 67 65 67 59 73 c 2,36,-1
 6 126 l 2,37,38
 0 132 0 132 0 141 c 128,-1,39
 0 150 0 150 6 156 c 0,40,41
 111 256 111 256 256 256 c 128,-1,42
 401 256 401 256 506 156 c 0,13,14
EndSplineSet
Ligature2: "'liga' Standard Ligatures in Latin lookup 0 subtable" r i n g underscore v o l u m e
EndChar

StartChar: uniE0D2
Encoding: 57554 57554 154
Width: 512
GlyphClass: 3
Flags: W
LayerCount: 2
Fore
SplineSet
320 85 m 1,0,-1
 320 256 l 1,1,-1
 192 256 l 1,2,-1
 192 85 l 1,3,-1
 320 85 l 1,0,-1
317 298 m 2,4,5
 327 298 327 298 334 291 c 128,-1,6
 341 284 341 284 341 274 c 2,7,-1
 341 67 l 2,8,9
 341 57 341 57 334 50 c 128,-1,10
 327 43 327 43 317 43 c 2,11,-1
 195 43 l 2,12,13
 185 43 185 43 178 50 c 128,-1,14
 171 57 171 57 171 67 c 2,15,-1
 171 274 l 2,16,17
 171 284 171 284 178 291.5 c 128,-1,18
 185 299 185 299 195 299 c 2,19,-1
 317 298 l 2,4,5
256 491 m 128,-1,21
 352 491 352 491 421 422 c 1,22,-1
 391 392 l 1,23,24
 335 448 335 448 256 448 c 128,-1,25
 177 448 177 448 121 392 c 1,26,-1
 91 422 l 1,27,20
 160 491 160 491 256 491 c 128,-1,21
149 361 m 1,28,29
 193 405 193 405 256 405 c 128,-1,30
 319 405 319 405 363 361 c 1,31,-1
 332 331 l 1,32,33
 301 362 301 362 256 362 c 128,-1,34
 211 362 211 362 180 331 c 1,35,-1
 149 361 l 1,28,29
EndSplineSet
Ligature2: "'liga' Standard Ligatures in Latin lookup 0 subtable" s p e a k e r underscore p h o n e
EndChar

StartChar: uniE0D3
Encoding: 57555 57555 155
Width: 512
GlyphClass: 3
Flags: W
LayerCount: 2
Fore
SplineSet
405 363 m 1,0,-1
 107 363 l 1,1,-1
 107 149 l 1,2,-1
 405 149 l 1,3,-1
 405 363 l 1,0,-1
22 363 m 2,4,5
 22 380 22 380 34.5 392.5 c 128,-1,6
 47 405 47 405 64 405 c 2,7,-1
 448 405 l 2,8,9
 465 405 465 405 478 392.5 c 128,-1,10
 491 380 491 380 491 363 c 2,11,-1
 491 149 l 2,12,13
 491 132 491 132 478 119.5 c 128,-1,14
 465 107 465 107 448 107 c 2,15,-1
 64 107 l 2,16,17
 47 107 47 107 34 119.5 c 128,-1,18
 21 132 21 132 21 149 c 2,19,-1
 22 363 l 2,4,5
EndSplineSet
Ligature2: "'liga' Standard Ligatures in Latin lookup 0 subtable" s t a y underscore c u r r e n t underscore l a n d s c a p e
EndChar

StartChar: uniE0D4
Encoding: 57556 57556 156
Width: 512
GlyphClass: 3
Flags: W
LayerCount: 2
Fore
SplineSet
363 107 m 1,0,-1
 363 405 l 1,1,-1
 149 405 l 1,2,-1
 149 107 l 1,3,-1
 363 107 l 1,0,-1
363 490 m 2,4,5
 380 490 380 490 392.5 477.5 c 128,-1,6
 405 465 405 465 405 448 c 2,7,-1
 405 64 l 2,8,9
 405 47 405 47 392.5 34 c 128,-1,10
 380 21 380 21 363 21 c 2,11,-1
 149 21 l 2,12,13
 132 21 132 21 119.5 34 c 128,-1,14
 107 47 107 47 107 64 c 2,15,-1
 107 448 l 2,16,17
 107 465 107 465 119.5 478 c 128,-1,18
 132 491 132 491 149 491 c 2,19,-1
 363 490 l 2,4,5
EndSplineSet
Ligature2: "'liga' Standard Ligatures in Latin lookup 0 subtable" s t a y underscore c u r r e n t underscore p o r t r a i t
EndChar

StartChar: uniE0D5
Encoding: 57557 57557 157
Width: 512
GlyphClass: 3
Flags: W
LayerCount: 2
Fore
SplineSet
405 363 m 1,0,-1
 107 363 l 1,1,-1
 107 149 l 1,2,-1
 405 149 l 1,3,-1
 405 363 l 1,0,-1
22 363 m 2,4,5
 22 380 22 380 34.5 392.5 c 128,-1,6
 47 405 47 405 64 405 c 2,7,-1
 448 405 l 2,8,9
 465 405 465 405 478 392.5 c 128,-1,10
 491 380 491 380 491 363 c 2,11,-1
 491 149 l 2,12,13
 491 132 491 132 478 119.5 c 128,-1,14
 465 107 465 107 448 107 c 2,15,-1
 64 107 l 2,16,17
 47 107 47 107 34 119.5 c 128,-1,18
 21 132 21 132 21 149 c 2,19,-1
 22 363 l 2,4,5
EndSplineSet
Ligature2: "'liga' Standard Ligatures in Latin lookup 0 subtable" s t a y underscore p r i m a r y underscore l a n d s c a p e
EndChar

StartChar: uniE0D6
Encoding: 57558 57558 158
Width: 512
GlyphClass: 3
Flags: W
LayerCount: 2
Fore
SplineSet
363 107 m 1,0,-1
 363 405 l 1,1,-1
 149 405 l 1,2,-1
 149 107 l 1,3,-1
 363 107 l 1,0,-1
363 490 m 2,4,5
 380 490 380 490 392.5 477.5 c 128,-1,6
 405 465 405 465 405 448 c 2,7,-1
 405 64 l 2,8,9
 405 47 405 47 392.5 34 c 128,-1,10
 380 21 380 21 363 21 c 2,11,-1
 149 21 l 2,12,13
 132 21 132 21 119.5 34 c 128,-1,14
 107 47 107 47 107 64 c 2,15,-1
 107 448 l 2,16,17
 107 465 107 465 119.5 478 c 128,-1,18
 132 491 132 491 149 491 c 2,19,-1
 363 490 l 2,4,5
EndSplineSet
Ligature2: "'liga' Standard Ligatures in Latin lookup 0 subtable" s t a y underscore p r i m a r y underscore p o r t r a i t
EndChar

StartChar: uniE0D7
Encoding: 57559 57559 159
Width: 512
GlyphClass: 3
Flags: W
LayerCount: 2
Fore
SplineSet
384 427 m 1,0,-1
 469 341 l 1,1,-1
 405 341 l 1,2,-1
 405 192 l 2,3,4
 405 157 405 157 380 132 c 128,-1,5
 355 107 355 107 320 107 c 128,-1,6
 285 107 285 107 260 132 c 128,-1,7
 235 157 235 157 235 192 c 2,8,-1
 235 341 l 2,9,10
 235 358 235 358 222 371 c 128,-1,11
 209 384 209 384 192 384 c 128,-1,12
 175 384 175 384 162 371 c 128,-1,13
 149 358 149 358 149 341 c 2,14,-1
 149 192 l 1,15,-1
 213 192 l 1,16,-1
 128 107 l 1,17,-1
 43 192 l 1,18,-1
 107 192 l 1,19,-1
 107 341 l 2,20,21
 107 376 107 376 132 401.5 c 128,-1,22
 157 427 157 427 192 427 c 128,-1,23
 227 427 227 427 252 401.5 c 128,-1,24
 277 376 277 376 277 341 c 2,25,-1
 277 192 l 2,26,27
 277 175 277 175 290 162 c 128,-1,28
 303 149 303 149 320 149 c 128,-1,29
 337 149 337 149 350 162 c 128,-1,30
 363 175 363 175 363 192 c 2,31,-1
 363 341 l 1,32,-1
 299 341 l 1,33,-1
 384 427 l 1,0,-1
EndSplineSet
Ligature2: "'liga' Standard Ligatures in Latin lookup 0 subtable" s w a p underscore c a l l s
EndChar

StartChar: uniE0D8
Encoding: 57560 57560 160
Width: 512
GlyphClass: 3
Flags: W
LayerCount: 2
Fore
SplineSet
363 277 m 1,0,-1
 363 320 l 1,1,-1
 320 320 l 1,2,-1
 320 277 l 1,3,-1
 363 277 l 1,0,-1
277 277 m 1,4,-1
 277 320 l 1,5,-1
 235 320 l 1,6,-1
 235 277 l 1,7,-1
 277 277 l 1,4,-1
192 277 m 1,8,-1
 192 320 l 1,9,-1
 149 320 l 1,10,-1
 149 277 l 1,11,-1
 192 277 l 1,8,-1
427 469 m 2,12,13
 444 469 444 469 456.5 456.5 c 128,-1,14
 469 444 469 444 469 427 c 2,15,-1
 469 171 l 2,16,17
 469 154 469 154 456.5 141 c 128,-1,18
 444 128 444 128 427 128 c 2,19,-1
 128 128 l 1,20,-1
 43 43 l 1,21,-1
 43 427 l 2,22,23
 43 444 43 444 55.5 456.5 c 128,-1,24
 68 469 68 469 85 469 c 2,25,-1
 427 469 l 2,12,13
EndSplineSet
Ligature2: "'liga' Standard Ligatures in Latin lookup 0 subtable" t e x t s m s
EndChar

StartChar: uniE0D9
Encoding: 57561 57561 161
Width: 512
GlyphClass: 3
Flags: W
LayerCount: 2
Fore
SplineSet
395 192 m 128,-1,1
 426 192 426 192 447.5 214 c 128,-1,2
 469 236 469 236 469 267 c 128,-1,3
 469 298 469 298 447.5 319.5 c 128,-1,4
 426 341 426 341 395 341 c 128,-1,5
 364 341 364 341 342 319.5 c 128,-1,6
 320 298 320 298 320 267 c 128,-1,7
 320 236 320 236 342 214 c 128,-1,0
 364 192 364 192 395 192 c 128,-1,1
117 192 m 128,-1,9
 148 192 148 192 170 214 c 128,-1,10
 192 236 192 236 192 267 c 128,-1,11
 192 298 192 298 170 319.5 c 128,-1,12
 148 341 148 341 117 341 c 128,-1,13
 86 341 86 341 64.5 319.5 c 128,-1,14
 43 298 43 298 43 267 c 128,-1,15
 43 236 43 236 64.5 214 c 128,-1,8
 86 192 86 192 117 192 c 128,-1,9
395 384 m 128,-1,17
 444 384 444 384 478 350 c 128,-1,18
 512 316 512 316 512 267 c 128,-1,19
 512 218 512 218 478 183.5 c 128,-1,20
 444 149 444 149 395 149 c 2,21,-1
 117 149 l 2,22,23
 68 149 68 149 34 183.5 c 128,-1,24
 0 218 0 218 0 267 c 128,-1,25
 0 316 0 316 34 350 c 128,-1,26
 68 384 68 384 117 384 c 128,-1,27
 166 384 166 384 200.5 350 c 128,-1,28
 235 316 235 316 235 267 c 0,29,30
 235 224 235 224 208 192 c 1,31,-1
 304 192 l 1,32,33
 277 224 277 224 277 267 c 0,34,35
 277 316 277 316 311.5 350 c 128,-1,16
 346 384 346 384 395 384 c 128,-1,17
EndSplineSet
Ligature2: "'liga' Standard Ligatures in Latin lookup 0 subtable" v o i c e m a i l
EndChar

StartChar: uniE0DA
Encoding: 57562 57562 162
Width: 512
GlyphClass: 3
Flags: W
LayerCount: 2
Fore
SplineSet
149 213 m 128,-1,1
 166 213 166 213 179 226 c 128,-1,2
 192 239 192 239 192 256 c 128,-1,3
 192 273 192 273 179 286 c 128,-1,4
 166 299 166 299 149 299 c 128,-1,5
 132 299 132 299 119.5 286 c 128,-1,6
 107 273 107 273 107 256 c 128,-1,7
 107 239 107 239 119.5 226 c 128,-1,0
 132 213 132 213 149 213 c 128,-1,1
270 299 m 1,8,-1
 491 299 l 1,9,-1
 491 213 l 1,10,-1
 448 213 l 1,11,-1
 448 128 l 1,12,-1
 363 128 l 1,13,-1
 363 213 l 1,14,-1
 270 213 l 1,15,16
 257 175 257 175 224 151.5 c 128,-1,17
 191 128 191 128 149 128 c 0,18,19
 96 128 96 128 58.5 165.5 c 128,-1,20
 21 203 21 203 21 256 c 128,-1,21
 21 309 21 309 58.5 346.5 c 128,-1,22
 96 384 96 384 149 384 c 0,23,24
 191 384 191 384 224 360.5 c 128,-1,25
 257 337 257 337 270 299 c 1,8,-1
EndSplineSet
Ligature2: "'liga' Standard Ligatures in Latin lookup 0 subtable" v p n underscore k e y
EndChar

StartChar: uniE0DB
Encoding: 57563 57563 163
Width: 512
GlyphClass: 3
Flags: W
LayerCount: 2
Fore
SplineSet
405 491 m 2,0,1
 422 491 422 491 435 478 c 128,-1,2
 448 465 448 465 448 448 c 2,3,-1
 448 64 l 2,4,5
 448 47 448 47 435 34 c 128,-1,6
 422 21 422 21 405 21 c 2,7,-1
 192 21 l 2,8,9
 175 21 175 21 162 34 c 128,-1,10
 149 47 149 47 149 64 c 2,11,-1
 149 128 l 1,12,-1
 192 128 l 1,13,-1
 192 85 l 1,14,-1
 405 85 l 1,15,-1
 405 427 l 1,16,-1
 192 427 l 1,17,-1
 192 384 l 1,18,-1
 149 384 l 1,19,-1
 149 448 l 2,20,21
 149 465 149 465 162 478 c 128,-1,22
 175 491 175 491 192 491 c 2,23,-1
 405 491 l 2,0,1
277 337 m 1,24,-1
 192 252 l 1,25,-1
 277 166 l 1,26,-1
 256 145 l 1,27,-1
 171 230 l 1,28,-1
 85 145 l 1,29,-1
 64 166 l 1,30,-1
 149 252 l 1,31,-1
 64 337 l 1,32,-1
 85 358 l 1,33,-1
 171 273 l 1,34,-1
 256 358 l 1,35,-1
 277 337 l 1,24,-1
EndSplineSet
Ligature2: "'liga' Standard Ligatures in Latin lookup 0 subtable" p h o n e l i n k underscore e r a s e
EndChar

StartChar: uniE0DC
Encoding: 57564 57564 164
Width: 512
GlyphClass: 3
Flags: W
LayerCount: 2
Fore
SplineSet
203 277 m 1,0,-1
 203 309 l 2,1,2
 203 321 203 321 193.5 329 c 128,-1,3
 184 337 184 337 171 337 c 128,-1,4
 158 337 158 337 148.5 329 c 128,-1,5
 139 321 139 321 139 309 c 2,6,-1
 139 277 l 1,7,-1
 203 277 l 1,0,-1
230 277 m 1,8,9
 240 277 240 277 248 269 c 128,-1,10
 256 261 256 261 256 250 c 2,11,-1
 256 175 l 2,12,13
 256 165 256 165 247.5 157 c 128,-1,14
 239 149 239 149 228 149 c 2,15,-1
 111 149 l 2,16,17
 101 149 101 149 93 157.5 c 128,-1,18
 85 166 85 166 85 177 c 2,19,-1
 85 252 l 2,20,21
 85 262 85 262 93 269.5 c 128,-1,22
 101 277 101 277 111 277 c 1,23,-1
 111 309 l 2,24,25
 111 331 111 331 129.5 347 c 128,-1,26
 148 363 148 363 171 363 c 128,-1,27
 194 363 194 363 212 347 c 128,-1,28
 230 331 230 331 230 309 c 2,29,-1
 230 277 l 1,8,9
405 491 m 2,30,31
 422 491 422 491 435 478 c 128,-1,32
 448 465 448 465 448 448 c 2,33,-1
 448 64 l 2,34,35
 448 47 448 47 435 34 c 128,-1,36
 422 21 422 21 405 21 c 2,37,-1
 192 21 l 2,38,39
 175 21 175 21 162 34 c 128,-1,40
 149 47 149 47 149 64 c 2,41,-1
 149 128 l 1,42,-1
 192 128 l 1,43,-1
 192 85 l 1,44,-1
 405 85 l 1,45,-1
 405 427 l 1,46,-1
 192 427 l 1,47,-1
 192 384 l 1,48,-1
 149 384 l 1,49,-1
 149 448 l 2,50,51
 149 465 149 465 162 478 c 128,-1,52
 175 491 175 491 192 491 c 2,53,-1
 405 491 l 2,30,31
EndSplineSet
Ligature2: "'liga' Standard Ligatures in Latin lookup 0 subtable" p h o n e l i n k underscore l o c k
EndChar

StartChar: uniE0DD
Encoding: 57565 57565 165
Width: 512
GlyphClass: 3
Flags: W
LayerCount: 2
Fore
SplineSet
299 85 m 1,0,-1
 299 427 l 1,1,-1
 85 427 l 1,2,-1
 85 85 l 1,3,-1
 299 85 l 1,0,-1
299 491 m 2,4,5
 316 491 316 491 328.5 478 c 128,-1,6
 341 465 341 465 341 448 c 2,7,-1
 341 64 l 2,8,9
 341 47 341 47 328.5 34 c 128,-1,10
 316 21 316 21 299 21 c 2,11,-1
 85 21 l 2,12,13
 68 21 68 21 55.5 34 c 128,-1,14
 43 47 43 47 43 64 c 2,15,-1
 43 448 l 2,16,17
 43 465 43 465 55.5 478 c 128,-1,18
 68 491 68 491 85 491 c 2,19,-1
 299 491 l 2,4,5
384 303 m 1,20,21
 404 282 404 282 404 256 c 128,-1,22
 404 230 404 230 384 211 c 1,23,-1
 363 233 l 1,24,25
 381 258 381 258 363 282 c 1,26,-1
 384 303 l 1,20,21
429 348 m 1,27,28
 469 310 469 310 469 256.5 c 128,-1,29
 469 203 469 203 429 166 c 1,30,-1
 407 188 l 1,31,32
 436 219 436 219 436 258.5 c 128,-1,33
 436 298 436 298 407 326 c 1,34,-1
 429 348 l 1,27,28
EndSplineSet
Ligature2: "'liga' Standard Ligatures in Latin lookup 0 subtable" p h o n e l i n k underscore r i n g
EndChar

StartChar: uniE0DE
Encoding: 57566 57566 166
Width: 512
GlyphClass: 3
Flags: W
LayerCount: 2
Fore
SplineSet
405 491 m 2,0,1
 422 491 422 491 435 478 c 128,-1,2
 448 465 448 465 448 448 c 2,3,-1
 448 64 l 2,4,5
 448 47 448 47 435 34 c 128,-1,6
 422 21 422 21 405 21 c 2,7,-1
 192 21 l 2,8,9
 175 21 175 21 162 34 c 128,-1,10
 149 47 149 47 149 64 c 2,11,-1
 149 128 l 1,12,-1
 192 128 l 1,13,-1
 192 85 l 1,14,-1
 405 85 l 1,15,-1
 405 427 l 1,16,-1
 192 427 l 1,17,-1
 192 384 l 1,18,-1
 149 384 l 1,19,-1
 149 448 l 2,20,21
 149 465 149 465 162 478 c 128,-1,22
 175 491 175 491 192 491 c 2,23,-1
 405 491 l 2,0,1
171 213 m 128,-1,25
 188 213 188 213 200.5 226 c 128,-1,26
 213 239 213 239 213 256 c 128,-1,27
 213 273 213 273 200.5 286 c 128,-1,28
 188 299 188 299 171 299 c 128,-1,29
 154 299 154 299 141 286 c 128,-1,30
 128 273 128 273 128 256 c 128,-1,31
 128 239 128 239 141 226 c 128,-1,24
 154 213 154 213 171 213 c 128,-1,25
252 245 m 1,32,-1
 275 226 l 2,33,34
 279 222 279 222 277 220 c 2,35,-1
 256 183 l 2,36,37
 254 181 254 181 250 181 c 2,38,-1
 222 192 l 1,39,40
 208 183 208 183 203 181 c 1,41,-1
 198 154 l 1,42,43
 193 149 193 149 192 149 c 2,44,-1
 149 149 l 2,45,46
 147 149 147 149 145.5 151 c 128,-1,47
 144 153 144 153 145 154 c 2,48,-1
 141 181 l 1,49,50
 136 183 136 183 122 192 c 1,51,-1
 92 183 l 2,52,53
 90 181 90 181 85 186 c 2,54,-1
 64 222 l 2,55,56
 64 226 64 226 66 230 c 2,57,-1
 90 247 l 1,58,-1
 90 269 l 1,59,-1
 66 286 l 2,60,61
 62 290 62 290 64 292 c 2,62,-1
 85 329 l 2,63,64
 87 331 87 331 92 331 c 2,65,-1
 119 320 l 1,66,67
 132 329 132 329 139 331 c 1,68,-1
 143 358 l 1,69,70
 148 363 148 363 149 363 c 2,71,-1
 192 363 l 2,72,73
 198 363 198 363 198 358 c 2,74,-1
 203 331 l 1,75,76
 208 329 208 329 222 320 c 1,77,-1
 250 329 l 2,78,79
 252 330 252 330 256 326 c 2,80,-1
 277 290 l 2,81,82
 277 286 277 286 275 284 c 2,83,-1
 252 267 l 1,84,-1
 252 245 l 1,32,-1
EndSplineSet
Ligature2: "'liga' Standard Ligatures in Latin lookup 0 subtable" p h o n e l i n k underscore s e t u p
EndChar

StartChar: uniE0DF
Encoding: 57567 57567 167
Width: 512
GlyphClass: 3
Flags: W
LayerCount: 2
Fore
SplineSet
213 256 m 1,0,-1
 171 256 l 1,1,-1
 256 341 l 1,2,-1
 341 256 l 1,3,-1
 299 256 l 1,4,-1
 299 171 l 1,5,-1
 213 171 l 1,6,-1
 213 256 l 1,0,-1
448 106 m 1,7,-1
 448 406 l 1,8,-1
 64 406 l 1,9,-1
 64 106 l 1,10,-1
 448 106 l 1,7,-1
448 448 m 2,11,12
 466 448 466 448 478.5 435.5 c 128,-1,13
 491 423 491 423 491 405 c 2,14,-1
 491 107 l 2,15,16
 491 89 491 89 478.5 76.5 c 128,-1,17
 466 64 466 64 448 64 c 2,18,-1
 64 64 l 2,19,20
 46 64 46 64 33.5 76.5 c 128,-1,21
 21 89 21 89 21 107 c 2,22,-1
 21 405 l 2,23,24
 21 423 21 423 33.5 435.5 c 128,-1,25
 46 448 46 448 64 448 c 2,26,-1
 448 448 l 2,11,12
EndSplineSet
Ligature2: "'liga' Standard Ligatures in Latin lookup 0 subtable" p r e s e n t underscore t o underscore a l l
EndChar

StartChar: uniE0E0
Encoding: 57568 57568 168
Width: 512
GlyphClass: 3
Flags: W
LayerCount: 2
Fore
SplineSet
448 117 m 1,0,-1
 448 363 l 1,1,2
 415 373 415 373 373 373 c 0,3,4
 308 373 308 373 256 341 c 1,5,-1
 256 96 l 1,6,7
 308 128 308 128 373 128 c 0,8,9
 412 128 412 128 448 117 c 1,0,-1
373 416 m 0,10,11
 449 416 449 416 491 384 c 1,12,-1
 491 73 l 2,13,14
 491 69 491 69 487.5 65.5 c 128,-1,15
 484 62 484 62 480 62 c 0,16,17
 477 62 477 62 475 63 c 0,18,19
 434 85 434 85 373 85 c 0,20,21
 308 85 308 85 256 53 c 1,22,23
 213 85 213 85 139 85 c 0,24,25
 85 85 85 85 37 62 c 0,26,27
 36 62 36 62 34.5 61.5 c 128,-1,28
 33 61 33 61 32 61 c 0,29,30
 28 61 28 61 24.5 64 c 128,-1,31
 21 67 21 67 21 71 c 2,32,-1
 21 384 l 1,33,34
 64 416 64 416 139 416 c 0,35,36
 213 416 213 416 256 384 c 1,37,38
 299 416 299 416 373 416 c 0,10,11
EndSplineSet
Ligature2: "'liga' Standard Ligatures in Latin lookup 0 subtable" i m p o r t underscore c o n t a c t s
EndChar

StartChar: uniE0E1
Encoding: 57569 57569 169
Width: 512
GlyphClass: 3
Flags: W
LayerCount: 2
Fore
SplineSet
256 277 m 1,0,-1
 427 384 l 1,1,-1
 85 384 l 1,2,-1
 256 277 l 1,0,-1
427 128 m 1,3,-1
 427 341 l 1,4,-1
 256 235 l 1,5,-1
 85 341 l 1,6,-1
 85 128 l 1,7,-1
 427 128 l 1,3,-1
427 427 m 2,8,9
 444 427 444 427 456.5 414 c 128,-1,10
 469 401 469 401 469 384 c 2,11,-1
 469 128 l 2,12,13
 469 111 469 111 456.5 98 c 128,-1,14
 444 85 444 85 427 85 c 2,15,-1
 85 85 l 2,16,17
 68 85 68 85 55.5 98 c 128,-1,18
 43 111 43 111 43 128 c 2,19,-1
 43 384 l 2,20,21
 43 401 43 401 55.5 414 c 128,-1,22
 68 427 68 427 85 427 c 2,23,-1
 427 427 l 2,8,9
EndSplineSet
Ligature2: "'liga' Standard Ligatures in Latin lookup 0 subtable" m a i l underscore o u t l i n e
EndChar

StartChar: uniE0E2
Encoding: 57570 57570 170
Width: 512
GlyphClass: 3
Flags: W
LayerCount: 2
Fore
SplineSet
277 203 m 1,0,-1
 363 283 l 1,1,-1
 277 363 l 1,2,-1
 277 317 l 1,3,4
 172 302 172 302 149 192 c 1,5,6
 192 250 192 250 277 250 c 1,7,-1
 277 203 l 1,0,-1
427 128 m 2,8,-1
 512 128 l 1,9,-1
 512 85 l 1,10,-1
 0 85 l 1,11,-1
 0 128 l 1,12,-1
 85 128 l 2,13,14
 67 128 67 128 55 140.5 c 128,-1,15
 43 153 43 153 43 171 c 2,16,-1
 43 384 l 2,17,18
 43 402 43 402 55 414.5 c 128,-1,19
 67 427 67 427 85 427 c 2,20,-1
 427 427 l 2,21,22
 444 427 444 427 456.5 414.5 c 128,-1,23
 469 402 469 402 469 384 c 2,24,-1
 469 171 l 2,25,26
 469 154 469 154 456.5 141 c 128,-1,27
 444 128 444 128 427 128 c 2,8,-1
EndSplineSet
Ligature2: "'liga' Standard Ligatures in Latin lookup 0 subtable" s c r e e n underscore s h a r e
EndChar

StartChar: uniE0E3
Encoding: 57571 57571 171
Width: 512
GlyphClass: 3
Flags: W
LayerCount: 2
Fore
SplineSet
149 192 m 1,0,1
 178 232 178 232 227 244 c 1,2,-1
 193 278 l 1,3,4
 161 247 161 247 149 192 c 1,0,1
51 475 m 1,5,-1
 472 54 l 1,6,-1
 445 27 l 1,7,-1
 387 85 l 1,8,-1
 0 85 l 1,9,-1
 0 128 l 1,10,-1
 85 128 l 2,11,12
 67 128 67 128 55 140.5 c 128,-1,13
 43 153 43 153 43 170 c 2,14,-1
 43 384 l 2,15,16
 43 403 43 403 57 415 c 1,17,-1
 24 448 l 1,18,-1
 51 475 l 1,5,-1
469 170 m 2,19,20
 469 145 469 145 447 133 c 1,21,-1
 329 251 l 1,22,-1
 363 283 l 1,23,-1
 277 362 l 1,24,-1
 277 317 l 2,25,26
 275 316 275 316 271.5 316 c 128,-1,27
 268 316 268 316 266 315 c 2,28,-1
 154 426 l 1,29,-1
 427 426 l 2,30,31
 444 426 444 426 456.5 414 c 128,-1,32
 469 402 469 402 469 384 c 2,33,-1
 469 170 l 2,19,20
453 128 m 1,34,-1
 512 128 l 1,35,-1
 512 85 l 1,36,-1
 495 85 l 1,37,-1
 453 128 l 1,34,-1
EndSplineSet
Ligature2: "'liga' Standard Ligatures in Latin lookup 0 subtable" s t o p underscore s c r e e n underscore s h a r e
EndChar

StartChar: uniE0E4
Encoding: 57572 57572 172
Width: 512
GlyphClass: 3
Flags: W
LayerCount: 2
Fore
SplineSet
64 333 m 1,0,-1
 94 363 l 1,1,-1
 256 201 l 1,2,-1
 375 320 l 1,3,-1
 277 320 l 1,4,-1
 277 363 l 1,5,-1
 448 363 l 1,6,-1
 448 192 l 1,7,-1
 405 192 l 1,8,-1
 405 290 l 1,9,-1
 256 141 l 1,10,-1
 64 333 l 1,0,-1
EndSplineSet
Ligature2: "'liga' Standard Ligatures in Latin lookup 0 subtable" c a l l underscore m i s s e d underscore o u t g o i n g
EndChar

StartChar: uniE0E5
Encoding: 57573 57573 173
Width: 512
GlyphClass: 3
Flags: W
LayerCount: 2
Fore
SplineSet
85 297 m 1,0,1
 173 297 173 297 235 235 c 128,-1,2
 297 173 297 173 297 85 c 1,3,-1
 236 85 l 1,4,5
 236 147 236 147 191.5 191.5 c 128,-1,6
 147 236 147 236 85 236 c 1,7,-1
 85 297 l 1,0,1
85 417 m 1,8,9
 222 417 222 417 319.5 319.5 c 128,-1,10
 417 222 417 222 417 85 c 1,11,-1
 357 85 l 1,12,13
 357 198 357 198 277.5 277.5 c 128,-1,14
 198 357 198 357 85 357 c 1,15,-1
 85 417 l 1,8,9
85 132 m 0,16,17
 85 151 85 151 98.5 164.5 c 128,-1,18
 112 178 112 178 132 178 c 128,-1,19
 152 178 152 178 165 165 c 128,-1,20
 178 152 178 152 178 132 c 128,-1,21
 178 112 178 112 164.5 98.5 c 128,-1,22
 151 85 151 85 132 85 c 0,23,24
 112 85 112 85 98.5 98.5 c 128,-1,25
 85 112 85 112 85 132 c 0,16,17
EndSplineSet
Ligature2: "'liga' Standard Ligatures in Latin lookup 0 subtable" r s s underscore f e e d
EndChar

StartChar: uniE145
Encoding: 57669 57669 174
Width: 512
GlyphClass: 3
Flags: W
LayerCount: 2
Fore
SplineSet
405 235 m 1,0,-1
 277 235 l 1,1,-1
 277 107 l 1,2,-1
 235 107 l 1,3,-1
 235 235 l 1,4,-1
 107 235 l 1,5,-1
 107 277 l 1,6,-1
 235 277 l 1,7,-1
 235 405 l 1,8,-1
 277 405 l 1,9,-1
 277 277 l 1,10,-1
 405 277 l 1,11,-1
 405 235 l 1,0,-1
EndSplineSet
Ligature2: "'liga' Standard Ligatures in Latin lookup 0 subtable" a d d
EndChar

StartChar: uniE146
Encoding: 57670 57670 175
Width: 512
GlyphClass: 3
Flags: W
LayerCount: 2
Fore
SplineSet
363 235 m 1,0,-1
 363 277 l 1,1,-1
 277 277 l 1,2,-1
 277 363 l 1,3,-1
 235 363 l 1,4,-1
 235 277 l 1,5,-1
 149 277 l 1,6,-1
 149 235 l 1,7,-1
 235 235 l 1,8,-1
 235 149 l 1,9,-1
 277 149 l 1,10,-1
 277 235 l 1,11,-1
 363 235 l 1,0,-1
405 448 m 2,12,13
 422 448 422 448 435 435 c 128,-1,14
 448 422 448 422 448 405 c 2,15,-1
 448 107 l 2,16,17
 448 90 448 90 435 77 c 128,-1,18
 422 64 422 64 405 64 c 2,19,-1
 107 64 l 2,20,21
 89 64 89 64 76.5 77 c 128,-1,22
 64 90 64 90 64 107 c 2,23,-1
 64 405 l 2,24,25
 64 422 64 422 76.5 435 c 128,-1,26
 89 448 89 448 107 448 c 2,27,-1
 405 448 l 2,12,13
EndSplineSet
Ligature2: "'liga' Standard Ligatures in Latin lookup 0 subtable" a d d underscore b o x
EndChar

StartChar: uniE147
Encoding: 57671 57671 176
Width: 512
GlyphClass: 3
Flags: W
LayerCount: 2
Fore
SplineSet
363 235 m 1,0,-1
 363 277 l 1,1,-1
 277 277 l 1,2,-1
 277 363 l 1,3,-1
 235 363 l 1,4,-1
 235 277 l 1,5,-1
 149 277 l 1,6,-1
 149 235 l 1,7,-1
 235 235 l 1,8,-1
 235 149 l 1,9,-1
 277 149 l 1,10,-1
 277 235 l 1,11,-1
 363 235 l 1,0,-1
256 469 m 128,-1,13
 344 469 344 469 406.5 406.5 c 128,-1,14
 469 344 469 344 469 256 c 128,-1,15
 469 168 469 168 406.5 105.5 c 128,-1,16
 344 43 344 43 256 43 c 128,-1,17
 168 43 168 43 105.5 105.5 c 128,-1,18
 43 168 43 168 43 256 c 128,-1,19
 43 344 43 344 105.5 406.5 c 128,-1,12
 168 469 168 469 256 469 c 128,-1,13
EndSplineSet
Ligature2: "'liga' Standard Ligatures in Latin lookup 0 subtable" a d d underscore c i r c l e
EndChar

StartChar: uniE148
Encoding: 57672 57672 177
Width: 512
GlyphClass: 3
Flags: W
LayerCount: 2
Fore
SplineSet
256 85 m 128,-1,1
 326 85 326 85 376.5 135.5 c 128,-1,2
 427 186 427 186 427 256 c 128,-1,3
 427 326 427 326 376.5 376.5 c 128,-1,4
 326 427 326 427 256 427 c 128,-1,5
 186 427 186 427 135.5 376.5 c 128,-1,6
 85 326 85 326 85 256 c 128,-1,7
 85 186 85 186 135.5 135.5 c 128,-1,0
 186 85 186 85 256 85 c 128,-1,1
256 469 m 128,-1,9
 344 469 344 469 406.5 406.5 c 128,-1,10
 469 344 469 344 469 256 c 128,-1,11
 469 168 469 168 406.5 105.5 c 128,-1,12
 344 43 344 43 256 43 c 128,-1,13
 168 43 168 43 105.5 105.5 c 128,-1,14
 43 168 43 168 43 256 c 128,-1,15
 43 344 43 344 105.5 406.5 c 128,-1,8
 168 469 168 469 256 469 c 128,-1,9
277 363 m 1,16,-1
 277 277 l 1,17,-1
 363 277 l 1,18,-1
 363 235 l 1,19,-1
 277 235 l 1,20,-1
 277 149 l 1,21,-1
 235 149 l 1,22,-1
 235 235 l 1,23,-1
 149 235 l 1,24,-1
 149 277 l 1,25,-1
 235 277 l 1,26,-1
 235 363 l 1,27,-1
 277 363 l 1,16,-1
EndSplineSet
Ligature2: "'liga' Standard Ligatures in Latin lookup 0 subtable" a d d underscore c i r c l e underscore o u t l i n e
EndChar

StartChar: uniE149
Encoding: 57673 57673 178
Width: 512
GlyphClass: 3
Flags: W
LayerCount: 2
Fore
SplineSet
109 405 m 1,0,-1
 403 405 l 1,1,-1
 383 427 l 1,2,-1
 127 427 l 1,3,-1
 109 405 l 1,0,-1
256 139 m 1,4,-1
 373 256 l 1,5,-1
 299 256 l 1,6,-1
 299 299 l 1,7,-1
 213 299 l 1,8,-1
 213 256 l 1,9,-1
 139 256 l 1,10,-1
 256 139 l 1,4,-1
438 400 m 2,11,12
 448 388 448 388 448 373 c 2,13,-1
 448 107 l 2,14,15
 448 90 448 90 435 77 c 128,-1,16
 422 64 422 64 405 64 c 2,17,-1
 107 64 l 2,18,19
 90 64 90 64 77 77 c 128,-1,20
 64 90 64 90 64 107 c 2,21,-1
 64 373 l 2,22,23
 64 388 64 388 74 400 c 2,24,-1
 103 436 l 2,25,26
 113 448 113 448 128 448 c 2,27,-1
 384 448 l 2,28,29
 399 448 399 448 409 436 c 2,30,-1
 438 400 l 2,11,12
EndSplineSet
Ligature2: "'liga' Standard Ligatures in Latin lookup 0 subtable" a r c h i v e
EndChar

StartChar: uniE14A
Encoding: 57674 57674 179
Width: 512
GlyphClass: 3
Flags: W
LayerCount: 2
Fore
SplineSet
405 179 m 1,0,-1
 329 256 l 1,1,-1
 405 333 l 1,2,-1
 375 363 l 1,3,-1
 299 286 l 1,4,-1
 222 363 l 1,5,-1
 192 333 l 1,6,-1
 269 256 l 1,7,-1
 192 179 l 1,8,-1
 222 149 l 1,9,-1
 299 226 l 1,10,-1
 375 149 l 1,11,-1
 405 179 l 1,0,-1
469 448 m 2,12,13
 486 448 486 448 499 435 c 128,-1,14
 512 422 512 422 512 405 c 2,15,-1
 512 107 l 2,16,17
 512 90 512 90 499 77 c 128,-1,18
 486 64 486 64 469 64 c 2,19,-1
 149 64 l 2,20,21
 129 64 129 64 115 83 c 2,22,-1
 0 256 l 1,23,-1
 115 429 l 2,24,25
 129 448 129 448 149 448 c 2,26,-1
 469 448 l 2,12,13
EndSplineSet
Ligature2: "'liga' Standard Ligatures in Latin lookup 0 subtable" b a c k s p a c e
EndChar

StartChar: uniE14B
Encoding: 57675 57675 180
Width: 512
GlyphClass: 3
Flags: W
LayerCount: 2
Fore
SplineSet
256 85 m 0,0,1
 326 85 326 85 376.5 135.5 c 128,-1,2
 427 186 427 186 427 256 c 0,3,4
 427 316 427 316 391 361 c 1,5,-1
 151 121 l 1,6,7
 196 85 196 85 256 85 c 0,0,1
85 256 m 0,8,9
 85 196 85 196 121 151 c 1,10,-1
 361 391 l 1,11,12
 316 427 316 427 256 427 c 0,13,14
 186 427 186 427 135.5 376.5 c 128,-1,15
 85 326 85 326 85 256 c 0,8,9
256 469 m 128,-1,17
 344 469 344 469 406.5 406.5 c 128,-1,18
 469 344 469 344 469 256 c 128,-1,19
 469 168 469 168 406.5 105.5 c 128,-1,20
 344 43 344 43 256 43 c 128,-1,21
 168 43 168 43 105.5 105.5 c 128,-1,22
 43 168 43 168 43 256 c 128,-1,23
 43 344 43 344 105.5 406.5 c 128,-1,16
 168 469 168 469 256 469 c 128,-1,17
EndSplineSet
Ligature2: "'liga' Standard Ligatures in Latin lookup 0 subtable" b l o c k
EndChar

StartChar: uniE14C
Encoding: 57676 57676 181
Width: 512
GlyphClass: 3
Flags: W
LayerCount: 2
Fore
SplineSet
405 375 m 1,0,-1
 286 256 l 1,1,-1
 405 137 l 1,2,-1
 375 107 l 1,3,-1
 256 226 l 1,4,-1
 137 107 l 1,5,-1
 107 137 l 1,6,-1
 226 256 l 1,7,-1
 107 375 l 1,8,-1
 137 405 l 1,9,-1
 256 286 l 1,10,-1
 375 405 l 1,11,-1
 405 375 l 1,0,-1
EndSplineSet
Ligature2: "'liga' Standard Ligatures in Latin lookup 0 subtable" c l e a r
EndChar

StartChar: uniE14D
Encoding: 57677 57677 182
Width: 512
GlyphClass: 3
Flags: W
LayerCount: 2
Fore
SplineSet
405 64 m 1,0,-1
 405 363 l 1,1,-1
 171 363 l 1,2,-1
 171 64 l 1,3,-1
 405 64 l 1,0,-1
405 405 m 2,4,5
 422 405 422 405 435 392.5 c 128,-1,6
 448 380 448 380 448 363 c 2,7,-1
 448 64 l 2,8,9
 448 47 448 47 435 34 c 128,-1,10
 422 21 422 21 405 21 c 2,11,-1
 171 21 l 2,12,13
 154 21 154 21 141 34 c 128,-1,14
 128 47 128 47 128 64 c 2,15,-1
 128 363 l 2,16,17
 128 380 128 380 141 392.5 c 128,-1,18
 154 405 154 405 171 405 c 2,19,-1
 405 405 l 2,4,5
341 491 m 1,20,-1
 341 448 l 1,21,-1
 85 448 l 1,22,-1
 85 149 l 1,23,-1
 43 149 l 1,24,-1
 43 448 l 2,25,26
 43 465 43 465 55.5 478 c 128,-1,27
 68 491 68 491 85 491 c 2,28,-1
 341 491 l 1,20,-1
EndSplineSet
Ligature2: "'liga' Standard Ligatures in Latin lookup 0 subtable" c o n t e n t underscore c o p y
EndChar

StartChar: uniE14E
Encoding: 57678 57678 183
Width: 512
GlyphClass: 3
Flags: W
LayerCount: 2
Fore
SplineSet
405 448 m 1,0,-1
 469 448 l 1,1,-1
 469 427 l 1,2,-1
 320 277 l 1,3,-1
 277 320 l 1,4,-1
 405 448 l 1,0,-1
256 245 m 128,-1,6
 267 245 267 245 267 256 c 128,-1,7
 267 267 267 267 256 267 c 128,-1,8
 245 267 245 267 245 256 c 128,-1,5
 245 245 245 245 256 245 c 128,-1,6
128 85 m 128,-1,10
 145 85 145 85 158 97.5 c 128,-1,11
 171 110 171 110 171 128 c 128,-1,12
 171 146 171 146 158 158.5 c 128,-1,13
 145 171 145 171 128 171 c 128,-1,14
 111 171 111 171 98 158.5 c 128,-1,15
 85 146 85 146 85 128 c 128,-1,16
 85 110 85 110 98 97.5 c 128,-1,9
 111 85 111 85 128 85 c 128,-1,10
128 341 m 128,-1,18
 145 341 145 341 158 353.5 c 128,-1,19
 171 366 171 366 171 384 c 128,-1,20
 171 402 171 402 158 414.5 c 128,-1,21
 145 427 145 427 128 427 c 128,-1,22
 111 427 111 427 98 414.5 c 128,-1,23
 85 402 85 402 85 384 c 128,-1,24
 85 366 85 366 98 353.5 c 128,-1,17
 111 341 111 341 128 341 c 128,-1,18
206 349 m 1,25,-1
 469 85 l 1,26,-1
 469 64 l 1,27,-1
 405 64 l 1,28,-1
 256 213 l 1,29,-1
 206 163 l 1,30,31
 213 148 213 148 213 128 c 0,32,33
 213 93 213 93 188 68 c 128,-1,34
 163 43 163 43 128 43 c 128,-1,35
 93 43 93 43 68 68 c 128,-1,36
 43 93 43 93 43 128 c 128,-1,37
 43 163 43 163 68 188 c 128,-1,38
 93 213 93 213 128 213 c 0,39,40
 148 213 148 213 163 206 c 1,41,-1
 213 256 l 1,42,-1
 163 306 l 1,43,44
 148 299 148 299 128 299 c 0,45,46
 93 299 93 299 68 324 c 128,-1,47
 43 349 43 349 43 384 c 128,-1,48
 43 419 43 419 68 444 c 128,-1,49
 93 469 93 469 128 469 c 128,-1,50
 163 469 163 469 188 444 c 128,-1,51
 213 419 213 419 213 384 c 0,52,53
 213 364 213 364 206 349 c 1,25,-1
EndSplineSet
Ligature2: "'liga' Standard Ligatures in Latin lookup 0 subtable" c o n t e n t underscore c u t
EndChar

StartChar: uniE14F
Encoding: 57679 57679 184
Width: 512
GlyphClass: 3
Flags: W
LayerCount: 2
Fore
SplineSet
405 85 m 1,0,-1
 405 427 l 1,1,-1
 363 427 l 1,2,-1
 363 363 l 1,3,-1
 149 363 l 1,4,-1
 149 427 l 1,5,-1
 107 427 l 1,6,-1
 107 85 l 1,7,-1
 405 85 l 1,0,-1
256 469 m 128,-1,9
 247 469 247 469 241 463 c 128,-1,10
 235 457 235 457 235 448 c 128,-1,11
 235 439 235 439 241 433 c 128,-1,12
 247 427 247 427 256 427 c 128,-1,13
 265 427 265 427 271 433 c 128,-1,14
 277 439 277 439 277 448 c 128,-1,15
 277 457 277 457 271 463 c 128,-1,8
 265 469 265 469 256 469 c 128,-1,9
405 469 m 2,16,17
 422 469 422 469 435 456.5 c 128,-1,18
 448 444 448 444 448 427 c 2,19,-1
 448 85 l 2,20,21
 448 68 448 68 435 55.5 c 128,-1,22
 422 43 422 43 405 43 c 2,23,-1
 107 43 l 2,24,25
 90 43 90 43 77 55.5 c 128,-1,26
 64 68 64 68 64 85 c 2,27,-1
 64 427 l 2,28,29
 64 444 64 444 77 456.5 c 128,-1,30
 90 469 90 469 107 469 c 2,31,-1
 196 469 l 1,32,33
 203 488 203 488 219 500 c 128,-1,34
 235 512 235 512 256 512 c 128,-1,35
 277 512 277 512 293 500 c 128,-1,36
 309 488 309 488 316 469 c 1,37,-1
 405 469 l 2,16,17
EndSplineSet
Ligature2: "'liga' Standard Ligatures in Latin lookup 0 subtable" c o n t e n t underscore p a s t e
EndChar

StartChar: uniE150
Encoding: 57680 57680 185
Width: 512
GlyphClass: 3
Flags: W
LayerCount: 2
Fore
SplineSet
442 362 m 2,0,-1
 403 323 l 1,1,-1
 323 403 l 1,2,-1
 362 442 l 2,3,4
 368 448 368 448 377 448 c 128,-1,5
 386 448 386 448 392 442 c 2,6,-1
 442 392 l 2,7,8
 448 386 448 386 448 377 c 128,-1,9
 448 368 448 368 442 362 c 2,0,-1
64 144 m 1,10,-1
 300 380 l 1,11,-1
 380 300 l 1,12,-1
 144 64 l 1,13,-1
 64 64 l 1,14,-1
 64 144 l 1,10,-1
EndSplineSet
Ligature2: "'liga' Standard Ligatures in Latin lookup 0 subtable" c r e a t e
EndChar

StartChar: uniE151
Encoding: 57681 57681 186
Width: 512
GlyphClass: 3
Flags: W
LayerCount: 2
Fore
SplineSet
256 235 m 1,0,-1
 432 345 l 1,1,-1
 256 448 l 1,2,-1
 80 345 l 1,3,-1
 256 235 l 1,0,-1
469 341 m 2,4,-1
 469 128 l 2,5,6
 469 111 469 111 456.5 98 c 128,-1,7
 444 85 444 85 427 85 c 2,8,-1
 85 85 l 2,9,10
 68 85 68 85 55.5 98 c 128,-1,11
 43 111 43 111 43 128 c 2,12,-1
 43 341 l 2,13,14
 43 366 43 366 63 378 c 2,15,-1
 256 491 l 1,16,-1
 449 378 l 2,17,18
 469 366 469 366 469 341 c 2,4,-1
EndSplineSet
Ligature2: "'liga' Standard Ligatures in Latin lookup 0 subtable" d r a f t s
EndChar

StartChar: uniE152
Encoding: 57682 57682 187
Width: 512
GlyphClass: 3
Flags: W
LayerCount: 2
Fore
SplineSet
128 235 m 1,0,-1
 128 277 l 1,1,-1
 384 277 l 1,2,-1
 384 235 l 1,3,-1
 128 235 l 1,0,-1
64 384 m 1,4,-1
 448 384 l 1,5,-1
 448 341 l 1,6,-1
 64 341 l 1,7,-1
 64 384 l 1,4,-1
213 128 m 1,8,-1
 213 171 l 1,9,-1
 299 171 l 1,10,-1
 299 128 l 1,11,-1
 213 128 l 1,8,-1
EndSplineSet
Ligature2: "'liga' Standard Ligatures in Latin lookup 0 subtable" f i l t e r underscore l i s t
EndChar

StartChar: uniE153
Encoding: 57683 57683 188
Width: 512
GlyphClass: 3
Flags: W
LayerCount: 2
Fore
SplineSet
307 384 m 1,0,-1
 427 384 l 1,1,-1
 427 171 l 1,2,-1
 277 171 l 1,3,-1
 269 213 l 1,4,-1
 149 213 l 1,5,-1
 149 64 l 1,6,-1
 107 64 l 1,7,-1
 107 427 l 1,8,-1
 299 427 l 1,9,-1
 307 384 l 1,0,-1
EndSplineSet
Ligature2: "'liga' Standard Ligatures in Latin lookup 0 subtable" f l a g
EndChar

StartChar: uniE154
Encoding: 57684 57684 189
Width: 512
GlyphClass: 3
Flags: W
LayerCount: 2
Fore
SplineSet
256 341 m 1,0,-1
 256 427 l 1,1,-1
 427 256 l 1,2,-1
 256 85 l 1,3,-1
 256 171 l 1,4,-1
 85 171 l 1,5,-1
 85 341 l 1,6,-1
 256 341 l 1,0,-1
EndSplineSet
Ligature2: "'liga' Standard Ligatures in Latin lookup 0 subtable" f o r w a r d
EndChar

StartChar: uniE155
Encoding: 57685 57685 190
Width: 512
GlyphClass: 3
Flags: W
LayerCount: 2
Fore
SplineSet
296 116 m 0,0,1
 310 116 310 116 324 134.5 c 128,-1,2
 338 153 338 153 342 191 c 1,3,4
 312 183 312 183 296 164 c 128,-1,5
 280 145 280 145 280 132 c 0,6,7
 280 125 280 125 285 120.5 c 128,-1,8
 290 116 290 116 296 116 c 0,0,1
98 365 m 1,9,-1
 61 401 l 1,10,11
 71 413 71 413 79 421 c 0,12,13
 106 448 106 448 137 448 c 0,14,15
 156 448 156 448 173.5 433 c 128,-1,16
 191 418 191 418 191 387 c 0,17,18
 191 357 191 357 163 317 c 0,19,20
 135 278 135 278 124 242 c 0,21,22
 118 225 118 225 120.5 213 c 128,-1,23
 123 201 123 201 131 201 c 0,24,25
 140 201 140 201 155 219 c 0,26,27
 177 241 177 241 204 277 c 0,28,29
 252 337 252 337 309 337 c 0,30,31
 351 337 351 337 371.5 309.5 c 128,-1,32
 392 282 392 282 395 248 c 1,33,-1
 448 248 l 1,34,-1
 448 195 l 1,35,-1
 396 195 l 1,36,37
 390 126 390 126 359 95 c 128,-1,38
 328 64 328 64 295 64 c 0,39,40
 267 64 267 64 247 83.5 c 128,-1,41
 227 103 227 103 227 130 c 0,42,43
 227 163 227 163 257 199 c 128,-1,44
 287 235 287 235 342 245 c 1,45,46
 341 253 341 253 340.5 256 c 128,-1,47
 340 259 340 259 337.5 265.5 c 128,-1,48
 335 272 335 272 331.5 275 c 128,-1,49
 328 278 328 278 321 280.5 c 128,-1,50
 314 283 314 283 304 283 c 0,51,52
 276 283 276 283 217 210 c 0,53,54
 200 189 200 189 193.5 181.5 c 128,-1,55
 187 174 187 174 175 164 c 128,-1,56
 163 154 163 154 152 151 c 0,57,58
 117 140 117 140 92 164 c 128,-1,59
 67 188 67 188 67 224 c 0,60,61
 67 239 67 239 72.5 257 c 128,-1,62
 78 275 78 275 87 292 c 128,-1,63
 96 309 96 309 104 322.5 c 128,-1,64
 112 336 112 336 119.5 347 c 128,-1,65
 127 358 127 358 128 359 c 0,66,67
 145 387 145 387 134 391 c 0,68,69
 127 394 127 394 98 365 c 1,9,-1
EndSplineSet
Ligature2: "'liga' Standard Ligatures in Latin lookup 0 subtable" g e s t u r e
EndChar

StartChar: uniE156
Encoding: 57686 57686 191
Width: 512
GlyphClass: 3
Flags: W
LayerCount: 2
Fore
SplineSet
405 192 m 1,0,-1
 405 405 l 1,1,-1
 106 405 l 1,2,-1
 106 192 l 1,3,-1
 192 192 l 1,4,5
 192 166 192 166 211 147 c 128,-1,6
 230 128 230 128 256 128 c 128,-1,7
 282 128 282 128 301 147 c 128,-1,8
 320 166 320 166 320 192 c 1,9,-1
 405 192 l 1,0,-1
405 448 m 2,10,11
 422 448 422 448 435 435.5 c 128,-1,12
 448 423 448 423 448 405 c 2,13,-1
 448 107 l 2,14,15
 448 90 448 90 435 77 c 128,-1,16
 422 64 422 64 405 64 c 2,17,-1
 106 64 l 2,18,19
 88 64 88 64 76 76.5 c 128,-1,20
 64 89 64 89 64 107 c 2,21,-1
 64 405 l 2,22,23
 64 423 64 423 76 435.5 c 128,-1,24
 88 448 88 448 106 448 c 2,25,-1
 405 448 l 2,10,11
EndSplineSet
Ligature2: "'liga' Standard Ligatures in Latin lookup 0 subtable" i n b o x
EndChar

StartChar: uniE157
Encoding: 57687 57687 192
Width: 512
GlyphClass: 3
Flags: W
LayerCount: 2
Fore
SplineSet
363 363 m 2,0,1
 407 363 407 363 438 331.5 c 128,-1,2
 469 300 469 300 469 256 c 128,-1,3
 469 212 469 212 438 180.5 c 128,-1,4
 407 149 407 149 363 149 c 2,5,-1
 277 149 l 1,6,-1
 277 190 l 1,7,-1
 363 190 l 2,8,9
 390 190 390 190 409.5 209.5 c 128,-1,10
 429 229 429 229 429 256 c 128,-1,11
 429 283 429 283 409.5 302.5 c 128,-1,12
 390 322 390 322 363 322 c 2,13,-1
 277 322 l 1,14,-1
 277 363 l 1,15,-1
 363 363 l 2,0,1
171 235 m 1,16,-1
 171 277 l 1,17,-1
 341 277 l 1,18,-1
 341 235 l 1,19,-1
 171 235 l 1,16,-1
83 256 m 128,-1,21
 83 229 83 229 102.5 209.5 c 128,-1,22
 122 190 122 190 149 190 c 2,23,-1
 235 190 l 1,24,-1
 235 149 l 1,25,-1
 149 149 l 2,26,27
 105 149 105 149 74 180.5 c 128,-1,28
 43 212 43 212 43 256 c 128,-1,29
 43 300 43 300 74 331.5 c 128,-1,30
 105 363 105 363 149 363 c 2,31,-1
 235 363 l 1,32,-1
 235 322 l 1,33,-1
 149 322 l 2,34,35
 122 322 122 322 102.5 302.5 c 128,-1,20
 83 283 83 283 83 256 c 128,-1,21
EndSplineSet
Ligature2: "'liga' Standard Ligatures in Latin lookup 0 subtable" l i n k
EndChar

StartChar: uniE158
Encoding: 57688 57688 193
Width: 512
GlyphClass: 3
Flags: W
LayerCount: 2
Fore
SplineSet
427 341 m 1,0,-1
 427 384 l 1,1,-1
 256 277 l 1,2,-1
 85 384 l 1,3,-1
 85 341 l 1,4,-1
 256 235 l 1,5,-1
 427 341 l 1,0,-1
427 427 m 2,6,7
 444 427 444 427 456.5 414 c 128,-1,8
 469 401 469 401 469 384 c 2,9,-1
 469 128 l 2,10,11
 469 111 469 111 456.5 98 c 128,-1,12
 444 85 444 85 427 85 c 2,13,-1
 85 85 l 2,14,15
 68 85 68 85 55.5 98 c 128,-1,16
 43 111 43 111 43 128 c 2,17,-1
 43 384 l 2,18,19
 43 401 43 401 55.5 414 c 128,-1,20
 68 427 68 427 85 427 c 2,21,-1
 427 427 l 2,6,7
EndSplineSet
Ligature2: "'liga' Standard Ligatures in Latin lookup 0 subtable" m a i l
EndChar

StartChar: uniE159
Encoding: 57689 57689 194
Width: 512
GlyphClass: 3
Flags: W
LayerCount: 2
Fore
SplineSet
427 341 m 1,0,-1
 427 384 l 1,1,-1
 256 277 l 1,2,-1
 85 384 l 1,3,-1
 85 341 l 1,4,-1
 256 235 l 1,5,-1
 427 341 l 1,0,-1
427 427 m 2,6,7
 444 427 444 427 456.5 414 c 128,-1,8
 469 401 469 401 469 384 c 2,9,-1
 469 128 l 2,10,11
 469 111 469 111 456.5 98 c 128,-1,12
 444 85 444 85 427 85 c 2,13,-1
 85 85 l 2,14,15
 68 85 68 85 55.5 98 c 128,-1,16
 43 111 43 111 43 128 c 2,17,-1
 43 384 l 2,18,19
 43 401 43 401 55.5 414 c 128,-1,20
 68 427 68 427 85 427 c 2,21,-1
 427 427 l 2,6,7
EndSplineSet
Ligature2: "'liga' Standard Ligatures in Latin lookup 0 subtable" m a r k u n r e a d
EndChar

StartChar: uniE15A
Encoding: 57690 57690 195
Width: 512
GlyphClass: 3
Flags: W
LayerCount: 2
Fore
SplineSet
393 286 m 1,0,-1
 469 363 l 1,1,-1
 469 171 l 1,2,-1
 277 171 l 1,3,-1
 355 248 l 1,4,5
 307 288 307 288 245 288 c 0,6,7
 189 288 189 288 144.5 255.5 c 128,-1,8
 100 223 100 223 83 171 c 1,9,-1
 33 187 l 1,10,11
 55 255 55 255 113.5 298 c 128,-1,12
 172 341 172 341 245 341 c 0,13,14
 330 341 330 341 393 286 c 1,0,-1
EndSplineSet
Ligature2: "'liga' Standard Ligatures in Latin lookup 0 subtable" r e d o
EndChar

StartChar: uniE15B
Encoding: 57691 57691 196
Width: 512
GlyphClass: 3
Flags: W
LayerCount: 2
Fore
SplineSet
405 235 m 1,0,-1
 107 235 l 1,1,-1
 107 277 l 1,2,-1
 405 277 l 1,3,-1
 405 235 l 1,0,-1
EndSplineSet
Ligature2: "'liga' Standard Ligatures in Latin lookup 0 subtable" r e m o v e
EndChar

StartChar: uniE15C
Encoding: 57692 57692 197
Width: 512
GlyphClass: 3
Flags: W
LayerCount: 2
Fore
SplineSet
363 235 m 1,0,-1
 363 277 l 1,1,-1
 149 277 l 1,2,-1
 149 235 l 1,3,-1
 363 235 l 1,0,-1
256 469 m 128,-1,5
 344 469 344 469 406.5 406.5 c 128,-1,6
 469 344 469 344 469 256 c 128,-1,7
 469 168 469 168 406.5 105.5 c 128,-1,8
 344 43 344 43 256 43 c 128,-1,9
 168 43 168 43 105.5 105.5 c 128,-1,10
 43 168 43 168 43 256 c 128,-1,11
 43 344 43 344 105.5 406.5 c 128,-1,4
 168 469 168 469 256 469 c 128,-1,5
EndSplineSet
Ligature2: "'liga' Standard Ligatures in Latin lookup 0 subtable" r e m o v e underscore c i r c l e
EndChar

StartChar: uniE15D
Encoding: 57693 57693 198
Width: 512
GlyphClass: 3
Flags: W
LayerCount: 2
Fore
SplineSet
256 85 m 128,-1,1
 326 85 326 85 376.5 135.5 c 128,-1,2
 427 186 427 186 427 256 c 128,-1,3
 427 326 427 326 376.5 376.5 c 128,-1,4
 326 427 326 427 256 427 c 128,-1,5
 186 427 186 427 135.5 376.5 c 128,-1,6
 85 326 85 326 85 256 c 128,-1,7
 85 186 85 186 135.5 135.5 c 128,-1,0
 186 85 186 85 256 85 c 128,-1,1
256 469 m 128,-1,9
 344 469 344 469 406.5 406.5 c 128,-1,10
 469 344 469 344 469 256 c 128,-1,11
 469 168 469 168 406.5 105.5 c 128,-1,12
 344 43 344 43 256 43 c 128,-1,13
 168 43 168 43 105.5 105.5 c 128,-1,14
 43 168 43 168 43 256 c 128,-1,15
 43 344 43 344 105.5 406.5 c 128,-1,8
 168 469 168 469 256 469 c 128,-1,9
149 277 m 1,16,-1
 363 277 l 1,17,-1
 363 235 l 1,18,-1
 149 235 l 1,19,-1
 149 277 l 1,16,-1
EndSplineSet
Ligature2: "'liga' Standard Ligatures in Latin lookup 0 subtable" r e m o v e underscore c i r c l e underscore o u t l i n e
EndChar

StartChar: uniE15E
Encoding: 57694 57694 199
Width: 512
GlyphClass: 3
Flags: W
LayerCount: 2
Fore
SplineSet
213 320 m 1,0,1
 317 305 317 305 373.5 240.5 c 128,-1,2
 430 176 430 176 448 85 c 1,3,4
 371 194 371 194 213 194 c 1,5,-1
 213 107 l 1,6,-1
 64 256 l 1,7,-1
 213 405 l 1,8,-1
 213 320 l 1,0,1
EndSplineSet
Ligature2: "'liga' Standard Ligatures in Latin lookup 0 subtable" r e p l y
EndChar

StartChar: uniE15F
Encoding: 57695 57695 200
Width: 512
GlyphClass: 3
Flags: W
LayerCount: 2
Fore
SplineSet
277 320 m 1,0,1
 381 305 381 305 437.5 240.5 c 128,-1,2
 494 176 494 176 512 85 c 1,3,4
 435 194 435 194 277 194 c 1,5,-1
 277 107 l 1,6,-1
 128 256 l 1,7,-1
 277 405 l 1,8,-1
 277 320 l 1,0,1
149 341 m 1,9,-1
 64 256 l 1,10,-1
 149 171 l 1,11,-1
 149 107 l 1,12,-1
 0 256 l 1,13,-1
 149 405 l 1,14,-1
 149 341 l 1,9,-1
EndSplineSet
Ligature2: "'liga' Standard Ligatures in Latin lookup 0 subtable" r e p l y underscore a l l
EndChar

StartChar: uniE160
Encoding: 57696 57696 201
Width: 512
GlyphClass: 3
Flags: W
LayerCount: 2
Fore
SplineSet
277 235 m 1,0,-1
 277 363 l 1,1,-1
 235 363 l 1,2,-1
 235 235 l 1,3,-1
 277 235 l 1,0,-1
256 143 m 128,-1,5
 267 143 267 143 275.5 151.5 c 128,-1,6
 284 160 284 160 284 171 c 128,-1,7
 284 182 284 182 275.5 190 c 128,-1,8
 267 198 267 198 256 198 c 128,-1,9
 245 198 245 198 236.5 190 c 128,-1,10
 228 182 228 182 228 171 c 128,-1,11
 228 160 228 160 236.5 151.5 c 128,-1,4
 245 143 245 143 256 143 c 128,-1,5
336 448 m 1,12,-1
 448 336 l 1,13,-1
 448 176 l 1,14,-1
 336 64 l 1,15,-1
 176 64 l 1,16,-1
 64 176 l 1,17,-1
 64 336 l 1,18,-1
 176 448 l 1,19,-1
 336 448 l 1,12,-1
EndSplineSet
Ligature2: "'liga' Standard Ligatures in Latin lookup 0 subtable" r e p o r t
EndChar

StartChar: uniE161
Encoding: 57697 57697 202
Width: 512
GlyphClass: 3
Flags: W
LayerCount: 2
Fore
SplineSet
320 320 m 1,0,-1
 320 405 l 1,1,-1
 107 405 l 1,2,-1
 107 320 l 1,3,-1
 320 320 l 1,0,-1
256 107 m 128,-1,5
 282 107 282 107 301 126 c 128,-1,6
 320 145 320 145 320 171 c 128,-1,7
 320 197 320 197 301 216 c 128,-1,8
 282 235 282 235 256 235 c 128,-1,9
 230 235 230 235 211 216 c 128,-1,10
 192 197 192 197 192 171 c 128,-1,11
 192 145 192 145 211 126 c 128,-1,4
 230 107 230 107 256 107 c 128,-1,5
363 448 m 1,12,-1
 448 363 l 1,13,-1
 448 107 l 2,14,15
 448 90 448 90 435 77 c 128,-1,16
 422 64 422 64 405 64 c 2,17,-1
 107 64 l 2,18,19
 89 64 89 64 76.5 77 c 128,-1,20
 64 90 64 90 64 107 c 2,21,-1
 64 405 l 2,22,23
 64 422 64 422 76.5 435 c 128,-1,24
 89 448 89 448 107 448 c 2,25,-1
 363 448 l 1,12,-1
EndSplineSet
Ligature2: "'liga' Standard Ligatures in Latin lookup 0 subtable" s a v e
EndChar

StartChar: uniE162
Encoding: 57698 57698 203
Width: 512
GlyphClass: 3
Flags: W
LayerCount: 2
Fore
SplineSet
192 320 m 1,0,-1
 192 192 l 1,1,-1
 320 192 l 1,2,-1
 320 320 l 1,3,-1
 192 320 l 1,0,-1
149 149 m 1,4,-1
 149 363 l 1,5,-1
 363 363 l 1,6,-1
 363 149 l 1,7,-1
 149 149 l 1,4,-1
320 405 m 1,8,-1
 320 448 l 1,9,-1
 363 448 l 1,10,-1
 363 405 l 1,11,-1
 320 405 l 1,8,-1
320 64 m 1,12,-1
 320 107 l 1,13,-1
 363 107 l 1,14,-1
 363 64 l 1,15,-1
 320 64 l 1,12,-1
405 149 m 1,16,-1
 405 192 l 1,17,-1
 448 192 l 1,18,-1
 448 149 l 1,19,-1
 405 149 l 1,16,-1
405 320 m 1,20,-1
 405 363 l 1,21,-1
 448 363 l 1,22,-1
 448 320 l 1,23,-1
 405 320 l 1,20,-1
405 64 m 1,24,-1
 405 107 l 1,25,-1
 448 107 l 1,26,27
 448 90 448 90 435 77 c 128,-1,28
 422 64 422 64 405 64 c 1,24,-1
405 235 m 1,29,-1
 405 277 l 1,30,-1
 448 277 l 1,31,-1
 448 235 l 1,32,-1
 405 235 l 1,29,-1
235 64 m 1,33,-1
 235 107 l 1,34,-1
 277 107 l 1,35,-1
 277 64 l 1,36,-1
 235 64 l 1,33,-1
192 448 m 1,37,-1
 192 405 l 1,38,-1
 149 405 l 1,39,-1
 149 448 l 1,40,-1
 192 448 l 1,37,-1
64 149 m 1,41,-1
 64 192 l 1,42,-1
 107 192 l 1,43,-1
 107 149 l 1,44,-1
 64 149 l 1,41,-1
107 64 m 1,45,46
 90 64 90 64 77 77 c 128,-1,47
 64 90 64 90 64 107 c 1,48,-1
 107 107 l 1,49,-1
 107 64 l 1,45,46
405 448 m 1,50,51
 422 448 422 448 435 435 c 128,-1,52
 448 422 448 422 448 405 c 1,53,-1
 405 405 l 1,54,-1
 405 448 l 1,50,51
277 448 m 1,55,-1
 277 405 l 1,56,-1
 235 405 l 1,57,-1
 235 448 l 1,58,-1
 277 448 l 1,55,-1
64 320 m 1,59,-1
 64 363 l 1,60,-1
 107 363 l 1,61,-1
 107 320 l 1,62,-1
 64 320 l 1,59,-1
149 64 m 1,63,-1
 149 107 l 1,64,-1
 192 107 l 1,65,-1
 192 64 l 1,66,-1
 149 64 l 1,63,-1
64 235 m 1,67,-1
 64 277 l 1,68,-1
 107 277 l 1,69,-1
 107 235 l 1,70,-1
 64 235 l 1,67,-1
64 405 m 1,71,72
 64 422 64 422 77 435 c 128,-1,73
 90 448 90 448 107 448 c 1,74,-1
 107 405 l 1,75,-1
 64 405 l 1,71,72
EndSplineSet
Ligature2: "'liga' Standard Ligatures in Latin lookup 0 subtable" s e l e c t underscore a l l
EndChar

StartChar: uniE163
Encoding: 57699 57699 204
Width: 512
GlyphClass: 3
Flags: W
LayerCount: 2
Fore
SplineSet
43 64 m 1,0,-1
 43 213 l 1,1,-1
 363 256 l 1,2,-1
 43 299 l 1,3,-1
 43 448 l 1,4,-1
 491 256 l 1,5,-1
 43 64 l 1,0,-1
EndSplineSet
Ligature2: "'liga' Standard Ligatures in Latin lookup 0 subtable" s e n d
EndChar

StartChar: uniE164
Encoding: 57700 57700 205
Width: 512
GlyphClass: 3
Flags: W
LayerCount: 2
Fore
SplineSet
64 235 m 1,0,-1
 64 277 l 1,1,-1
 320 277 l 1,2,-1
 320 235 l 1,3,-1
 64 235 l 1,0,-1
64 384 m 1,4,-1
 448 384 l 1,5,-1
 448 341 l 1,6,-1
 64 341 l 1,7,-1
 64 384 l 1,4,-1
64 128 m 1,8,-1
 64 171 l 1,9,-1
 192 171 l 1,10,-1
 192 128 l 1,11,-1
 64 128 l 1,8,-1
EndSplineSet
Ligature2: "'liga' Standard Ligatures in Latin lookup 0 subtable" s o r t
EndChar

StartChar: uniE165
Encoding: 57701 57701 206
Width: 512
GlyphClass: 3
Flags: W
LayerCount: 2
Fore
SplineSet
256 384 m 1,0,-1
 216 277 l 1,1,-1
 296 277 l 1,2,-1
 256 384 l 1,0,-1
203 239 m 1,3,-1
 183 192 l 1,4,-1
 139 192 l 1,5,-1
 240 427 l 1,6,-1
 272 427 l 1,7,-1
 373 192 l 1,8,-1
 329 192 l 1,9,-1
 309 239 l 1,10,-1
 203 239 l 1,3,-1
107 149 m 1,11,-1
 405 149 l 1,12,-1
 405 107 l 1,13,-1
 107 107 l 1,14,-1
 107 149 l 1,11,-1
EndSplineSet
Ligature2: "'liga' Standard Ligatures in Latin lookup 0 subtable" t e x t underscore f o r m a t
EndChar

StartChar: uniE166
Encoding: 57702 57702 207
Width: 512
GlyphClass: 3
Flags: W
LayerCount: 2
Fore
SplineSet
267 341 m 0,0,1
 340 341 340 341 398 298 c 128,-1,2
 456 255 456 255 479 187 c 1,3,-1
 429 171 l 1,4,5
 412 223 412 223 367.5 255.5 c 128,-1,6
 323 288 323 288 267 288 c 0,7,8
 205 288 205 288 157 248 c 1,9,-1
 235 171 l 1,10,-1
 43 171 l 1,11,-1
 43 363 l 1,12,-1
 119 286 l 1,13,14
 182 341 182 341 267 341 c 0,0,1
EndSplineSet
Ligature2: "'liga' Standard Ligatures in Latin lookup 0 subtable" u n d o
EndChar

StartChar: uniE167
Encoding: 57703 57703 208
Width: 512
GlyphClass: 3
Flags: W
LayerCount: 2
Fore
SplineSet
340 117 m 1,0,-1
 385 117 l 1,1,-1
 276 395 l 1,2,-1
 236 395 l 1,3,-1
 127 117 l 1,4,-1
 172 117 l 1,5,-1
 196 181 l 1,6,-1
 316 181 l 1,7,-1
 340 117 l 1,0,-1
427 469 m 2,8,9
 444 469 444 469 456.5 456.5 c 128,-1,10
 469 444 469 444 469 427 c 2,11,-1
 469 85 l 2,12,13
 469 68 469 68 456.5 55.5 c 128,-1,14
 444 43 444 43 427 43 c 2,15,-1
 85 43 l 2,16,17
 68 43 68 43 55.5 55.5 c 128,-1,18
 43 68 43 68 43 85 c 2,19,-1
 43 427 l 2,20,21
 43 444 43 444 55.5 456.5 c 128,-1,22
 68 469 68 469 85 469 c 2,23,-1
 427 469 l 2,8,9
212 224 m 1,24,-1
 256 342 l 1,25,-1
 300 224 l 1,26,-1
 212 224 l 1,24,-1
EndSplineSet
Ligature2: "'liga' Standard Ligatures in Latin lookup 0 subtable" f o n t underscore d o w n l o a d
EndChar

StartChar: uniE168
Encoding: 57704 57704 209
Width: 512
GlyphClass: 3
Flags: W
LayerCount: 2
Fore
SplineSet
341 299 m 1,0,-1
 256 213 l 1,1,-1
 171 299 l 1,2,-1
 213 299 l 1,3,-1
 213 363 l 1,4,-1
 299 363 l 1,5,-1
 299 299 l 1,6,-1
 341 299 l 1,0,-1
405 192 m 1,7,-1
 405 405 l 1,8,-1
 106 405 l 1,9,-1
 106 192 l 1,10,-1
 192 192 l 1,11,12
 192 166 192 166 211 147 c 128,-1,13
 230 128 230 128 256 128 c 128,-1,14
 282 128 282 128 301 147 c 128,-1,15
 320 166 320 166 320 192 c 1,16,-1
 405 192 l 1,7,-1
405 448 m 2,17,18
 422 448 422 448 435 435 c 128,-1,19
 448 422 448 422 448 405 c 2,20,-1
 448 107 l 2,21,22
 448 90 448 90 435 77 c 128,-1,23
 422 64 422 64 405 64 c 2,24,-1
 106 64 l 2,25,26
 88 64 88 64 76 76.5 c 128,-1,27
 64 89 64 89 64 107 c 2,28,-1
 64 405 l 2,29,30
 64 423 64 423 76 435.5 c 128,-1,31
 88 448 88 448 106 448 c 2,32,-1
 405 448 l 2,17,18
EndSplineSet
Ligature2: "'liga' Standard Ligatures in Latin lookup 0 subtable" m o v e underscore t o underscore i n b o x
EndChar

StartChar: uniE169
Encoding: 57705 57705 210
Width: 512
GlyphClass: 3
Flags: W
LayerCount: 2
Fore
SplineSet
109 405 m 1,0,-1
 403 405 l 1,1,-1
 383 427 l 1,2,-1
 127 427 l 1,3,-1
 109 405 l 1,0,-1
256 309 m 1,4,-1
 139 192 l 1,5,-1
 213 192 l 1,6,-1
 213 149 l 1,7,-1
 299 149 l 1,8,-1
 299 192 l 1,9,-1
 373 192 l 1,10,-1
 256 309 l 1,4,-1
438 401 m 2,11,12
 448 389 448 389 448 373 c 2,13,-1
 448 107 l 2,14,15
 448 90 448 90 435 77 c 128,-1,16
 422 64 422 64 405 64 c 2,17,-1
 107 64 l 2,18,19
 89 64 89 64 76.5 77 c 128,-1,20
 64 90 64 90 64 107 c 2,21,-1
 64 373 l 2,22,23
 64 389 64 389 74 401 c 2,24,-1
 103 436 l 2,25,26
 113 448 113 448 128 448 c 2,27,-1
 384 448 l 2,28,29
 399 448 399 448 409 436 c 2,30,-1
 438 401 l 2,11,12
EndSplineSet
Ligature2: "'liga' Standard Ligatures in Latin lookup 0 subtable" u n a r c h i v e
EndChar

StartChar: uniE16A
Encoding: 57706 57706 211
Width: 512
GlyphClass: 3
Flags: W
LayerCount: 2
Fore
SplineSet
235 117 m 1,0,-1
 320 203 l 1,1,-1
 235 288 l 1,2,-1
 213 267 l 1,3,-1
 277 203 l 1,4,-1
 213 139 l 1,5,-1
 235 117 l 1,0,-1
213 405 m 1,6,-1
 213 363 l 1,7,-1
 299 363 l 1,8,-1
 299 405 l 1,9,-1
 213 405 l 1,6,-1
299 448 m 2,10,11
 316 448 316 448 328.5 435.5 c 128,-1,12
 341 423 341 423 341 405 c 2,13,-1
 341 363 l 1,14,-1
 427 363 l 2,15,16
 444 363 444 363 456.5 350 c 128,-1,17
 469 337 469 337 469 320 c 2,18,-1
 469 85 l 2,19,20
 469 68 469 68 456.5 55.5 c 128,-1,21
 444 43 444 43 427 43 c 2,22,-1
 85 43 l 2,23,24
 68 43 68 43 55.5 55.5 c 128,-1,25
 43 68 43 68 43 85 c 2,26,-1
 43 320 l 2,27,28
 43 337 43 337 55.5 350 c 128,-1,29
 68 363 68 363 85 363 c 2,30,-1
 171 363 l 1,31,-1
 171 405 l 2,32,33
 171 422 171 422 183.5 435 c 128,-1,34
 196 448 196 448 213 448 c 2,35,-1
 299 448 l 2,10,11
EndSplineSet
Ligature2: "'liga' Standard Ligatures in Latin lookup 0 subtable" n e x t underscore w e e k
EndChar

StartChar: uniE16B
Encoding: 57707 57707 212
Width: 512
GlyphClass: 3
Flags: W
LayerCount: 2
Fore
SplineSet
384 405 m 2,0,1
 401 405 401 405 414 392.5 c 128,-1,2
 427 380 427 380 427 363 c 2,3,-1
 427 317 l 1,4,5
 408 310 408 310 396 294 c 128,-1,6
 384 278 384 278 384 257 c 2,7,-1
 384 213 l 1,8,-1
 128 213 l 1,9,-1
 128 257 l 2,10,11
 128 278 128 278 116 294 c 128,-1,12
 104 310 104 310 85 317 c 1,13,-1
 85 363 l 2,14,15
 85 380 85 380 98 392.5 c 128,-1,16
 111 405 111 405 128 405 c 2,17,-1
 384 405 l 2,0,1
448 299 m 128,-1,19
 465 299 465 299 478 286 c 128,-1,20
 491 273 491 273 491 256 c 2,21,-1
 491 149 l 2,22,23
 491 132 491 132 478 119.5 c 128,-1,24
 465 107 465 107 448 107 c 2,25,-1
 64 107 l 2,26,27
 47 107 47 107 34 119.5 c 128,-1,28
 21 132 21 132 21 149 c 2,29,-1
 21 256 l 2,30,31
 21 273 21 273 34 286 c 128,-1,32
 47 299 47 299 64 299 c 128,-1,33
 81 299 81 299 94 286 c 128,-1,34
 107 273 107 273 107 256 c 2,35,-1
 107 192 l 1,36,-1
 405 192 l 1,37,-1
 405 256 l 2,38,39
 405 273 405 273 418 286 c 128,-1,18
 431 299 431 299 448 299 c 128,-1,19
EndSplineSet
Ligature2: "'liga' Standard Ligatures in Latin lookup 0 subtable" w e e k e n d
EndChar

StartChar: uniE16C
Encoding: 57708 57708 213
Width: 512
GlyphClass: 3
Flags: W
LayerCount: 2
Fore
SplineSet
299 405 m 1,0,-1
 299 363 l 1,1,-1
 43 363 l 1,2,-1
 43 405 l 1,3,-1
 107 405 l 1,4,-1
 128 427 l 1,5,-1
 213 427 l 1,6,-1
 235 405 l 1,7,-1
 299 405 l 1,0,-1
64 128 m 2,8,-1
 64 341 l 1,9,-1
 277 341 l 1,10,-1
 277 128 l 2,11,12
 277 111 277 111 264.5 98 c 128,-1,13
 252 85 252 85 235 85 c 2,14,-1
 107 85 l 2,15,16
 90 85 90 85 77 98 c 128,-1,17
 64 111 64 111 64 128 c 2,8,-1
320 256 m 1,18,-1
 448 256 l 1,19,-1
 448 213 l 1,20,-1
 320 213 l 1,21,-1
 320 256 l 1,18,-1
320 341 m 1,22,-1
 469 341 l 1,23,-1
 469 299 l 1,24,-1
 320 299 l 1,25,-1
 320 341 l 1,22,-1
320 171 m 1,26,-1
 405 171 l 1,27,-1
 405 128 l 1,28,-1
 320 128 l 1,29,-1
 320 171 l 1,26,-1
EndSplineSet
Ligature2: "'liga' Standard Ligatures in Latin lookup 0 subtable" d e l e t e underscore s w e e p
EndChar

StartChar: uniE16D
Encoding: 57709 57709 214
Width: 512
GlyphClass: 3
Flags: W
LayerCount: 2
Fore
SplineSet
43 267 m 128,-1,1
 43 324 43 324 83.5 364.5 c 128,-1,2
 124 405 124 405 181 405 c 2,3,-1
 256 405 l 1,4,-1
 256 363 l 1,5,-1
 181 363 l 2,6,7
 141 363 141 363 113 335 c 128,-1,8
 85 307 85 307 85 267 c 128,-1,9
 85 227 85 227 113 199 c 128,-1,10
 141 171 141 171 181 171 c 2,11,-1
 192 171 l 1,12,-1
 192 213 l 1,13,-1
 256 149 l 1,14,-1
 192 85 l 1,15,-1
 192 128 l 1,16,-1
 181 128 l 2,17,18
 124 128 124 128 83.5 169 c 128,-1,0
 43 210 43 210 43 267 c 128,-1,1
299 171 m 1,19,-1
 469 171 l 1,20,-1
 469 128 l 1,21,-1
 299 128 l 1,22,-1
 299 171 l 1,19,-1
299 288 m 1,23,-1
 469 288 l 1,24,-1
 469 245 l 1,25,-1
 299 245 l 1,26,-1
 299 288 l 1,23,-1
299 405 m 1,27,-1
 469 405 l 1,28,-1
 469 363 l 1,29,-1
 299 363 l 1,30,-1
 299 405 l 1,27,-1
EndSplineSet
Ligature2: "'liga' Standard Ligatures in Latin lookup 0 subtable" l o w underscore p r i o r i t y
EndChar

StartChar: uniE190
Encoding: 57744 57744 215
Width: 512
GlyphClass: 3
Flags: W
LayerCount: 2
Fore
SplineSet
256 85 m 128,-1,1
 318 85 318 85 361.5 129 c 128,-1,2
 405 173 405 173 405 235 c 128,-1,3
 405 297 405 297 361.5 340.5 c 128,-1,4
 318 384 318 384 256 384 c 128,-1,5
 194 384 194 384 150.5 340.5 c 128,-1,6
 107 297 107 297 107 235 c 128,-1,7
 107 173 107 173 150.5 129 c 128,-1,0
 194 85 194 85 256 85 c 128,-1,1
256 427 m 128,-1,9
 336 427 336 427 392 370.5 c 128,-1,10
 448 314 448 314 448 235 c 128,-1,11
 448 156 448 156 392 99.5 c 128,-1,12
 336 43 336 43 256 43 c 128,-1,13
 176 43 176 43 120 99.5 c 128,-1,14
 64 156 64 156 64 235 c 128,-1,15
 64 314 64 314 120 370.5 c 128,-1,8
 176 427 176 427 256 427 c 128,-1,9
267 341 m 1,16,-1
 267 229 l 1,17,-1
 352 179 l 1,18,-1
 336 153 l 1,19,-1
 235 213 l 1,20,-1
 235 341 l 1,21,-1
 267 341 l 1,16,-1
168 440 m 1,22,-1
 70 358 l 1,23,-1
 43 390 l 1,24,-1
 141 472 l 1,25,-1
 168 440 l 1,22,-1
469 390 m 1,26,-1
 442 357 l 1,27,-1
 344 440 l 1,28,-1
 371 472 l 1,29,-1
 469 390 l 1,26,-1
EndSplineSet
Ligature2: "'liga' Standard Ligatures in Latin lookup 0 subtable" a c c e s s underscore a l a r m
EndChar

StartChar: uniE191
Encoding: 57745 57745 216
Width: 512
GlyphClass: 3
Flags: W
LayerCount: 2
Fore
SplineSet
256 85 m 128,-1,1
 318 85 318 85 361.5 129 c 128,-1,2
 405 173 405 173 405 235 c 128,-1,3
 405 297 405 297 361.5 340.5 c 128,-1,4
 318 384 318 384 256 384 c 128,-1,5
 194 384 194 384 150.5 340.5 c 128,-1,6
 107 297 107 297 107 235 c 128,-1,7
 107 173 107 173 150.5 129 c 128,-1,0
 194 85 194 85 256 85 c 128,-1,1
256 427 m 128,-1,9
 336 427 336 427 392 371 c 128,-1,10
 448 315 448 315 448 235 c 128,-1,11
 448 155 448 155 392 99 c 128,-1,12
 336 43 336 43 256 43 c 128,-1,13
 176 43 176 43 120 99 c 128,-1,14
 64 155 64 155 64 235 c 128,-1,15
 64 315 64 315 120 371 c 128,-1,8
 176 427 176 427 256 427 c 128,-1,9
267 341 m 1,16,-1
 267 228 l 1,17,-1
 352 177 l 1,18,-1
 335 151 l 1,19,-1
 235 213 l 1,20,-1
 235 341 l 1,21,-1
 267 341 l 1,16,-1
169 439 m 1,22,-1
 70 358 l 1,23,-1
 43 390 l 1,24,-1
 141 471 l 1,25,-1
 169 439 l 1,22,-1
469 390 m 1,26,-1
 442 358 l 1,27,-1
 343 442 l 1,28,-1
 371 474 l 1,29,-1
 469 390 l 1,26,-1
EndSplineSet
Ligature2: "'liga' Standard Ligatures in Latin lookup 0 subtable" a c c e s s underscore a l a r m s
EndChar

StartChar: uniE192
Encoding: 57746 57746 217
Width: 512
GlyphClass: 3
Flags: W
LayerCount: 2
Fore
SplineSet
267 363 m 1,0,-1
 267 251 l 1,1,-1
 363 194 l 1,2,-1
 347 167 l 1,3,-1
 235 235 l 1,4,-1
 235 363 l 1,5,-1
 267 363 l 1,0,-1
256 85 m 128,-1,7
 326 85 326 85 376.5 135.5 c 128,-1,8
 427 186 427 186 427 256 c 128,-1,9
 427 326 427 326 376.5 376.5 c 128,-1,10
 326 427 326 427 256 427 c 128,-1,11
 186 427 186 427 135.5 376.5 c 128,-1,12
 85 326 85 326 85 256 c 128,-1,13
 85 186 85 186 135.5 135.5 c 128,-1,6
 186 85 186 85 256 85 c 128,-1,7
256 469 m 128,-1,15
 344 469 344 469 406.5 406.5 c 128,-1,16
 469 344 469 344 469 256 c 128,-1,17
 469 168 469 168 406.5 105.5 c 128,-1,18
 344 43 344 43 256 43 c 128,-1,19
 168 43 168 43 105.5 105.5 c 128,-1,20
 43 168 43 168 43 256 c 128,-1,21
 43 344 43 344 105.5 406.5 c 128,-1,14
 168 469 168 469 256 469 c 128,-1,15
EndSplineSet
Ligature2: "'liga' Standard Ligatures in Latin lookup 0 subtable" a c c e s s underscore t i m e
EndChar

StartChar: uniE193
Encoding: 57747 57747 218
Width: 512
GlyphClass: 3
Flags: W
LayerCount: 2
Fore
SplineSet
277 320 m 1,0,-1
 277 256 l 1,1,-1
 341 256 l 1,2,-1
 341 213 l 1,3,-1
 277 213 l 1,4,-1
 277 149 l 1,5,-1
 235 149 l 1,6,-1
 235 213 l 1,7,-1
 171 213 l 1,8,-1
 171 256 l 1,9,-1
 235 256 l 1,10,-1
 235 320 l 1,11,-1
 277 320 l 1,0,-1
256 85 m 128,-1,13
 318 85 318 85 361.5 129 c 128,-1,14
 405 173 405 173 405 235 c 128,-1,15
 405 297 405 297 361.5 340.5 c 128,-1,16
 318 384 318 384 256 384 c 128,-1,17
 194 384 194 384 150.5 340.5 c 128,-1,18
 107 297 107 297 107 235 c 128,-1,19
 107 173 107 173 150.5 129 c 128,-1,12
 194 85 194 85 256 85 c 128,-1,13
256 427 m 128,-1,21
 336 427 336 427 392 370.5 c 128,-1,22
 448 314 448 314 448 235 c 128,-1,23
 448 156 448 156 392 99.5 c 128,-1,24
 336 43 336 43 256 43 c 128,-1,25
 176 43 176 43 120 99.5 c 128,-1,26
 64 156 64 156 64 235 c 128,-1,27
 64 314 64 314 120 370.5 c 128,-1,20
 176 427 176 427 256 427 c 128,-1,21
469 390 m 1,28,-1
 442 357 l 1,29,-1
 344 440 l 1,30,-1
 371 472 l 1,31,-1
 469 390 l 1,28,-1
168 440 m 1,32,-1
 70 358 l 1,33,-1
 43 390 l 1,34,-1
 141 472 l 1,35,-1
 168 440 l 1,32,-1
EndSplineSet
Ligature2: "'liga' Standard Ligatures in Latin lookup 0 subtable" a d d underscore a l a r m
EndChar

StartChar: uniE194
Encoding: 57748 57748 219
Width: 512
GlyphClass: 3
Flags: W
LayerCount: 2
Fore
SplineSet
64 400 m 1,0,-1
 91 427 l 1,1,-1
 427 91 l 1,2,-1
 400 64 l 1,3,-1
 277 186 l 1,4,-1
 277 107 l 1,5,-1
 320 75 l 1,6,-1
 320 43 l 1,7,-1
 245 64 l 1,8,-1
 171 43 l 1,9,-1
 171 75 l 1,10,-1
 213 107 l 1,11,-1
 213 224 l 1,12,-1
 43 171 l 1,13,-1
 43 213 l 1,14,-1
 170 293 l 1,15,-1
 64 400 l 1,0,-1
277 320 m 1,16,-1
 448 213 l 1,17,-1
 448 171 l 1,18,-1
 380 192 l 1,19,-1
 213 359 l 1,20,-1
 213 437 l 2,21,22
 213 450 213 450 222.5 459.5 c 128,-1,23
 232 469 232 469 245 469 c 128,-1,24
 258 469 258 469 267.5 459.5 c 128,-1,25
 277 450 277 450 277 437 c 2,26,-1
 277 320 l 1,16,-1
EndSplineSet
Ligature2: "'liga' Standard Ligatures in Latin lookup 0 subtable" a i r p l a n e m o d e underscore o f f
Ligature2: "'liga' Standard Ligatures in Latin lookup 0 subtable" a i r p l a n e m o d e underscore i n a c t i v e
EndChar

StartChar: uniE195
Encoding: 57749 57749 220
Width: 512
GlyphClass: 3
Flags: W
LayerCount: 2
Fore
SplineSet
217 320 m 1024,0,-1
448 171 m 1,1,-1
 277 224 l 1,2,-1
 277 107 l 1,3,-1
 320 75 l 1,4,-1
 320 43 l 1,5,-1
 245 64 l 1,6,-1
 171 43 l 1,7,-1
 171 75 l 1,8,-1
 213 107 l 1,9,-1
 213 224 l 1,10,-1
 43 171 l 1,11,-1
 43 213 l 1,12,-1
 213 320 l 1,13,-1
 213 437 l 2,14,15
 213 450 213 450 222.5 459.5 c 128,-1,16
 232 469 232 469 245 469 c 128,-1,17
 258 469 258 469 267.5 459.5 c 128,-1,18
 277 450 277 450 277 437 c 2,19,-1
 277 320 l 1,20,-1
 448 213 l 1,21,-1
 448 171 l 1,1,-1
EndSplineSet
Ligature2: "'liga' Standard Ligatures in Latin lookup 0 subtable" a i r p l a n e m o d e underscore o n
Ligature2: "'liga' Standard Ligatures in Latin lookup 0 subtable" a i r p l a n e m o d e underscore a c t i v e
EndChar

StartChar: uniE19C
Encoding: 57756 57756 221
Width: 512
GlyphClass: 3
Flags: W
LayerCount: 2
Fore
SplineSet
277 213 m 1,0,-1
 277 320 l 1,1,-1
 235 320 l 1,2,-1
 235 213 l 1,3,-1
 277 213 l 1,0,-1
277 128 m 1,4,-1
 277 171 l 1,5,-1
 235 171 l 1,6,-1
 235 128 l 1,7,-1
 277 128 l 1,4,-1
334 427 m 2,8,9
 346 427 346 427 354.5 418.5 c 128,-1,10
 363 410 363 410 363 398 c 2,11,-1
 363 71 l 2,12,13
 363 59 363 59 354.5 51 c 128,-1,14
 346 43 346 43 334 43 c 2,15,-1
 178 43 l 2,16,17
 166 43 166 43 157.5 51 c 128,-1,18
 149 59 149 59 149 71 c 2,19,-1
 149 398 l 2,20,21
 149 410 149 410 157.5 418.5 c 128,-1,22
 166 427 166 427 178 427 c 2,23,-1
 213 427 l 1,24,-1
 213 469 l 1,25,-1
 299 469 l 1,26,-1
 299 427 l 1,27,-1
 334 427 l 2,8,9
EndSplineSet
Ligature2: "'liga' Standard Ligatures in Latin lookup 0 subtable" b a t t e r y underscore a l e r t
EndChar

StartChar: uniE1A3
Encoding: 57763 57763 222
Width: 512
GlyphClass: 3
Flags: W
LayerCount: 2
Fore
SplineSet
235 85 m 1,0,-1
 320 245 l 1,1,-1
 277 245 l 1,2,-1
 277 363 l 1,3,-1
 192 203 l 1,4,-1
 235 203 l 1,5,-1
 235 85 l 1,0,-1
334 427 m 2,6,7
 346 427 346 427 354.5 418.5 c 128,-1,8
 363 410 363 410 363 398 c 2,9,-1
 363 71 l 2,10,11
 363 59 363 59 354.5 51 c 128,-1,12
 346 43 346 43 334 43 c 2,13,-1
 178 43 l 2,14,15
 166 43 166 43 157.5 51 c 128,-1,16
 149 59 149 59 149 71 c 2,17,-1
 149 398 l 2,18,19
 149 410 149 410 157.5 418.5 c 128,-1,20
 166 427 166 427 178 427 c 2,21,-1
 213 427 l 1,22,-1
 213 469 l 1,23,-1
 299 469 l 1,24,-1
 299 427 l 1,25,-1
 334 427 l 2,6,7
EndSplineSet
Ligature2: "'liga' Standard Ligatures in Latin lookup 0 subtable" b a t t e r y underscore c h a r g i n g underscore f u l l
EndChar

StartChar: uniE1A4
Encoding: 57764 57764 223
Width: 512
GlyphClass: 3
Flags: W
LayerCount: 2
Fore
SplineSet
334 427 m 2,0,1
 346 427 346 427 354.5 418.5 c 128,-1,2
 363 410 363 410 363 398 c 2,3,-1
 363 71 l 2,4,5
 363 59 363 59 354.5 51 c 128,-1,6
 346 43 346 43 334 43 c 2,7,-1
 178 43 l 2,8,9
 166 43 166 43 157.5 51 c 128,-1,10
 149 59 149 59 149 71 c 2,11,-1
 149 398 l 2,12,13
 149 410 149 410 157.5 418.5 c 128,-1,14
 166 427 166 427 178 427 c 2,15,-1
 213 427 l 1,16,-1
 213 469 l 1,17,-1
 299 469 l 1,18,-1
 299 427 l 1,19,-1
 334 427 l 2,0,1
EndSplineSet
Ligature2: "'liga' Standard Ligatures in Latin lookup 0 subtable" b a t t e r y underscore f u l l
EndChar

StartChar: uniE1A5
Encoding: 57765 57765 224
Width: 512
GlyphClass: 3
Flags: W
LayerCount: 2
Fore
SplineSet
334 427 m 2,0,1
 346 427 346 427 354.5 418.5 c 128,-1,2
 363 410 363 410 363 398 c 2,3,-1
 363 71 l 2,4,5
 363 59 363 59 354.5 51 c 128,-1,6
 346 43 346 43 334 43 c 2,7,-1
 178 43 l 2,8,9
 166 43 166 43 157.5 51 c 128,-1,10
 149 59 149 59 149 71 c 2,11,-1
 149 398 l 2,12,13
 149 410 149 410 157.5 418.5 c 128,-1,14
 166 427 166 427 178 427 c 2,15,-1
 213 427 l 1,16,-1
 213 469 l 1,17,-1
 299 469 l 1,18,-1
 299 427 l 1,19,-1
 334 427 l 2,0,1
EndSplineSet
Ligature2: "'liga' Standard Ligatures in Latin lookup 0 subtable" b a t t e r y underscore s t d
EndChar

StartChar: uniE1A6
Encoding: 57766 57766 225
Width: 512
GlyphClass: 3
Flags: W
LayerCount: 2
Fore
SplineSet
305 241 m 2,0,1
 320 256 320 256 320 277 c 0,2,3
 320 303 320 303 301 322 c 128,-1,4
 282 341 282 341 256 341 c 128,-1,5
 230 341 230 341 211 322 c 128,-1,6
 192 303 192 303 192 277 c 1,7,-1
 224 277 l 1,8,9
 224 290 224 290 233 299.5 c 128,-1,10
 242 309 242 309 256 309 c 128,-1,11
 270 309 270 309 279 299.5 c 128,-1,12
 288 290 288 290 288 277 c 128,-1,13
 288 264 288 264 279 255 c 2,14,-1
 259 235 l 2,15,16
 239 215 239 215 239 192 c 1,17,-1
 273 192 l 1,18,19
 273 208 273 208 291 226 c 2,20,-1
 305 241 l 2,0,1
276 129 m 1,21,-1
 276 170 l 1,22,-1
 236 170 l 1,23,-1
 236 129 l 1,24,-1
 276 129 l 1,21,-1
334 427 m 2,25,26
 346 427 346 427 354.5 418.5 c 128,-1,27
 363 410 363 410 363 398 c 2,28,-1
 363 71 l 2,29,30
 363 59 363 59 354.5 51 c 128,-1,31
 346 43 346 43 334 43 c 2,32,-1
 178 43 l 2,33,34
 166 43 166 43 157.5 51 c 128,-1,35
 149 59 149 59 149 71 c 2,36,-1
 149 398 l 2,37,38
 149 410 149 410 157.5 418.5 c 128,-1,39
 166 427 166 427 178 427 c 2,40,-1
 213 427 l 1,41,-1
 213 469 l 1,42,-1
 299 469 l 1,43,-1
 299 427 l 1,44,-1
 334 427 l 2,25,26
EndSplineSet
Ligature2: "'liga' Standard Ligatures in Latin lookup 0 subtable" b a t t e r y underscore u n k n o w n
EndChar

StartChar: uniE1A7
Encoding: 57767 57767 226
Width: 512
GlyphClass: 3
Flags: W
LayerCount: 2
Fore
SplineSet
317 164 m 1,0,-1
 277 205 l 1,1,-1
 277 124 l 1,2,-1
 317 164 l 1,0,-1
277 388 m 1,3,-1
 277 307 l 1,4,-1
 317 348 l 1,5,-1
 277 388 l 1,3,-1
378 348 m 1,6,-1
 286 256 l 1,7,-1
 378 164 l 1,8,-1
 256 43 l 1,9,-1
 235 43 l 1,10,-1
 235 205 l 1,11,-1
 137 107 l 1,12,-1
 107 137 l 1,13,-1
 226 256 l 1,14,-1
 107 375 l 1,15,-1
 137 405 l 1,16,-1
 235 307 l 1,17,-1
 235 469 l 1,18,-1
 256 469 l 1,19,-1
 378 348 l 1,6,-1
EndSplineSet
Ligature2: "'liga' Standard Ligatures in Latin lookup 0 subtable" b l u e t o o t h
EndChar

StartChar: uniE1A8
Encoding: 57768 57768 227
Width: 512
GlyphClass: 3
Flags: W
LayerCount: 2
Fore
SplineSet
405 299 m 1,0,-1
 448 256 l 1,1,-1
 405 213 l 1,2,-1
 363 256 l 1,3,-1
 405 299 l 1,0,-1
317 164 m 1,4,-1
 277 205 l 1,5,-1
 277 124 l 1,6,-1
 317 164 l 1,4,-1
277 388 m 1,7,-1
 277 307 l 1,8,-1
 317 348 l 1,9,-1
 277 388 l 1,7,-1
378 348 m 1,10,-1
 286 256 l 1,11,-1
 378 164 l 1,12,-1
 256 43 l 1,13,-1
 235 43 l 1,14,-1
 235 205 l 1,15,-1
 137 107 l 1,16,-1
 107 137 l 1,17,-1
 226 256 l 1,18,-1
 107 375 l 1,19,-1
 137 405 l 1,20,-1
 235 307 l 1,21,-1
 235 469 l 1,22,-1
 256 469 l 1,23,-1
 378 348 l 1,10,-1
149 256 m 1,24,-1
 107 213 l 1,25,-1
 64 256 l 1,26,-1
 107 299 l 1,27,-1
 149 256 l 1,24,-1
EndSplineSet
Ligature2: "'liga' Standard Ligatures in Latin lookup 0 subtable" b l u e t o o t h underscore c o n n e c t e d
EndChar

StartChar: uniE1A9
Encoding: 57769 57769 228
Width: 512
GlyphClass: 3
Flags: W
LayerCount: 2
Fore
SplineSet
277 124 m 1,0,-1
 317 164 l 1,1,-1
 277 205 l 1,2,-1
 277 124 l 1,0,-1
115 427 m 1,3,-1
 427 115 l 1,4,-1
 397 85 l 1,5,-1
 348 134 l 1,6,-1
 256 43 l 1,7,-1
 235 43 l 1,8,-1
 235 205 l 1,9,-1
 137 107 l 1,10,-1
 107 137 l 1,11,-1
 226 256 l 1,12,-1
 85 397 l 1,13,-1
 115 427 l 1,3,-1
277 388 m 1,14,-1
 277 319 l 1,15,-1
 235 362 l 1,16,-1
 235 469 l 1,17,-1
 256 469 l 1,18,-1
 378 348 l 1,19,-1
 313 283 l 1,20,-1
 283 313 l 1,21,-1
 317 348 l 1,22,-1
 277 388 l 1,14,-1
EndSplineSet
Ligature2: "'liga' Standard Ligatures in Latin lookup 0 subtable" b l u e t o o t h underscore d i s a b l e d
EndChar

StartChar: uniE1AA
Encoding: 57770 57770 229
Width: 512
GlyphClass: 3
Flags: W
LayerCount: 2
Fore
SplineSet
275 164 m 1,0,-1
 235 205 l 1,1,-1
 235 124 l 1,2,-1
 275 164 l 1,0,-1
235 388 m 1,3,-1
 235 307 l 1,4,-1
 275 348 l 1,5,-1
 235 388 l 1,3,-1
335 348 m 1,6,-1
 243 256 l 1,7,-1
 335 164 l 1,8,-1
 213 43 l 1,9,-1
 192 43 l 1,10,-1
 192 205 l 1,11,-1
 94 107 l 1,12,-1
 64 137 l 1,13,-1
 183 256 l 1,14,-1
 64 375 l 1,15,-1
 94 405 l 1,16,-1
 192 307 l 1,17,-1
 192 469 l 1,18,-1
 213 469 l 1,19,-1
 335 348 l 1,6,-1
417 369 m 1,20,21
 448 319 448 319 448 258 c 128,-1,22
 448 197 448 197 415 145 c 1,23,-1
 390 170 l 1,24,25
 411 212 411 212 411 256 c 128,-1,26
 411 300 411 300 390 342 c 1,27,-1
 417 369 l 1,20,21
304 256 m 1,28,-1
 353 305 l 1,29,30
 363 280 363 280 363 256 c 0,31,32
 363 231 363 231 353 206 c 1,33,-1
 304 256 l 1,28,-1
EndSplineSet
Ligature2: "'liga' Standard Ligatures in Latin lookup 0 subtable" b l u e t o o t h underscore s e a r c h i n g
EndChar

StartChar: uniE1AB
Encoding: 57771 57771 230
Width: 512
GlyphClass: 3
Flags: W
LayerCount: 2
Fore
SplineSet
305 171 m 1,0,-1
 346 171 l 1,1,-1
 277 363 l 1,2,-1
 235 363 l 1,3,-1
 166 171 l 1,4,-1
 207 171 l 1,5,-1
 222 213 l 1,6,-1
 290 213 l 1,7,-1
 305 171 l 1,0,-1
427 327 m 1,8,-1
 497 256 l 1,9,-1
 427 185 l 1,10,-1
 427 85 l 1,11,-1
 327 85 l 1,12,-1
 256 15 l 1,13,-1
 185 85 l 1,14,-1
 85 85 l 1,15,-1
 85 185 l 1,16,-1
 15 256 l 1,17,-1
 85 327 l 1,18,-1
 85 427 l 1,19,-1
 185 427 l 1,20,-1
 256 497 l 1,21,-1
 327 427 l 1,22,-1
 427 427 l 1,23,-1
 427 327 l 1,8,-1
231 242 m 1,24,-1
 256 320 l 1,25,-1
 281 242 l 1,26,-1
 231 242 l 1,24,-1
EndSplineSet
Ligature2: "'liga' Standard Ligatures in Latin lookup 0 subtable" b r i g h t n e s s underscore a u t o
EndChar

StartChar: uniE1AC
Encoding: 57772 57772 231
Width: 512
GlyphClass: 3
Flags: W
LayerCount: 2
Fore
SplineSet
256 341 m 128,-1,1
 291 341 291 341 316 316 c 128,-1,2
 341 291 341 291 341 256 c 128,-1,3
 341 221 341 221 316 196 c 128,-1,4
 291 171 291 171 256 171 c 128,-1,5
 221 171 221 171 196 196 c 128,-1,6
 171 221 171 221 171 256 c 128,-1,7
 171 291 171 291 196 316 c 128,-1,0
 221 341 221 341 256 341 c 128,-1,1
256 128 m 128,-1,9
 309 128 309 128 346.5 165.5 c 128,-1,10
 384 203 384 203 384 256 c 128,-1,11
 384 309 384 309 346.5 346.5 c 128,-1,12
 309 384 309 384 256 384 c 128,-1,13
 203 384 203 384 165.5 346.5 c 128,-1,14
 128 309 128 309 128 256 c 128,-1,15
 128 203 128 203 165.5 165.5 c 128,-1,8
 203 128 203 128 256 128 c 128,-1,9
427 327 m 1,16,-1
 497 256 l 1,17,-1
 427 185 l 1,18,-1
 427 85 l 1,19,-1
 327 85 l 1,20,-1
 256 15 l 1,21,-1
 185 85 l 1,22,-1
 85 85 l 1,23,-1
 85 185 l 1,24,-1
 15 256 l 1,25,-1
 85 327 l 1,26,-1
 85 427 l 1,27,-1
 185 427 l 1,28,-1
 256 497 l 1,29,-1
 327 427 l 1,30,-1
 427 427 l 1,31,-1
 427 327 l 1,16,-1
EndSplineSet
Ligature2: "'liga' Standard Ligatures in Latin lookup 0 subtable" b r i g h t n e s s underscore h i g h
EndChar

StartChar: uniE1AD
Encoding: 57773 57773 232
Width: 512
GlyphClass: 3
Flags: W
LayerCount: 2
Fore
SplineSet
256 128 m 128,-1,1
 309 128 309 128 346.5 165.5 c 128,-1,2
 384 203 384 203 384 256 c 128,-1,3
 384 309 384 309 346.5 346.5 c 128,-1,4
 309 384 309 384 256 384 c 128,-1,5
 203 384 203 384 165.5 346.5 c 128,-1,6
 128 309 128 309 128 256 c 128,-1,7
 128 203 128 203 165.5 165.5 c 128,-1,0
 203 128 203 128 256 128 c 128,-1,1
427 185 m 1,8,-1
 427 85 l 1,9,-1
 327 85 l 1,10,-1
 256 15 l 1,11,-1
 185 85 l 1,12,-1
 85 85 l 1,13,-1
 85 185 l 1,14,-1
 15 256 l 1,15,-1
 85 327 l 1,16,-1
 85 427 l 1,17,-1
 185 427 l 1,18,-1
 256 497 l 1,19,-1
 327 427 l 1,20,-1
 427 427 l 1,21,-1
 427 327 l 1,22,-1
 497 256 l 1,23,-1
 427 185 l 1,8,-1
EndSplineSet
Ligature2: "'liga' Standard Ligatures in Latin lookup 0 subtable" b r i g h t n e s s underscore l o w
EndChar

StartChar: uniE1AE
Encoding: 57774 57774 233
Width: 512
GlyphClass: 3
Flags: W
LayerCount: 2
Fore
SplineSet
256 128 m 1,0,1
 309 128 309 128 346.5 165.5 c 128,-1,2
 384 203 384 203 384 256 c 128,-1,3
 384 309 384 309 346.5 346.5 c 128,-1,4
 309 384 309 384 256 384 c 1,5,-1
 256 128 l 1,0,1
427 185 m 1,6,-1
 427 85 l 1,7,-1
 327 85 l 1,8,-1
 256 15 l 1,9,-1
 185 85 l 1,10,-1
 85 85 l 1,11,-1
 85 185 l 1,12,-1
 15 256 l 1,13,-1
 85 327 l 1,14,-1
 85 427 l 1,15,-1
 185 427 l 1,16,-1
 256 497 l 1,17,-1
 327 427 l 1,18,-1
 427 427 l 1,19,-1
 427 327 l 1,20,-1
 497 256 l 1,21,-1
 427 185 l 1,6,-1
EndSplineSet
Ligature2: "'liga' Standard Ligatures in Latin lookup 0 subtable" b r i g h t n e s s underscore m e d i u m
EndChar

StartChar: uniE1AF
Encoding: 57775 57775 234
Width: 512
GlyphClass: 3
Flags: W
LayerCount: 2
Fore
SplineSet
256 107 m 0,0,1
 328 107 328 107 372 163 c 1,2,-1
 428 130 l 1,3,4
 364 43 364 43 256 43 c 0,5,6
 168 43 168 43 105.5 105.5 c 128,-1,7
 43 168 43 168 43 256 c 0,8,9
 43 339 43 339 98.5 399.5 c 128,-1,10
 154 460 154 460 235 468 c 1,11,-1
 235 404 l 1,12,13
 181 396 181 396 144 354 c 128,-1,14
 107 312 107 312 107 256 c 0,15,16
 107 194 107 194 150.5 150.5 c 128,-1,17
 194 107 194 107 256 107 c 0,0,1
277 468 m 1,18,19
 358 460 358 460 413.5 399.5 c 128,-1,20
 469 339 469 339 469 256 c 0,21,22
 469 208 469 208 451 169 c 1,23,-1
 395 202 l 1,24,25
 405 230 405 230 405 256 c 0,26,27
 405 312 405 312 368 354 c 128,-1,28
 331 396 331 396 277 404 c 1,29,-1
 277 468 l 1,18,19
EndSplineSet
Ligature2: "'liga' Standard Ligatures in Latin lookup 0 subtable" d a t a underscore u s a g e
EndChar

StartChar: uniE1B0
Encoding: 57776 57776 235
Width: 512
GlyphClass: 3
Flags: W
LayerCount: 2
Fore
SplineSet
363 107 m 1,0,-1
 363 149 l 1,1,-1
 405 149 l 1,2,-1
 405 64 l 2,3,4
 405 47 405 47 392.5 34 c 128,-1,5
 380 21 380 21 363 21 c 2,6,-1
 149 21 l 2,7,8
 132 21 132 21 119.5 34 c 128,-1,9
 107 47 107 47 107 64 c 2,10,-1
 107 149 l 1,11,-1
 149 149 l 1,12,-1
 149 107 l 1,13,-1
 363 107 l 1,0,-1
213 188 m 1,14,-1
 183 158 l 1,15,-1
 85 256 l 1,16,-1
 183 354 l 1,17,-1
 213 324 l 1,18,-1
 146 256 l 1,19,-1
 213 188 l 1,14,-1
329 158 m 1,20,-1
 299 188 l 1,21,-1
 366 256 l 1,22,-1
 299 324 l 1,23,-1
 329 354 l 1,24,-1
 427 256 l 1,25,-1
 329 158 l 1,20,-1
149 405 m 1,26,-1
 149 363 l 1,27,-1
 107 363 l 1,28,-1
 107 448 l 2,29,30
 107 465 107 465 119.5 478 c 128,-1,31
 132 491 132 491 149 491 c 2,32,-1
 363 490 l 2,33,34
 380 490 380 490 392.5 477.5 c 128,-1,35
 405 465 405 465 405 448 c 2,36,-1
 405 363 l 1,37,-1
 363 363 l 1,38,-1
 363 405 l 1,39,-1
 149 405 l 1,26,-1
EndSplineSet
Ligature2: "'liga' Standard Ligatures in Latin lookup 0 subtable" d e v e l o p e r underscore m o d e
EndChar

StartChar: uniE1B1
Encoding: 57777 57777 236
Width: 512
GlyphClass: 3
Flags: W
LayerCount: 2
Fore
SplineSet
469 149 m 1,0,-1
 469 299 l 1,1,-1
 384 299 l 1,2,-1
 384 149 l 1,3,-1
 469 149 l 1,0,-1
491 341 m 2,4,5
 500 341 500 341 506 335 c 128,-1,6
 512 329 512 329 512 320 c 2,7,-1
 512 107 l 2,8,9
 512 98 512 98 506 91.5 c 128,-1,10
 500 85 500 85 491 85 c 2,11,-1
 363 85 l 2,12,13
 354 85 354 85 347.5 91.5 c 128,-1,14
 341 98 341 98 341 107 c 2,15,-1
 341 320 l 2,16,17
 341 329 341 329 347.5 335 c 128,-1,18
 354 341 354 341 363 341 c 2,19,-1
 491 341 l 2,4,5
85 384 m 1,20,-1
 85 149 l 1,21,-1
 299 149 l 1,22,-1
 299 85 l 1,23,-1
 0 85 l 1,24,-1
 0 149 l 1,25,-1
 43 149 l 1,26,-1
 43 384 l 2,27,28
 43 401 43 401 55.5 414 c 128,-1,29
 68 427 68 427 85 427 c 2,30,-1
 469 427 l 1,31,-1
 469 384 l 1,32,-1
 85 384 l 1,20,-1
EndSplineSet
Ligature2: "'liga' Standard Ligatures in Latin lookup 0 subtable" d e v i c e s
EndChar

StartChar: uniE1B2
Encoding: 57778 57778 237
Width: 512
GlyphClass: 3
Flags: W
LayerCount: 2
Fore
SplineSet
149 256 m 1,0,-1
 149 213 l 1,1,-1
 107 213 l 1,2,-1
 107 256 l 1,3,-1
 149 256 l 1,0,-1
149 341 m 1,4,-1
 149 299 l 1,5,-1
 107 299 l 1,6,-1
 107 341 l 1,7,-1
 149 341 l 1,4,-1
405 256 m 1,8,-1
 405 213 l 1,9,-1
 171 213 l 1,10,-1
 171 256 l 1,11,-1
 405 256 l 1,8,-1
405 341 m 1,12,-1
 405 299 l 1,13,-1
 171 299 l 1,14,-1
 171 341 l 1,15,-1
 405 341 l 1,12,-1
448 149 m 1,16,-1
 448 405 l 1,17,-1
 64 405 l 1,18,-1
 64 149 l 1,19,-1
 448 149 l 1,16,-1
448 448 m 2,20,21
 465 448 465 448 478 435 c 128,-1,22
 491 422 491 422 491 405 c 2,23,-1
 490 149 l 2,24,25
 490 132 490 132 477.5 119.5 c 128,-1,26
 465 107 465 107 448 107 c 2,27,-1
 341 107 l 1,28,-1
 341 64 l 1,29,-1
 171 64 l 1,30,-1
 171 107 l 1,31,-1
 64 107 l 2,32,33
 47 107 47 107 34 119.5 c 128,-1,34
 21 132 21 132 21 149 c 2,35,-1
 21 405 l 2,36,37
 21 422 21 422 34 435 c 128,-1,38
 47 448 47 448 64 448 c 2,39,-1
 448 448 l 2,20,21
EndSplineSet
Ligature2: "'liga' Standard Ligatures in Latin lookup 0 subtable" d v r
EndChar

StartChar: uniE1B3
Encoding: 57779 57779 238
Width: 512
GlyphClass: 3
Flags: W
LayerCount: 2
Fore
SplineSet
256 107 m 128,-1,1
 318 107 318 107 361.5 150.5 c 128,-1,2
 405 194 405 194 405 256 c 128,-1,3
 405 318 405 318 361.5 361.5 c 128,-1,4
 318 405 318 405 256 405 c 128,-1,5
 194 405 194 405 150.5 361.5 c 128,-1,6
 107 318 107 318 107 256 c 128,-1,7
 107 194 107 194 150.5 150.5 c 128,-1,0
 194 107 194 107 256 107 c 128,-1,1
447 277 m 1,8,-1
 491 277 l 1,9,-1
 491 235 l 1,10,-1
 447 235 l 1,11,12
 440 168 440 168 392 120 c 128,-1,13
 344 72 344 72 277 65 c 1,14,-1
 277 21 l 1,15,-1
 235 21 l 1,16,-1
 235 65 l 1,17,18
 168 72 168 72 120 120 c 128,-1,19
 72 168 72 168 65 235 c 1,20,-1
 21 235 l 1,21,-1
 21 277 l 1,22,-1
 65 277 l 1,23,24
 72 344 72 344 120 392 c 128,-1,25
 168 440 168 440 235 447 c 1,26,-1
 235 491 l 1,27,-1
 277 491 l 1,28,-1
 277 447 l 1,29,30
 344 440 344 440 392 392 c 128,-1,31
 440 344 440 344 447 277 c 1,8,-1
256 341 m 128,-1,33
 291 341 291 341 316 316 c 128,-1,34
 341 291 341 291 341 256 c 128,-1,35
 341 221 341 221 316 196 c 128,-1,36
 291 171 291 171 256 171 c 128,-1,37
 221 171 221 171 196 196 c 128,-1,38
 171 221 171 221 171 256 c 128,-1,39
 171 291 171 291 196 316 c 128,-1,32
 221 341 221 341 256 341 c 128,-1,33
EndSplineSet
Ligature2: "'liga' Standard Ligatures in Latin lookup 0 subtable" g p s underscore f i x e d
EndChar

StartChar: uniE1B4
Encoding: 57780 57780 239
Width: 512
GlyphClass: 3
Flags: W
LayerCount: 2
Fore
SplineSet
256 107 m 128,-1,1
 318 107 318 107 361.5 150.5 c 128,-1,2
 405 194 405 194 405 256 c 128,-1,3
 405 318 405 318 361.5 361.5 c 128,-1,4
 318 405 318 405 256 405 c 128,-1,5
 194 405 194 405 150.5 361.5 c 128,-1,6
 107 318 107 318 107 256 c 128,-1,7
 107 194 107 194 150.5 150.5 c 128,-1,0
 194 107 194 107 256 107 c 128,-1,1
447 277 m 1,8,-1
 491 277 l 1,9,-1
 491 235 l 1,10,-1
 447 235 l 1,11,12
 440 168 440 168 392 120 c 128,-1,13
 344 72 344 72 277 65 c 1,14,-1
 277 21 l 1,15,-1
 235 21 l 1,16,-1
 235 65 l 1,17,18
 168 72 168 72 120 120 c 128,-1,19
 72 168 72 168 65 235 c 1,20,-1
 21 235 l 1,21,-1
 21 277 l 1,22,-1
 65 277 l 1,23,24
 72 344 72 344 120 392 c 128,-1,25
 168 440 168 440 235 447 c 1,26,-1
 235 491 l 1,27,-1
 277 491 l 1,28,-1
 277 447 l 1,29,30
 344 440 344 440 392 392 c 128,-1,31
 440 344 440 344 447 277 c 1,8,-1
EndSplineSet
Ligature2: "'liga' Standard Ligatures in Latin lookup 0 subtable" g p s underscore n o t underscore f i x e d
EndChar

StartChar: uniE1B5
Encoding: 57781 57781 240
Width: 512
GlyphClass: 3
Flags: W
LayerCount: 2
Fore
SplineSet
347 138 m 1,0,-1
 138 347 l 1,1,2
 107 306 107 306 107 256 c 0,3,4
 107 194 107 194 150.5 150.5 c 128,-1,5
 194 107 194 107 256 107 c 0,6,7
 306 107 306 107 347 138 c 1,0,-1
64 421 m 1,8,-1
 91 448 l 1,9,-1
 448 91 l 1,10,-1
 421 64 l 1,11,-1
 377 108 l 1,12,13
 332 71 332 71 277 65 c 1,14,-1
 277 21 l 1,15,-1
 235 21 l 1,16,-1
 235 65 l 1,17,18
 168 72 168 72 120 120 c 128,-1,19
 72 168 72 168 65 235 c 1,20,-1
 21 235 l 1,21,-1
 21 277 l 1,22,-1
 65 277 l 1,23,24
 71 332 71 332 108 377 c 1,25,-1
 64 421 l 1,8,-1
447 277 m 1,26,-1
 491 277 l 1,27,-1
 491 235 l 1,28,-1
 447 235 l 1,29,30
 442 196 442 196 426 167 c 1,31,-1
 394 199 l 1,32,33
 405 226 405 226 405 256 c 0,34,35
 405 318 405 318 361.5 361.5 c 128,-1,36
 318 405 318 405 256 405 c 0,37,38
 226 405 226 405 199 394 c 1,39,-1
 167 426 l 1,40,41
 198 442 198 442 235 447 c 1,42,-1
 235 491 l 1,43,-1
 277 491 l 1,44,-1
 277 447 l 1,45,46
 344 440 344 440 392 392 c 128,-1,47
 440 344 440 344 447 277 c 1,26,-1
EndSplineSet
Ligature2: "'liga' Standard Ligatures in Latin lookup 0 subtable" g p s underscore o f f
EndChar

StartChar: uniE1B6
Encoding: 57782 57782 241
Width: 512
GlyphClass: 3
Flags: W
LayerCount: 2
Fore
SplineSet
347 138 m 1,0,-1
 138 347 l 1,1,2
 107 306 107 306 107 256 c 0,3,4
 107 194 107 194 150.5 150.5 c 128,-1,5
 194 107 194 107 256 107 c 0,6,7
 306 107 306 107 347 138 c 1,0,-1
64 421 m 1,8,-1
 91 448 l 1,9,-1
 448 91 l 1,10,-1
 421 64 l 1,11,-1
 377 108 l 1,12,13
 332 71 332 71 277 65 c 1,14,-1
 277 21 l 1,15,-1
 235 21 l 1,16,-1
 235 65 l 1,17,18
 168 72 168 72 120 120 c 128,-1,19
 72 168 72 168 65 235 c 1,20,-1
 21 235 l 1,21,-1
 21 277 l 1,22,-1
 65 277 l 1,23,24
 71 332 71 332 108 377 c 1,25,-1
 64 421 l 1,8,-1
447 277 m 1,26,-1
 491 277 l 1,27,-1
 491 235 l 1,28,-1
 447 235 l 1,29,30
 442 196 442 196 426 167 c 1,31,-1
 394 199 l 1,32,33
 405 226 405 226 405 256 c 0,34,35
 405 318 405 318 361.5 361.5 c 128,-1,36
 318 405 318 405 256 405 c 0,37,38
 226 405 226 405 199 394 c 1,39,-1
 167 426 l 1,40,41
 198 442 198 442 235 447 c 1,42,-1
 235 491 l 1,43,-1
 277 491 l 1,44,-1
 277 447 l 1,45,46
 344 440 344 440 392 392 c 128,-1,47
 440 344 440 344 447 277 c 1,26,-1
EndSplineSet
Ligature2: "'liga' Standard Ligatures in Latin lookup 0 subtable" l o c a t i o n underscore d i s a b l e d
EndChar

StartChar: uniE1B7
Encoding: 57783 57783 242
Width: 512
GlyphClass: 3
Flags: W
LayerCount: 2
Fore
SplineSet
256 107 m 128,-1,1
 318 107 318 107 361.5 150.5 c 128,-1,2
 405 194 405 194 405 256 c 128,-1,3
 405 318 405 318 361.5 361.5 c 128,-1,4
 318 405 318 405 256 405 c 128,-1,5
 194 405 194 405 150.5 361.5 c 128,-1,6
 107 318 107 318 107 256 c 128,-1,7
 107 194 107 194 150.5 150.5 c 128,-1,0
 194 107 194 107 256 107 c 128,-1,1
447 277 m 1,8,-1
 491 277 l 1,9,-1
 491 235 l 1,10,-1
 447 235 l 1,11,12
 440 168 440 168 392 120 c 128,-1,13
 344 72 344 72 277 65 c 1,14,-1
 277 21 l 1,15,-1
 235 21 l 1,16,-1
 235 65 l 1,17,18
 168 72 168 72 120 120 c 128,-1,19
 72 168 72 168 65 235 c 1,20,-1
 21 235 l 1,21,-1
 21 277 l 1,22,-1
 65 277 l 1,23,24
 72 344 72 344 120 392 c 128,-1,25
 168 440 168 440 235 447 c 1,26,-1
 235 491 l 1,27,-1
 277 491 l 1,28,-1
 277 447 l 1,29,30
 344 440 344 440 392 392 c 128,-1,31
 440 344 440 344 447 277 c 1,8,-1
EndSplineSet
Ligature2: "'liga' Standard Ligatures in Latin lookup 0 subtable" l o c a t i o n underscore s e a r c h i n g
EndChar

